<?xml version="1.0" standalone="no"?>
<!DOCTYPE svg PUBLIC "-//W3C//DTD SVG 20010904//EN"
 "http://www.w3.org/TR/2001/REC-SVG-20010904/DTD/svg10.dtd">
<svg version="1.0" xmlns="http://www.w3.org/2000/svg"
 width="4267.000000pt" height="3200.000000pt" viewBox="0 0 4267.000000 3200.000000"
 preserveAspectRatio="xMidYMid meet">

<g transform="translate(0.000000,3200.000000) scale(0.100000,-0.100000)"
fill="#000000" stroke="none">
<path d="M0 16000 l0 -16000 21335 0 21335 0 0 16000 0 16000 -21335 0 -21335
0 0 -16000z m13342 9607 c15 -18 41 -56 59 -84 29 -49 30 -55 19 -84 -10 -24
-33 -40 -110 -79 -489 -245 -1058 -734 -1327 -1140 -161 -243 -235 -436 -234
-617 0 -99 19 -170 67 -249 44 -74 73 -105 149 -159 176 -125 394 -187 771
-219 124 -11 170 -19 202 -35 42 -21 85 -69 97 -108 l6 -23 1952 0 c1233 0
1994 -4 2067 -10 170 -15 377 -47 530 -81 161 -36 473 -139 620 -204 839 -369
1507 -1042 1863 -1876 125 -292 224 -661 257 -954 6 -55 13 -113 16 -130 9
-56 12 -460 3 -570 -44 -582 -224 -1133 -529 -1624 -376 -606 -937 -1095
-1583 -1380 -447 -198 -926 -302 -1409 -305 -109 0 -198 -3 -198 -4 0 -2 812
-1357 1805 -3012 993 -1655 1808 -3015 1811 -3024 6 -15 -68 -16 -827 -14
l-832 3 -2243 3738 -2242 3737 1366 1 c752 0 1399 3 1437 5 784 51 1464 503
1805 1199 148 304 215 593 215 935 0 249 -32 451 -106 673 -266 796 -968 1361
-1809 1456 -116 13 -3980 14 -3980 1 0 -16 -61 -80 -94 -98 -26 -14 -73 -18
-271 -23 -273 -7 -310 -14 -451 -84 -199 -100 -345 -289 -390 -508 -18 -83
-20 -389 -4 -460 30 -136 125 -249 269 -322 91 -45 141 -90 170 -154 13 -30
16 -79 16 -313 l0 -276 -30 -43 c-16 -23 -50 -53 -75 -66 l-44 -23 -791 2
c-776 3 -791 3 -825 23 -19 12 -48 40 -65 64 l-30 43 -3 259 c-3 223 -1 267
14 311 23 69 74 123 158 165 151 75 236 168 277 303 19 63 20 88 17 431 l-3
364 -29 62 c-35 77 -111 151 -197 193 -137 66 -161 118 -154 329 16 462 64
806 165 1199 315 1216 1023 2124 2080 2669 226 117 509 233 549 227 14 -3 38
-19 53 -37z m9933 -2837 c213 -46 374 -166 460 -343 78 -160 105 -311 105
-584 l0 -163 -290 0 -290 0 0 128 c-1 214 -20 328 -68 397 -43 61 -83 80 -173
80 -66 0 -81 -4 -117 -28 -51 -34 -88 -102 -107 -201 -18 -89 -13 -328 8 -402
38 -135 141 -254 361 -422 372 -282 524 -439 624 -644 162 -331 162 -950 0
-1277 -143 -290 -401 -431 -786 -431 -343 0 -584 111 -727 334 -98 154 -151
423 -143 726 l3 115 291 3 291 2 6 -192 c3 -124 11 -215 21 -255 38 -151 135
-233 277 -233 197 0 290 148 291 466 0 206 -19 312 -78 425 -69 130 -162 224
-469 469 -158 127 -310 272 -376 360 -101 135 -167 311 -188 505 -11 107 -7
349 8 455 65 446 296 687 696 730 102 11 267 2 370 -20z m-1486 -44 c8 -10 10
-509 9 -1902 l-3 -1889 -290 0 -290 0 -3 1894 c-2 1509 0 1896 10 1903 7 4
135 8 284 8 217 0 274 -3 283 -14z m3941 -261 l0 -275 -440 0 -440 0 0 -490 0
-490 420 0 421 0 -1 -270 -1 -270 -420 0 -419 0 2 -595 3 -595 478 -1 c431 0
477 -2 477 -16 0 -18 -45 -340 -63 -453 l-12 -75 -735 0 -735 0 -3 1894 c-2
1509 0 1896 10 1903 7 4 338 8 736 7 l722 0 0 -274z m-14085 -4237 c-52 -128
-73 -422 -41 -598 26 -146 52 -219 193 -545 176 -406 225 -584 227 -810 0
-116 -4 -153 -22 -218 -37 -130 -120 -274 -205 -355 l-35 -34 16 64 c23 94 23
376 -1 486 -36 167 -80 284 -256 676 -89 197 -135 328 -162 460 -49 235 1 484
139 700 30 48 151 206 157 206 2 0 -2 -15 -10 -32z m15025 -97 c347 -87 560
-354 619 -776 6 -43 9 -504 8 -1185 -2 -1107 -2 -1116 -24 -1211 -52 -226
-112 -348 -233 -470 -71 -71 -101 -93 -180 -132 -161 -80 -306 -107 -540 -103
-293 6 -473 74 -627 239 -106 114 -173 263 -215 482 -21 107 -22 138 -24 1165
-3 1075 -1 1164 35 1325 70 312 256 540 516 634 139 50 217 61 410 57 131 -3
190 -9 255 -25z m-4235 -43 c5 -25 122 -727 429 -2565 195 -1175 201 -1212
181 -1217 -31 -9 -568 -7 -582 2 -13 8 -17 31 -102 617 l-56 390 -291 3 -291
2 -6 -37 c-4 -21 -18 -128 -32 -238 -14 -110 -30 -233 -35 -272 -6 -40 -14
-108 -20 -150 -10 -80 -12 -93 -30 -227 -5 -43 -12 -82 -15 -86 -7 -12 -583
-12 -590 0 -3 5 3 60 14 122 11 62 31 187 46 278 44 279 99 620 144 900 17
102 40 244 51 315 11 72 29 184 40 250 11 66 33 206 50 310 29 178 39 240 90
563 12 70 36 222 55 337 19 116 44 269 55 340 11 72 30 187 42 258 l22 127
413 0 413 0 5 -22z m1985 -6 c344 -73 525 -248 595 -577 21 -96 29 -451 14
-590 -23 -219 -82 -369 -184 -470 -33 -34 -77 -69 -97 -78 -20 -10 -39 -21
-42 -25 -2 -4 26 -23 62 -42 85 -43 196 -153 239 -236 39 -74 80 -213 92 -314
12 -102 12 -543 0 -657 -14 -137 -53 -276 -105 -383 -83 -167 -227 -289 -414
-348 -160 -52 -211 -56 -740 -56 l-495 -1 -3 1890 c-1 1040 0 1896 3 1904 4
11 88 12 493 8 437 -4 497 -7 582 -25z m3730 11 c0 -10 5 -52 11 -93 5 -41 16
-124 24 -185 8 -60 26 -198 40 -305 30 -227 30 -230 49 -380 14 -101 25 -184
41 -310 3 -19 16 -120 30 -225 13 -104 31 -242 40 -305 9 -63 20 -144 25 -180
23 -170 100 -799 112 -915 l14 -130 13 125 c18 182 83 688 126 995 10 66 74
585 160 1300 25 204 52 427 61 498 l17 127 313 0 c173 0 314 -3 314 -7 0 -5
-36 -219 -80 -478 -81 -472 -120 -700 -205 -1200 -42 -247 -64 -376 -155 -910
-17 -99 -49 -286 -71 -415 -22 -129 -58 -341 -80 -470 -22 -129 -43 -255 -47
-280 l-7 -45 -360 0 -359 0 -23 130 c-13 72 -36 207 -52 300 -45 259 -191
1092 -216 1235 -21 114 -126 719 -176 1005 -22 127 -53 304 -69 395 -15 91
-42 246 -60 345 -17 99 -40 226 -50 283 -11 57 -20 105 -20 108 0 2 144 4 320
4 298 0 320 -1 320 -17z m3120 -258 l0 -275 -440 0 -440 0 0 -490 0 -490 415
0 415 0 0 -270 0 -270 -415 0 -415 0 0 -595 0 -595 480 0 c264 0 480 -2 480
-5 0 -2 -13 -100 -29 -217 -16 -117 -32 -236 -36 -265 -6 -49 -9 -53 -38 -58
-18 -3 -349 -5 -737 -3 l-705 3 -3 1903 -2 1902 735 0 735 0 0 -275z m-19950
-981 c-60 -173 -69 -421 -24 -624 24 -107 52 -182 171 -465 137 -322 195 -491
224 -651 48 -265 -3 -497 -151 -689 -37 -48 -90 -103 -90 -94 0 2 7 38 15 79
22 111 15 378 -13 490 -31 128 -78 260 -144 410 -209 469 -245 566 -274 733
-40 226 18 478 159 687 35 52 136 180 142 180 2 0 -5 -25 -15 -56z m3394
-1558 c224 -374 408 -683 409 -686 1 -4 -671 -1128 -1492 -2499 l-1495 -2491
-833 0 -834 0 28 48 c15 26 92 154 170 285 l143 238 0 1919 0 1920 715 0 715
0 2 -724 3 -723 975 1625 c1148 1914 1070 1786 1080 1775 4 -4 190 -314 414
-687z m16923 -1785 c219 -54 366 -170 454 -356 69 -148 96 -301 98 -567 l2
-168 -290 0 c-255 0 -290 2 -295 16 -3 9 -6 86 -6 172 0 246 -31 346 -125 399
-47 27 -146 31 -198 9 -50 -20 -102 -88 -123 -159 -25 -84 -30 -344 -9 -435
36 -154 143 -281 395 -469 466 -348 627 -565 691 -933 25 -138 30 -476 10
-605 -69 -445 -271 -688 -644 -772 -91 -20 -384 -23 -472 -4 -224 47 -375 137
-478 284 -118 168 -162 356 -166 700 l-2 177 296 0 295 0 0 -162 c1 -246 28
-365 101 -437 51 -52 111 -74 199 -75 103 -1 160 28 212 105 53 79 69 148 75
325 8 232 -18 365 -98 501 -49 83 -199 229 -397 387 -435 347 -560 526 -608
868 -19 135 -14 407 10 535 76 412 283 627 654 682 97 15 327 5 419 -18z
m-7037 3 c181 -34 307 -99 425 -218 119 -120 189 -264 238 -486 20 -93 21
-123 23 -1185 3 -1182 3 -1203 -51 -1391 -122 -425 -419 -620 -930 -609 -483
10 -732 218 -837 701 -21 98 -22 114 -24 1194 -3 913 -1 1112 11 1195 42 289
158 516 328 642 109 81 269 145 412 166 70 10 334 4 405 -9z m-2806 -56 c3
-13 6 -350 6 -750 l0 -728 310 0 310 0 0 750 0 750 295 0 295 0 0 -1900 0
-1900 -295 0 -295 0 0 880 0 880 -310 0 -310 0 0 -880 0 -880 -295 0 -295 0 0
1900 0 1900 289 0 289 0 6 -22z m4806 15 c0 -5 9 -69 20 -143 23 -155 26 -171
80 -540 22 -151 50 -340 61 -420 11 -80 26 -192 35 -250 8 -58 21 -157 30
-220 8 -63 17 -126 19 -140 5 -28 19 -140 41 -315 8 -66 16 -133 19 -150 2
-16 12 -102 21 -190 9 -88 21 -164 26 -169 4 -6 8 3 8 20 0 80 114 793 290
1809 46 268 120 703 120 709 0 3 191 6 425 6 l425 0 0 -1900 0 -1900 -281 0
-281 0 5 1583 c3 870 7 1591 10 1603 3 11 2 26 -2 32 -4 6 -13 -32 -20 -86
-17 -132 -95 -707 -131 -977 -35 -256 -60 -427 -175 -1235 -119 -839 -124
-872 -130 -897 l-5 -23 -278 0 -277 0 -48 383 c-45 366 -100 798 -112 882 -5
40 -74 572 -100 780 -8 61 -30 236 -50 390 -20 154 -47 370 -61 480 -55 431
-53 433 -47 -25 3 -228 7 -426 9 -440 2 -14 7 -571 11 -1237 l6 -1213 -271 0
-272 0 0 1900 0 1900 440 0 c242 0 440 -3 440 -7z m3595 -25 c3 -18 5 -141 3
-273 l-3 -240 -442 -3 -443 -2 0 -485 0 -485 393 -1 c215 -1 397 -2 402 -4 6
-1 18 -3 28 -3 16 -2 17 -22 17 -272 l0 -270 -420 0 -420 0 0 -595 0 -595 480
0 480 0 0 -26 c0 -25 -56 -446 -66 -491 l-4 -23 -740 0 -740 0 0 1893 c0 1042
3 1897 7 1900 3 4 334 7 734 7 l728 0 6 -32z m-14995 -1783 l0 -575 -570 0
-570 0 0 568 c0 313 3 572 7 575 3 4 260 7 570 7 l563 0 0 -575z m1468 -3 l2
-572 -572 2 -573 3 -2 564 c-1 311 0 568 3 572 2 5 260 7 572 6 l567 -2 3
-573z m-1468 -1467 l0 -575 -570 0 -570 0 0 575 0 575 570 0 570 0 0 -575z
m1470 0 l0 -575 -569 0 c-516 0 -569 2 -575 16 -8 21 -7 1099 0 1119 5 13 79
15 575 15 l569 0 0 -575z m-5738 -2310 c158 -33 248 -143 272 -332 l5 -43 -82
0 -83 0 -12 56 c-26 128 -91 185 -207 185 -67 0 -109 -15 -146 -54 -68 -71
-73 -220 -12 -310 33 -47 76 -77 217 -151 139 -73 181 -102 244 -170 78 -86
97 -143 97 -296 0 -151 -19 -210 -95 -293 -73 -80 -145 -109 -281 -115 -240
-10 -379 90 -425 307 -22 107 -26 101 70 101 l83 0 7 -42 c23 -145 112 -227
247 -228 95 0 164 36 199 105 22 43 25 62 25 150 -1 104 -8 129 -59 198 -27
37 -124 101 -252 166 -126 64 -212 140 -250 219 -23 47 -29 74 -32 153 -8 181
51 296 184 363 86 43 182 54 286 31z m7900 5 c163 -30 269 -150 285 -322 l6
-58 -80 0 -80 0 -17 67 c-29 118 -91 173 -198 175 -73 1 -134 -24 -167 -70
-47 -66 -52 -191 -12 -270 30 -59 83 -99 241 -182 216 -113 302 -206 329 -354
41 -225 -45 -419 -218 -488 -48 -20 -74 -23 -186 -23 -127 0 -132 1 -197 33
-107 52 -173 145 -197 277 -19 100 -23 95 74 95 82 0 85 -1 85 -23 0 -40 27
-117 55 -158 77 -110 282 -121 367 -21 39 47 53 97 52 192 -1 98 -15 139 -69
199 -39 43 -137 109 -201 136 -137 57 -267 174 -304 273 -31 82 -32 225 -1
304 63 164 240 253 433 218z m3473 -8 c172 -51 270 -217 304 -517 10 -83 7
-437 -5 -515 -12 -85 -52 -227 -79 -279 -32 -65 -95 -135 -149 -166 -71 -41
-177 -58 -270 -44 -253 40 -367 276 -367 764 -1 468 113 715 352 765 49 10
167 5 214 -8z m6662 -7 c128 -39 211 -151 229 -311 l7 -54 -85 0 -85 0 -6 49
c-10 85 -58 157 -121 181 -42 16 -136 14 -177 -3 -69 -29 -109 -101 -109 -201
0 -129 58 -197 255 -299 158 -81 234 -139 285 -218 48 -75 65 -140 64 -254 -2
-205 -87 -333 -257 -386 -56 -18 -86 -21 -175 -17 -91 3 -116 8 -167 31 -122
57 -188 155 -213 320 l-9 58 85 -3 85 -3 11 -55 c15 -74 58 -144 108 -178 33
-22 55 -27 115 -31 166 -8 245 72 246 249 0 162 -54 232 -264 341 -154 80
-224 131 -271 200 -102 149 -86 376 34 500 43 44 120 84 190 99 56 12 160 5
225 -15z m-16850 -1 l31 -6 -1 -69 0 -69 -169 0 -168 0 0 -675 0 -676 -82 3
-83 3 -3 673 -2 672 -165 0 -165 0 0 75 0 74 388 1 c213 0 402 -2 419 -6z
m518 -18 c3 -11 86 -346 185 -744 99 -397 180 -725 180 -727 0 -3 -40 -5 -88
-5 l-89 0 -53 235 -54 235 -195 -2 -195 -3 -51 -228 c-29 -125 -54 -230 -57
-232 -3 -3 -41 -5 -85 -3 l-79 3 58 240 c32 132 99 409 149 615 49 206 104
432 121 502 22 93 35 128 47 131 9 2 58 4 109 4 86 1 93 -1 97 -21z m732 12
c13 -16 473 -1172 473 -1187 0 -6 4 -11 8 -11 5 0 7 15 5 33 -2 17 -6 286 -9
596 -5 452 -4 565 6 571 8 5 44 9 82 9 l68 0 0 -749 0 -750 -98 0 -99 0 -201
513 c-111 281 -221 562 -244 624 l-43 112 4 -625 3 -624 -81 0 -81 0 0 744 c0
701 1 745 18 749 40 11 180 7 189 -5z m1432 -17 c74 -26 135 -65 180 -116 68
-78 122 -223 140 -380 10 -81 7 -380 -4 -445 -46 -272 -129 -417 -280 -486
-79 -36 -140 -44 -351 -44 l-194 0 0 743 c0 409 3 747 8 751 4 5 104 6 222 4
188 -5 223 -8 279 -27z m1012 5 c5 -12 88 -340 184 -731 97 -390 178 -718 181
-727 5 -16 -3 -18 -84 -18 l-89 0 -26 113 c-15 61 -39 166 -55 232 l-27 120
-195 0 -194 0 -23 -100 c-13 -55 -37 -160 -54 -232 l-31 -133 -85 0 c-71 0
-84 2 -79 15 3 8 23 90 45 182 145 608 310 1284 316 1293 5 7 42 10 107 9 90
-2 101 -5 109 -23z m1082 -5 c124 -48 196 -140 217 -279 14 -87 1 -209 -28
-276 -23 -52 -72 -108 -118 -137 l-35 -21 45 -28 c94 -60 123 -163 126 -434 0
-94 3 -180 5 -191 2 -11 6 -39 9 -62 l6 -43 -84 0 c-83 0 -84 0 -90 28 -4 15
-9 119 -12 232 -6 228 -15 293 -47 341 -42 62 -76 73 -235 79 l-142 5 0 -342
0 -343 -85 0 -85 0 0 744 c0 586 3 746 13 750 6 3 118 4 247 2 214 -3 240 -5
293 -25z m894 17 c259 -40 390 -262 398 -673 5 -308 -49 -539 -157 -669 -17
-21 -58 -56 -90 -77 -88 -56 -159 -69 -392 -69 l-196 0 0 743 c0 409 3 747 7
751 10 10 358 5 430 -6z m2440 4 c7 -4 93 -334 193 -732 99 -399 183 -733 186
-742 5 -16 -4 -18 -85 -18 l-89 0 -33 138 c-17 75 -42 180 -54 232 l-22 95
-195 3 -194 2 -23 -102 c-12 -57 -37 -163 -54 -235 l-31 -133 -83 0 c-76 0
-84 2 -79 18 3 9 33 132 66 272 34 140 88 363 120 495 32 132 83 346 114 476
l57 236 97 1 c54 0 103 -2 109 -6z m1088 -21 c132 -53 205 -174 205 -339 0
-137 -46 -241 -128 -293 l-44 -28 39 -19 c59 -31 113 -89 145 -159 25 -52 31
-80 35 -161 12 -210 -66 -360 -225 -435 l-67 -32 -252 -3 -253 -4 0 751 0 751
243 -3 c227 -3 246 -4 302 -26z m1642 -246 c131 -562 163 -704 192 -850 16
-82 31 -161 33 -175 2 -16 8 -3 17 40 7 36 57 247 111 470 54 223 117 486 141
585 23 99 46 186 52 193 7 9 34 12 88 10 44 -2 79 -5 79 -8 0 -2 -32 -126 -70
-275 -187 -720 -223 -863 -266 -1032 l-47 -183 -101 0 -101 0 -184 740 c-100
407 -180 743 -177 748 3 5 42 8 88 8 l82 -1 63 -270z m1541 269 c20 -6 22 -12
22 -75 l0 -69 -265 0 -265 0 0 -240 0 -240 250 0 251 0 -3 -77 -3 -78 -247 -3
-248 -2 0 -280 0 -280 253 -2 c306 -2 302 -2 300 -11 -1 -4 -5 -36 -8 -72 l-7
-65 -349 0 -349 0 0 750 0 750 323 0 c177 0 332 -3 345 -6z m900 -6 c16 -21
157 -629 237 -1023 20 -98 37 -181 39 -182 2 -2 11 34 21 79 77 368 263 1120
279 1131 6 4 61 6 121 5 l110 -3 3 -747 2 -748 -80 0 -81 0 1 646 c1 356 -1
648 -3 651 -3 2 -8 -15 -12 -39 -11 -67 -157 -713 -224 -996 -34 -139 -61
-255 -61 -257 0 -3 -37 -5 -83 -5 l-83 0 -92 433 c-122 570 -150 704 -171 812
-17 89 -17 81 -13 -577 l5 -668 -82 0 -81 0 0 744 c0 697 2 745 18 749 41 11
220 7 230 -5z m1778 5 c10 -4 14 -23 14 -74 l0 -69 -260 0 -260 0 0 -240 c0
-222 1 -240 18 -240 9 0 121 -2 247 -3 l230 -2 3 -69 c2 -49 -1 -72 -10 -77
-7 -5 -112 -8 -233 -8 -121 0 -228 0 -237 -1 -17 0 -18 -20 -18 -280 0 -260 1
-280 18 -280 9 0 133 0 276 -1 l258 0 -6 -52 c-4 -29 -10 -62 -13 -74 l-5 -23
-349 0 -349 0 0 744 c0 586 3 745 13 749 16 7 644 7 663 0z m921 -728 c100
-402 182 -738 183 -748 0 -16 -9 -17 -87 -15 l-86 3 -19 80 c-10 44 -34 149
-54 233 l-36 152 -193 0 -193 0 -25 -107 c-14 -60 -38 -165 -53 -235 l-28
-128 -83 0 c-46 0 -83 2 -83 4 0 3 63 267 140 588 78 321 157 651 177 733 19
83 40 155 45 162 7 9 41 12 111 10 l101 -3 183 -729z m1503 135 c5 -645 3
-620 61 -702 68 -94 264 -104 348 -17 71 72 71 74 71 727 0 542 2 581 18 586
9 2 47 5 85 5 l67 1 0 -582 c0 -630 -2 -653 -55 -758 -67 -132 -202 -194 -400
-184 -142 8 -252 69 -308 171 -54 101 -56 126 -57 766 l0 588 82 -3 83 -3 5
-595z m1424 585 c121 -26 212 -100 251 -206 27 -74 28 -260 2 -336 -23 -66
-74 -133 -121 -158 -34 -18 -47 -35 -27 -35 4 0 29 -18 54 -40 75 -67 88 -114
98 -365 4 -115 11 -241 14 -278 l6 -68 -83 3 -83 3 -6 40 c-4 22 -8 117 -9
210 -3 210 -13 286 -45 341 -39 67 -84 83 -235 84 -69 1 -131 1 -137 1 -10 -1
-13 -76 -13 -341 l0 -340 -80 0 -80 0 0 743 c0 409 3 747 7 750 13 14 416 7
487 -8z m1173 9 l31 -6 -1 -69 0 -69 -264 0 -263 0 0 -240 0 -240 23 0 c12 0
125 0 250 -1 l228 0 -3 -77 -3 -77 -225 -2 c-124 -2 -235 -3 -247 -3 l-23 0 0
-280 0 -280 23 0 c12 0 135 0 273 0 137 0 252 -2 255 -5 3 -3 1 -35 -5 -73
l-11 -67 -348 -3 -347 -2 0 743 c0 409 3 746 6 750 8 8 610 9 651 1z"/>
<path d="M26313 17619 c-121 -22 -194 -98 -241 -252 -14 -46 -16 -173 -20
-1092 -2 -679 0 -1074 7 -1137 26 -236 127 -351 310 -353 181 -1 274 75 317
261 13 56 15 217 14 1149 0 1206 0 1192 -71 1306 -60 95 -185 142 -316 118z"/>
<path d="M21999 17508 c0 -24 -2 -50 -3 -58 -2 -8 -6 -51 -10 -95 -4 -44 -9
-96 -11 -115 -7 -50 -12 -90 -40 -325 -14 -115 -32 -255 -40 -310 -7 -55 -16
-122 -19 -150 -4 -27 -11 -81 -16 -120 -25 -173 -60 -442 -60 -458 0 -15 19
-17 216 -17 l217 0 -7 53 c-4 28 -15 117 -26 197 -94 703 -180 1381 -180 1427
0 7 -4 13 -10 13 -5 0 -10 -19 -11 -42z"/>
<path d="M23910 17089 l0 -531 153 4 c176 5 245 22 308 76 88 75 109 166 109
460 0 241 -12 312 -64 391 -40 59 -117 106 -200 120 -34 6 -117 11 -184 11
l-122 0 0 -531z"/>
<path d="M23963 16082 l-53 -3 0 -646 0 -645 178 4 c206 6 246 16 321 84 96
86 118 190 119 544 0 345 -21 455 -107 553 -73 82 -238 122 -458 109z"/>
<path d="M24293 12990 c-123 -26 -194 -105 -234 -260 -20 -79 -21 -2239 -1
-2315 46 -174 144 -258 302 -258 137 -1 220 43 272 143 58 113 58 111 58 1276
0 1157 0 1155 -55 1265 -60 117 -202 179 -342 149z"/>
<path d="M22095 7731 c-80 -37 -130 -120 -162 -271 -28 -131 -25 -537 4 -673
27 -122 73 -210 132 -252 37 -26 51 -30 111 -30 60 0 74 4 111 30 88 62 132
194 150 443 19 284 -7 527 -71 652 -53 103 -174 148 -275 101z"/>
<path d="M12500 7638 c-16 -95 -120 -568 -136 -620 -5 -17 7 -18 156 -18 l162
0 -6 23 c-13 49 -107 449 -131 562 -14 65 -27 121 -29 122 -1 2 -9 -30 -16
-69z"/>
<path d="M14460 7126 l0 -606 99 0 c122 0 186 19 247 73 105 92 145 248 145
557 0 273 -34 410 -124 498 -63 62 -103 75 -244 80 l-123 4 0 -606z"/>
<path d="M15681 7645 c-11 -64 -126 -587 -137 -627 -5 -17 7 -18 156 -18 149
0 161 1 156 18 -3 9 -37 154 -76 322 -39 168 -74 321 -78 340 -8 34 -9 32 -21
-35z"/>
<path d="M16526 7732 c-14 -3 -16 -30 -16 -263 l0 -259 123 0 c145 0 186 10
237 56 52 47 73 105 74 207 2 135 -47 221 -141 246 -36 10 -242 20 -277 13z"/>
<path d="M17520 7124 l0 -607 113 5 c174 7 254 54 314 184 47 103 57 179 58
439 0 224 -2 246 -24 323 -27 97 -68 163 -128 208 -52 40 -116 54 -238 54
l-95 0 0 -606z"/>
<path d="M20121 7707 c-3 -28 -58 -288 -101 -476 -27 -123 -49 -226 -47 -228
3 -2 74 -2 159 -1 l154 3 -48 205 c-26 113 -63 273 -82 355 -19 83 -35 147
-35 142z"/>
<path d="M20930 7494 l0 -247 134 5 c115 4 140 8 182 29 83 41 121 123 110
238 -3 35 -15 83 -27 107 -40 84 -107 111 -282 113 l-117 2 0 -247z"/>
<path d="M20930 6816 l0 -296 98 -1 c161 -2 185 0 240 27 87 43 132 133 132
269 0 132 -44 220 -134 268 -36 19 -61 22 -188 25 l-148 4 0 -296z"/>
<path d="M26051 7704 c0 -11 3 -14 6 -6 3 7 2 16 -1 19 -3 4 -6 -2 -5 -13z"/>
<path d="M27798 7695 c-4 -11 -16 -69 -28 -130 -12 -60 -44 -209 -71 -329 -27
-121 -49 -223 -49 -228 0 -4 70 -8 155 -8 93 0 155 4 155 10 0 5 -31 143 -69
307 -39 164 -74 321 -78 348 -7 36 -11 44 -15 30z"/>
<path d="M30690 7470 l0 -260 133 0 c118 0 137 3 183 24 61 28 89 62 109 129
33 112 11 250 -49 311 -46 45 -94 56 -245 56 l-131 0 0 -260z"/>
</g>
</svg>
