<?xml version="1.0" encoding="utf-8"?>
<!-- Generator: Adobe Illustrator 28.1.0, SVG Export Plug-In . SVG Version: 6.00 Build 0)  -->
<svg version="1.1" id="Layer_1" xmlns="http://www.w3.org/2000/svg" xmlns:xlink="http://www.w3.org/1999/xlink" x="0px" y="0px"
	 viewBox="0 0 1920 1080" style="enable-background:new 0 0 1920 1080;" xml:space="preserve">
<style type="text/css">
	.st0{fill:#FFFFFF;}
</style>
<path class="st0" d="M647.62,804.09c0-113.66,0-227.32,0-340.97c0.33,0.35,0.72,0.65,0.99,1.04c1.64,2.42,3.99,3.28,6.81,3.28
	c12.39-0.02,24.79,0.01,37.18-0.03c1.18,0,2.4-0.21,3.52-0.58c2.82-0.94,3.79-2.35,3.81-5.36c0.03-3.68-0.06-7.35,0.03-11.03
	c0.1-3.82-1.56-6.37-5.06-7.86c-3.87-1.64-6.2-4.64-7.32-8.65c-0.9-3.22-0.81-6.52-0.39-9.75c0.32-2.43,0.78-4.97,1.82-7.16
	c3.66-7.74,10.06-11.5,18.52-11.89c2.47-0.11,4.96-0.05,7.44-0.02c1.68,0.02,3.33-0.35,4.38-1.6c1.44-1.72,3.19-1.8,5.16-1.8
	c33.59,0.02,67.17,0.01,100.76,0.04c2.31,0,4.63,0.16,6.92,0.45c15.14,1.9,27.58,8.88,37.25,20.57
	c10.83,13.1,15.41,28.23,13.15,45.11c-2.02,15.11-9.04,27.64-20.74,37.48c-11.25,9.45-24.42,13.69-38.96,13.8
	c-17.03,0.13-34.06,0.03-51.1,0.03c-6.32,0-12.63-0.01-18.95,0.01c-0.82,0-1.65,0.13-2.76,0.23c0.48,0.93,0.73,1.5,1.04,2.03
	c3.94,6.58,7.88,13.16,11.83,19.74c13.2,21.99,26.4,43.99,39.6,65.98s26.41,43.98,39.61,65.98c10.16,16.92,20.32,33.84,30.45,50.78
	c0.82,1.37,1.82,2.03,3.48,2.03c13.83-0.04,27.67-0.02,41.5-0.04c0.74,0,1.49-0.2,2.45-0.34c-0.31-0.82-0.43-1.35-0.69-1.81
	c-0.83-1.46-1.7-2.89-2.56-4.33c-13.2-21.99-26.4-43.99-39.6-65.98c-12.71-21.17-25.42-42.34-38.13-63.51
	c-5.67-9.45-11.35-18.91-17.01-28.38c-0.38-0.63-0.63-1.34-1.11-2.35c1.55-0.07,2.65-0.19,3.74-0.17
	c6.18,0.13,12.29-0.58,18.34-1.75c11.41-2.2,22.11-6.32,32.1-12.26c5.44-3.23,10.58-6.92,15.22-11.21
	c4.22-3.9,8.21-8.04,11.79-12.58c7.21-9.13,12.7-19.2,16.25-30.24c3.2-9.93,5.13-20.13,4.67-30.65c-0.2-4.54-0.08-9.13-0.72-13.61
	c-1.7-11.96-5.38-23.29-11.21-33.95c-5.55-10.16-12.71-19-21.3-26.64c-7.8-6.93-16.58-12.46-26.23-16.6
	c-12.37-5.31-25.27-8.06-38.69-8.1c-33.03-0.11-66.05-0.04-99.08-0.04c-0.8,0-1.6-0.03-2.4,0c-1.3,0.06-2.27-0.33-3-1.52
	c-1.07-1.75-2.76-2.61-4.8-2.77c-2.31-0.19-4.63-0.26-6.92-0.55c-5.1-0.63-10.08-1.72-14.71-4.09c-7.25-3.71-10.02-9.98-7.78-17.79
	c1.07-3.71,2.71-7.16,4.85-10.38c4.4-6.64,9.78-12.36,15.74-17.64c5.29-4.68,10.96-8.8,16.98-12.45c2.05-1.24,4.19-2.32,6.28-3.51
	c1.89-1.07,2.18-2.04,1.08-3.92c-0.73-1.24-1.63-2.36-2.46-3.54c174.17,0,348.34,0,522.51,0c0,134.76,0,269.52,0,404.28
	c-0.14-0.45-0.36-0.9-0.42-1.36c-0.98-7.64-5.07-13.54-10.69-18.43c-3.91-3.4-8.08-6.52-12.21-9.65c-5.59-4.24-7.94-9.85-7.3-16.75
	c0.19-1.97,0.5-3.98,1.13-5.85c0.79-2.34,2.7-3.49,5.19-3.54c2.53-0.05,4.25,1.03,5.13,3.53c0.52,1.48,0.78,3.1,0.89,4.67
	c0.15,2.07,0,4.15,0.06,6.23c0.05,1.92,0.38,2.28,2.25,2.31c4.08,0.05,8.16,0.05,12.23,0c1.91-0.02,2.24-0.37,2.3-2.25
	c0.06-2.08,0.01-4.16,0.02-6.23c0.01-4.8-0.91-9.38-3.37-13.55c-1.91-3.24-4.53-5.73-8.03-7.27c-4.85-2.14-10-2.28-15.09-1.77
	c-8.63,0.86-14.84,5.24-17.52,13.74c-0.95,3.02-1.56,6.2-1.9,9.35c-0.57,5.35-0.23,10.7,1.28,15.91
	c1.92,6.59,6.43,11.33,11.52,15.56c4.48,3.73,9.18,7.19,13.17,11.48c1.61,1.74,2.93,3.63,3.52,5.9c0.55,2.15,0.76,4.39,1.2,6.57
	c0.68,3.4-0.11,6.67-0.75,9.95c-0.13,0.69-0.48,1.36-0.84,1.97c-1.43,2.4-3.52,3.62-6.37,3.44c-2.75-0.18-5.1-1.13-6.07-3.88
	c-0.71-2-1.17-4.13-1.41-6.24c-0.24-2.13-0.01-4.31-0.09-6.47c-0.05-1.64-0.4-2.03-1.99-2.06c-4.24-0.06-8.48-0.06-12.71,0
	c-1.64,0.02-2.05,0.4-2.05,1.99c-0.01,4.39-0.31,8.78,0.55,13.14c1.93,9.81,7.38,16,17.44,17.47c3.6,0.53,7.34,0.56,10.98,0.28
	c4.01-0.31,7.87-1.64,11.06-4.22c4.65-3.77,7.44-8.69,8.41-14.62c0.11-0.7,0.32-1.39,0.49-2.08c0,35.33,0,70.66,0,105.98
	c-4.15,0-8.31,0.02-12.46-0.03c-2.03-0.02-2.35-0.36-2.38-2.4c-0.05-2.95-0.02-5.91-0.02-8.86c0.01-3.56,0.02-3.56,3.64-3.57
	c2.64-0.01,5.27,0.04,7.91-0.03c1.77-0.05,2.19-0.5,2.33-2.07c0.18-2.1-0.33-2.68-2.56-2.71c-3.03-0.04-6.07,0.02-9.1-0.04
	c-1.79-0.03-2.15-0.37-2.19-2.09c-0.06-2.71-0.06-5.43,0-8.14c0.04-1.76,0.39-2.12,2.13-2.16c2.63-0.06,5.27,0,7.91-0.04
	c0.95-0.01,1.91-0.11,2.85-0.28c0.87-0.16,1.33-0.76,1.46-1.67c0.28-2.03-0.31-2.83-2.4-2.84c-4.87-0.04-9.74-0.04-14.62-0.01
	c-2.32,0.01-2.62,0.31-2.63,2.66c-0.02,12.05-0.02,24.11,0,36.16c0,2.53,0.39,2.9,2.96,2.91c4.79,0.03,9.58,0.04,14.38-0.01
	c0.94-0.01,1.87-0.3,2.81-0.47c0,0.4,0,0.8,0,1.44c-21.91,0-43.82,0-65.73,0c0.77-0.2,1.54-0.39,2.3-0.6
	c3.19-0.85,6.17-2.12,7.29-5.55c0.71-2.18,1.35-4.49,1.39-6.76c0.16-9.02,0.08-18.05,0.06-27.08c-0.01-2.41-0.43-2.78-2.8-2.73
	c-2.05,0.04-2.38,0.34-2.48,2.34c-0.03,0.64-0.01,1.28-0.01,1.92c0,8.07,0.02,16.14-0.02,24.2c-0.01,1.43-0.18,2.87-0.44,4.27
	c-0.58,3.06-2.7,4.97-5.5,5.11c-2.82,0.14-5.3-1.48-6.18-4.35c-0.48-1.58-0.73-3.28-0.74-4.94c-0.07-8.23-0.03-16.45-0.04-24.68
	c0-0.72-0.01-1.44-0.04-2.16c-0.04-1.04-0.57-1.64-1.63-1.68c-0.64-0.02-1.28-0.02-1.92,0c-1.06,0.03-1.6,0.6-1.66,1.65
	c-0.03,0.48-0.04,0.96-0.04,1.44c0,8.95-0.05,17.89,0.04,26.84c0.02,1.81,0.35,3.67,0.84,5.42c1.1,3.94,3.88,6.1,7.85,6.81
	c0.78,0.14,1.54,0.35,2.31,0.52c-178.81,0-357.62,0-536.43,0c0-3.52,0-7.03,0-10.55c0.34,0.89,0.73,1.76,1.01,2.67
	c0.95,3.08,2.76,5.35,5.85,6.52c3.78,1.43,7.55,1.38,11.16-0.38c1.31-0.64,2.46-1.78,3.43-2.9c2.02-2.33,2.11-5.23,2.09-8.15
	c-0.03-4.24-1.7-7.59-5.29-9.87c-1.75-1.11-3.63-2.01-5.41-3.07c-1.37-0.81-2.79-1.59-3.97-2.64c-2.19-1.96-2.7-5.85-1.19-8.15
	c1.28-1.96,3.19-2.52,5.43-2.27c2.16,0.24,3.45,1.49,4.08,3.51c0.14,0.46,0.23,0.93,0.39,1.38c0.61,1.67,3.46,2.47,4.78,1.32
	c0.27-0.23,0.51-0.68,0.5-1.02c-0.09-3.69-2.38-8.14-6.13-9.16c-2.32-0.63-4.64-0.96-7.08-0.41c-5.56,1.25-8.88,6.11-8.04,11.76
	c0.63,4.22,2.83,7.19,6.56,9.13c1.91,1,3.83,1.99,5.66,3.12c3.6,2.22,4.99,5.34,4.28,9.36c-0.41,2.32-1.65,3.97-3.96,4.65
	c-2.22,0.66-4.24,0.32-6-1.32c-1.29-1.2-1.98-2.69-2.31-4.37c-0.22-1.14-0.88-1.63-2-1.63C650.18,804.1,648.9,804.09,647.62,804.09z
	 M699.59,642.25c-0.2-0.05-0.41-0.09-0.61-0.14c0-0.84,0-1.68,0-2.51c0-10.79,0-21.58,0-32.36c0-3.57-0.04-3.6-3.62-3.61
	c-10.79,0-21.59,0-32.38,0c-3.85,0-3.85,0.01-3.86,3.86c0,17.82,0,35.64,0,53.46c0,15.34-0.01,30.69,0.02,46.03
	c0,1.81-0.34,3.41-1.33,4.98c-2.35,3.71-4.56,7.51-6.79,11.3c-0.42,0.71-0.71,1.49-1.2,2.54c1.21,0.07,1.99,0.15,2.77,0.15
	c13.59,0.01,27.18-0.04,40.78,0.05c2.13,0.01,3.34-0.73,4.4-2.51c9.24-15.51,18.55-30.99,27.84-46.47
	c13.2-21.99,26.4-43.98,39.6-65.96c4.15-6.92,8.27-13.86,12.47-20.75c0.91-1.49,1.01-2.75,0-4.19c-0.82-1.17-1.49-2.46-2.23-3.69
	c-6.09-10.13-12.18-20.27-18.28-30.4c-0.42-0.7-0.99-1.31-1.86-2.46C736.49,580.73,718.11,611.54,699.59,642.25z M1124.2,641.19
	c0.11,0.03,0.23,0.06,0.34,0.08c0,0.63,0.01,1.27,0,1.9c-0.15,6.54-0.36,13.09-0.45,19.63c-0.08,5.35-0.02,10.71-0.02,16.06
	c0,13.99,0,27.97,0,41.96c0,3.63,0.03,3.66,3.56,3.67c2.88,0.01,5.76,0,8.64,0c4.12,0,4.13,0,4.13-4.07c0-32.45,0-64.9,0-97.35
	c0-0.56,0.01-1.12-0.01-1.68c-0.09-2.04-0.38-2.41-2.39-2.42c-6.48-0.04-12.95-0.04-19.43,0c-1.95,0.01-2.31,0.39-2.65,2.35
	c-1.94,11.26-3.89,22.51-5.78,33.78c-1.7,10.15-3.34,20.31-5,30.47c-0.58-1.96-0.89-3.97-1.15-5.99
	c-1.09-8.31-2.11-16.63-3.24-24.93c-1.14-8.31-2.36-16.6-3.57-24.9c-0.41-2.84-0.87-5.68-1.36-8.52c-0.34-1.98-0.62-2.19-2.67-2.28
	c-0.56-0.02-1.12-0.01-1.68-0.01c-5.52,0-11.03,0-16.55,0c-4.1,0-4.11,0-4.11,4.08c0,32.45,0,64.9,0,97.35
	c0,0.56-0.01,1.12,0.01,1.68c0.09,2.03,0.38,2.37,2.4,2.4c3.04,0.05,6.08,0.02,9.12,0.02c3.84,0,3.89-0.01,3.84-3.87
	c-0.25-18.93,0.48-37.87-0.4-56.8c-0.31-6.54-0.06-13.11-0.07-19.66c0-0.53,0.04-1.06,0.07-1.59c0.56,2.27,0.86,4.54,1.16,6.82
	c1.01,7.76,2.04,15.51,3.03,23.27c1.04,8.15,2.03,16.32,3.07,24.47c1.05,8.23,2.14,16.46,3.19,24.7c0.29,2.32,0.51,2.6,2.79,2.63
	c3.52,0.04,7.04,0.03,10.55,0.01c2.69-0.01,2.91-0.19,3.34-2.94c0.46-2.92,0.86-5.85,1.28-8.77c1.68-11.62,3.39-23.23,5.02-34.85
	C1120.91,665.69,1122.53,653.43,1124.2,641.19z M1043.78,540.33c5.22-3.13,7.23-7.88,8.14-13.26c0.23-1.33,0.32-2.69,0.44-4.04
	c0.55-6.09,0.5-12.16-1.34-18.04c-1.54-4.92-4.57-8.73-9.4-10.92c-3.77-1.71-7.72-2.62-11.84-2.66c-6.96-0.06-13.91-0.02-20.87-0.02
	c-3.83,0-3.83,0.01-3.83,3.88c0,32.52,0,65.05,0,97.57c0,0.64-0.02,1.28,0.03,1.92c0.14,1.57,0.51,1.97,2.03,2.12
	c0.63,0.07,1.28,0.04,1.92,0.04c6.4,0,12.8,0.12,19.19-0.05c3.17-0.08,6.4-0.41,9.49-1.11c4.43-1,8.42-3.02,11.32-6.73
	c2.31-2.96,3.84-6.31,4.45-9.98c1.43-8.64,1.66-17.32,0.04-25.97c-0.72-3.86-2.46-7.27-5.52-9.84
	C1046.81,542.22,1045.41,541.44,1043.78,540.33z M1114.97,544.17c0-8.79,0-17.57,0-26.36c0-4.59-0.75-9.05-2.3-13.38
	c-2.74-7.66-8.2-12.34-16.07-13.87c-3.64-0.7-7.5-0.83-11.2-0.49c-9.13,0.84-15.96,5.21-19.49,14.02
	c-1.96,4.9-2.71,10.03-2.74,15.23c-0.09,15.98-0.03,31.95-0.04,47.93c0,4.73,0.42,9.42,1.53,14.01c1.93,7.98,6.6,13.65,14.64,15.93
	c7.01,1.99,14.08,1.72,20.98-0.75c2.96-1.06,5.69-2.64,7.81-4.98c2.6-2.88,4.41-6.24,5.37-10.05c0.96-3.81,1.55-7.65,1.53-11.6
	C1114.93,561.27,1114.97,552.72,1114.97,544.17z M1059.31,671.69C1059.31,671.69,1059.32,671.69,1059.31,671.69
	c0-8.87-0.02-17.73,0.02-26.6c0.02-3.95-0.5-7.83-1.71-11.56c-2.5-7.77-7.48-13.07-15.62-15.05c-5.21-1.27-10.43-1.33-15.67-0.14
	c-7.93,1.79-13.35,6.41-16.29,14.06c-2.02,5.26-2.51,10.77-2.49,16.24c0.06,17.24-0.59,34.49,0.34,51.73
	c0.19,3.62,0.65,7.18,1.77,10.59c2.03,6.23,5.84,11,12.17,13.28c7.08,2.55,14.27,2.32,21.45,0.37c6.47-1.76,10.79-5.98,13.39-12.06
	c1.75-4.09,2.58-8.41,2.62-12.83C1059.37,690.38,1059.31,681.04,1059.31,671.69z M996.46,671.73c0-1.28,0-2.56,0-3.84
	c0-15.26,0-30.53-0.01-45.79c0-2.96-0.17-3.12-3.14-3.13c-3.36-0.02-6.72-0.01-10.08,0c-3.57,0.01-3.61,0.04-3.61,3.62
	c0,11.19,0,22.38,0,33.57c0,0.72,0.03,1.44-0.03,2.16c-0.13,1.45-0.44,1.84-1.94,1.86c-4.32,0.06-8.64,0.02-12.95,0.01
	c-1.15,0-1.79-0.58-1.81-1.76c-0.01-0.72-0.03-1.44-0.03-2.16c0-11.51,0.01-23.02-0.01-34.53c0-2.48-0.29-2.75-2.76-2.77
	c-3.36-0.03-6.72-0.01-10.08-0.01c-3.97,0-3.98,0-3.98,3.98c0,32.53,0,65.06,0,97.58c0,0.48-0.01,0.96,0.01,1.44
	c0.08,2.17,0.35,2.49,2.54,2.52c3.92,0.04,7.84,0.04,11.75,0c2.17-0.02,2.48-0.34,2.51-2.53c0.04-3.2,0.01-6.39,0.01-9.59
	c0-11.03-0.01-22.06,0-33.09c0-3.08,0.14-3.21,3.28-3.22c3.04-0.01,6.08,0,9.12,0c4.36,0,4.36,0,4.36,4.3
	c0,13.75-0.01,27.49,0.01,41.24c0,2.66,0.24,2.88,2.88,2.9c3.36,0.03,6.72,0.01,10.08,0.01c3.85,0,3.86-0.01,3.86-3.85
	C996.46,704.34,996.46,688.04,996.46,671.73z M968.91,491.39c-3.04,0-6.08-0.02-9.11,0.01c-2.7,0.02-2.86,0.13-3.28,2.69
	c-1.59,9.69-3.15,19.39-4.71,29.09c-2.52,15.69-5.03,31.38-7.56,47.07c-1.26,7.81-2.55,15.61-3.82,23.41
	c-0.48,2.97-0.27,3.25,2.63,3.26c3.84,0.02,7.68,0.03,11.51-0.01c2.22-0.02,2.68-0.42,2.97-2.56c0.52-3.88,1-7.76,1.5-11.64
	c0.49-3.8,0.97-7.6,1.48-11.4c0.27-2,0.65-2.59,2.15-2.62c4-0.07,7.99-0.03,11.99-0.02c1.02,0,1.63,0.58,1.86,1.54
	c0.13,0.54,0.18,1.1,0.26,1.65c1.11,7.5,2.21,15.01,3.34,22.51c0.32,2.15,0.68,2.49,2.75,2.51c4.24,0.05,8.47,0.05,12.71,0
	c2.12-0.03,2.47-0.51,2.1-2.7c-1.59-9.61-3.2-19.22-4.8-28.83c-3.13-18.75-6.25-37.5-9.38-56.25c-0.83-4.96-1.63-9.93-2.47-14.89
	c-0.44-2.58-0.73-2.81-3.48-2.83C974.66,491.38,971.79,491.39,968.91,491.39z M1148.72,571.31c-0.89-6.98-1.7-13.47-2.54-19.95
	c-1.04-7.99-2.1-15.98-3.15-23.98c-0.89-6.81-1.76-13.61-2.65-20.42c-0.58-4.43-1.15-8.86-1.81-13.28
	c-0.32-2.12-0.51-2.25-2.61-2.27c-3.28-0.04-6.56-0.02-9.83-0.01c-1.44,0-2.88,0-4.32,0.05c-1.09,0.04-1.58,0.68-1.43,1.75
	c0.07,0.55,0.21,1.1,0.3,1.65c0.81,4.64,1.63,9.28,2.44,13.92c2.03,11.64,4.06,23.29,6.1,34.93c1.97,11.25,3.94,22.5,5.91,33.75
	c0.98,5.59,1.92,11.18,2.95,16.75c0.42,2.26,0.88,2.67,2.95,2.69c5.2,0.04,10.39,0.04,15.59,0c1.9-0.02,2.19-0.29,2.57-2.14
	c0.48-2.35,0.91-4.7,1.32-7.07c2.99-17.56,5.95-35.12,8.94-52.68c2.28-13.38,4.58-26.76,6.86-40.15c0.17-0.99,0.23-2,0.34-3.05
	c-0.66-0.18-1.03-0.37-1.4-0.38c-4.88-0.03-9.75-0.02-14.63-0.03c-1.26,0-1.88,0.58-2.02,1.85c-0.24,2.14-0.61,4.27-0.87,6.41
	c-1.34,11.17-2.6,22.35-4.01,33.51C1152.13,545.75,1150.43,558.32,1148.72,571.31z M980.04,437.68c0,0,0,0.01,0,0.01
	c-2.16,0-4.32-0.05-6.47,0.02c-1.62,0.05-1.99,0.4-2.04,2.01c-0.18,5.53,0.12,11.03,1.73,16.36c1.99,6.58,6.28,11.06,12.88,13.09
	c4.61,1.42,9.31,1.86,14.19,1.24c9.55-1.21,15.87-6.17,19.01-15.23c1.43-4.12,1.89-8.41,2.03-12.72c0.08-2.62-0.24-5.25-0.42-7.88
	c-0.43-6.03-2.28-11.56-5.92-16.44c-3.24-4.33-7.38-7.71-11.63-10.99c-2.53-1.95-5.08-3.87-7.54-5.9c-1.93-1.59-3.53-3.53-4.41-5.89
	c-1.81-4.8-1.66-9.74-0.42-14.61c0.75-2.95,2.53-3.99,5.72-3.95c2.83,0.03,4.25,1.15,5.13,4.05c0.16,0.53,0.33,1.08,0.36,1.63
	c0.18,2.86,0.31,5.73,0.47,8.59c0.11,1.97,0.49,2.45,2.42,2.47c4,0.06,7.99,0.06,11.99,0c1.84-0.03,2.29-0.49,2.36-2.28
	c0.19-4.72,0.09-9.45-1.11-14.04c-1.37-5.26-3.82-9.82-8.86-12.53c-2.8-1.51-5.84-2.16-8.93-2.56c-4.75-0.61-9.47-0.31-13.93,1.44
	c-6.92,2.72-10.52,8.25-12.24,15.23c-1.11,4.48-1.01,9.03-0.99,13.58c0.03,9.53,4.12,17.07,11.3,23.08c3.79,3.18,7.71,6.2,11.5,9.38
	c2.21,1.85,4.14,4,5.5,6.58c3.37,6.4,3.04,13.12,1.42,19.83c-0.69,2.86-2.92,4.62-5.91,4.86c-2.99,0.24-5.64-0.78-6.95-3.66
	c-0.77-1.7-1.21-3.63-1.42-5.49c-0.24-2.13-0.04-4.31-0.07-6.47c-0.03-2.51-0.29-2.78-2.73-2.81
	C984.04,437.66,982.04,437.68,980.04,437.68z M1183.09,543.99c0,15.27,0,30.53,0,45.8c0,1.52-0.03,3.04,0.02,4.56
	c0.07,2.09,0.48,2.55,2.59,2.55c12.15,0.03,24.31,0.03,36.47,0c2.14,0,2.44-0.25,2.81-2.44c0.51-3.07,0.92-6.16,1.31-9.25
	c0.52-4.12,0.49-4.12-3.79-4.13c-6.48,0-12.95,0.02-19.43-0.01c-2.36-0.01-2.61-0.3-2.68-2.62c-0.01-0.24,0-0.48,0-0.72
	c0-8.47,0-16.94,0-25.42c0-0.56,0.01-1.12,0.04-1.68c0.05-1.06,0.62-1.6,1.67-1.64c0.64-0.02,1.28-0.04,1.92-0.04
	c5.44,0,10.88,0.01,16.31-0.01c2.85-0.01,3.06-0.21,3.08-2.94c0.02-3.2,0.03-6.39,0-9.59c-0.02-2.58-0.28-2.83-2.95-2.84
	c-5.52-0.02-11.04-0.01-16.55-0.01c-0.64,0-1.28-0.01-1.92-0.05c-0.94-0.05-1.48-0.54-1.55-1.49c-0.04-0.64-0.05-1.28-0.05-1.92
	c0-6.47,0-12.95,0-19.42c0-0.56,0.02-1.12,0.03-1.68c0.03-1.18,0.67-1.74,1.82-1.76c0.72-0.02,1.44-0.02,2.16-0.02
	c5.76,0,11.52,0.02,17.27-0.02c2.27-0.02,2.68-0.43,2.71-2.67c0.05-3.44,0.04-6.87,0.01-10.31c-0.02-2.59-0.26-2.84-2.94-2.84
	c-11.84-0.01-23.67-0.01-35.51,0c-2.52,0-2.77,0.28-2.83,2.72c-0.02,0.64-0.01,1.28-0.01,1.92
	C1183.09,512.02,1183.09,528.01,1183.09,543.99z M1051.25,363.82c-5.83,0-11.67-0.01-17.5,0c-3.1,0.01-3.23,0.16-3.25,3.25
	c-0.01,0.64,0,1.28,0,1.92c0,21.65,0,43.3,0,64.94c0,10.54,0,21.09,0,31.63c0,3.26,0.44,3.7,3.72,3.78c0.4,0.01,0.8,0.01,1.2,0.01
	c10.47,0,20.94,0,31.41,0c0.64,0,1.28,0.02,1.92-0.03c2.55-0.17,3.2-0.81,3.5-3.31c0.36-2.93,0.73-5.86,1.16-8.78
	c0.51-3.49,0.36-3.71-3.17-3.72c-6.79-0.01-13.59,0.01-20.38-0.02c-2.19-0.01-2.51-0.32-2.52-2.51c-0.03-9.03-0.03-18.05,0-27.08
	c0.01-2.17,0.34-2.48,2.54-2.49c5.35-0.03,10.71-0.01,16.06-0.02c0.72,0,1.44,0.03,2.16-0.03c1.68-0.13,2.08-0.53,2.22-2.19
	c0.04-0.48,0.03-0.96,0.03-1.44c0-2.88,0.01-5.75,0-8.63c-0.01-3.52-0.04-3.55-3.67-3.56c-4.96-0.01-9.91,0-14.87,0
	c-0.56,0-1.12,0.01-1.68,0c-2.52-0.05-2.79-0.27-2.8-2.72c-0.02-6.95-0.02-13.9,0-20.85c0.01-2.48,0.28-2.75,2.76-2.76
	c5.99-0.02,11.99-0.01,17.98-0.01c0.64,0,1.28-0.01,1.92-0.03c1.18-0.03,1.76-0.66,1.77-1.81c0.01-3.91,0.01-7.83-0.01-11.74
	c0-1.16-0.63-1.76-1.79-1.78c-0.64-0.01-1.28-0.03-1.92-0.03C1062.44,363.82,1056.84,363.82,1051.25,363.82z M1153.8,671.64
	c0,16.22,0,32.44,0,48.67c0,0.8,0.01,1.6,0.03,2.4c0.03,1.18,0.67,1.73,1.81,1.77c0.4,0.01,0.8,0.03,1.2,0.03
	c11.75,0,23.51,0.01,35.26,0c2.68,0,2.92-0.19,3.33-2.95c0.48-3.24,0.86-6.49,1.29-9.73c0.31-2.35,0.09-2.67-2.31-2.68
	c-4.32-0.04-8.63-0.01-12.95-0.01c-2.88,0-5.76,0.03-8.63-0.02c-1.78-0.04-2.07-0.38-2.19-2.11c-0.03-0.4-0.01-0.8-0.01-1.2
	c0-8.63,0-17.26,0-25.89c0-0.56,0.01-1.12,0.04-1.68c0.05-1.06,0.63-1.59,1.68-1.63c0.64-0.02,1.28-0.03,1.92-0.04
	c5.52,0,11.03,0.01,16.55-0.01c2.53-0.01,2.81-0.27,2.83-2.71c0.03-3.36,0.04-6.71,0-10.07c-0.03-2.29-0.33-2.57-2.7-2.59
	c-4.08-0.03-8.16-0.01-12.23-0.01c-2,0-4,0.04-6-0.03c-1.65-0.06-1.93-0.38-2.06-1.99c-0.04-0.48-0.02-0.96-0.02-1.44
	c0-6.47,0-12.95,0-19.42c0-0.56,0.01-1.12,0.03-1.68c0.03-1.17,0.64-1.75,1.8-1.78c0.64-0.01,1.28-0.03,1.92-0.03
	c5.84,0,11.67,0.02,17.51-0.01c2.46-0.01,2.72-0.29,2.74-2.79c0.03-3.2,0.01-6.39,0.01-9.59c-0.01-3.37-0.08-3.44-3.55-3.44
	c-11.19-0.01-22.39,0-33.58,0c-3.7,0-3.7,0.01-3.7,3.77C1153.79,639.04,1153.8,655.34,1153.8,671.64z M962.88,416.53
	c0-16.14,0-32.28,0-48.41c0-0.72,0.03-1.44-0.02-2.16c-0.11-1.72-0.42-2.09-2.2-2.11c-4.08-0.05-8.15-0.05-12.23-0.01
	c-2,0.02-2.28,0.38-2.37,2.44c-0.02,0.4-0.01,0.8-0.01,1.2c0,32.6,0,65.19,0,97.79c0,0.64,0.02,1.28,0.03,1.92
	c0.02,1.14,0.65,1.77,1.72,1.97c0.7,0.13,1.43,0.2,2.14,0.2c2.96,0.02,5.92,0.03,8.87,0c3.7-0.03,4.05-0.41,4.05-4.17
	C962.88,448.96,962.88,432.74,962.88,416.53z M764.76,725.94c4.47,0,8.94,0.02,13.41-0.01c2.53-0.01,2.82-0.27,2.83-2.7
	c0.02-8.94,0.02-17.88,0-26.81c-0.01-2.32-0.31-2.62-2.66-2.63c-9.02-0.02-18.04-0.02-27.07,0c-2.5,0.01-2.88,0.4-2.88,2.98
	c-0.02,8.78-0.02,17.56,0,26.34c0.01,2.56,0.28,2.81,2.95,2.82C755.81,725.96,760.29,725.94,764.76,725.94z M764.73,653.48
	c-4.56,0-9.11-0.02-13.67,0.01c-2.34,0.02-2.66,0.31-2.66,2.63c-0.03,8.87-0.03,17.73,0,26.6c0.01,2.53,0.39,2.9,2.97,2.91
	c8.87,0.02,17.74,0.02,26.62,0c2.66-0.01,3.02-0.38,3.03-3.09c0.02-8.71,0.02-17.42,0-26.12c-0.01-2.68-0.24-2.91-2.85-2.93
	C773.68,653.46,769.2,653.48,764.73,653.48z M821.33,709.77c0-4.39,0.02-8.79-0.01-13.18c-0.02-2.49-0.29-2.79-2.75-2.79
	c-8.87-0.02-17.75-0.02-26.62,0c-2.5,0.01-2.79,0.29-2.79,2.74c-0.02,8.87-0.02,17.74,0,26.61c0.01,2.49,0.29,2.79,2.74,2.79
	c8.87,0.02,17.75,0.02,26.62,0c2.5-0.01,2.78-0.29,2.79-2.74C821.35,718.72,821.33,714.24,821.33,709.77z M805.48,653.49
	c-4.63,0-9.27-0.03-13.9,0.01c-2.03,0.02-2.4,0.37-2.4,2.39c-0.03,9.02-0.03,18.04,0,27.06c0.01,2.24,0.44,2.66,2.71,2.67
	c8.95,0.03,17.89,0.03,26.84,0c2.29-0.01,2.59-0.33,2.6-2.69c0.02-8.94,0.02-17.88,0-26.83c-0.01-2.32-0.31-2.61-2.66-2.62
	C814.27,653.46,809.87,653.48,805.48,653.49z M1079.58,783.17c0.11-0.02,0.22-0.05,0.33-0.07c0,0.79,0,1.58,0,2.37
	c0,8.63,0,17.26-0.01,25.88c0,0.64-0.02,1.28,0.01,1.92c0.09,1.96,0.52,2.35,2.47,2.34c1.86-0.02,2.24-0.37,2.35-2.22
	c0.04-0.64,0.01-1.28,0.01-1.92c0-11.02,0-22.05,0-33.07c0-4.63,0-4.63-4.6-4.54c-2.58,0.05-2.79,0.16-3.41,2.71
	c-2.16,8.93-4.28,17.87-6.42,26.8c-0.11,0.46-0.35,0.89-0.71,1.8c-0.32-1.47-0.52-2.4-0.72-3.32c-1.81-8.11-3.59-16.22-5.44-24.32
	c-0.85-3.7-0.91-3.68-4.81-3.67c-3.61,0.01-3.65,0.04-3.66,3.57c-0.01,11.58,0,23.17,0,34.75c0,0.64-0.07,1.3,0.09,1.91
	c0.13,0.48,0.45,1.09,0.86,1.3c2.02,1.05,3.81-0.07,3.88-2.35c0.02-0.64,0.01-1.28,0.01-1.92c0-8.39-0.01-16.78,0-25.17
	c0-0.64,0.09-1.27,0.13-1.91c0.42,0.48,0.57,0.93,0.67,1.39c1.5,7.19,2.99,14.39,4.5,21.58c0.46,2.19,0.97,4.37,1.48,6.54
	c0.2,0.86,0.48,1.68,1.51,1.97c2.38,0.68,3.82-0.11,4.46-2.5c0.1-0.39,0.2-0.77,0.29-1.16
	C1075.09,802.29,1077.33,792.73,1079.58,783.17z M728.73,783.98c0.14-0.03,0.28-0.07,0.41-0.1c0.34,0.77,0.71,1.52,1.02,2.3
	c3.54,8.99,7.1,17.97,10.58,26.98c0.67,1.73,1.64,2.52,3.55,2.49c3.45-0.06,3.61-0.12,3.61-3.64c0-11.5,0-23,0-34.49
	c0-0.72,0.04-1.45-0.09-2.15c-0.08-0.43-0.39-1.13-0.66-1.15c-1.24-0.13-2.55-0.29-3.71,0.02c-0.45,0.12-0.78,1.46-0.79,2.26
	c-0.08,4.39-0.1,8.78-0.02,13.17c0.07,4.22,0.28,8.44,0.42,12.67c0.02,0.75,0,1.5,0,2.25c-0.72-0.67-1.07-1.37-1.36-2.09
	c-3.48-8.67-6.95-17.34-10.42-26.01c-1-2.5-1.18-2.6-3.88-2.62c-3.34-0.03-3.49,0.1-3.49,3.49c-0.01,11.58,0,23.16,0,34.73
	c0,0.72-0.04,1.45,0.11,2.15c0.08,0.41,0.39,0.91,0.75,1.12c1.92,1.11,3.88-0.01,3.96-2.22c0.02-0.56,0.01-1.12,0.01-1.68
	c0-8.38,0-16.77,0-25.15C728.73,785.52,728.73,784.75,728.73,783.98z M950.94,792.55c0.65-0.35,1.12-0.53,1.49-0.83
	c1.99-1.64,2.79-3.82,2.77-6.35c-0.01-0.96,0.02-1.92-0.01-2.87c-0.13-4.91-3.78-8.54-8.74-8.63c-3.19-0.05-6.39-0.04-9.58-0.01
	c-2.52,0.02-2.76,0.27-2.82,2.71c-0.02,0.64,0,1.28,0,1.92c0,10.37,0,20.75,0,31.12c0,1.28-0.04,2.56,0.02,3.83
	c0.08,1.74,0.42,2.12,2.16,2.14c3.27,0.05,6.56,0.16,9.82-0.05c3.48-0.22,6.54-1.6,8.54-4.62c2.55-3.87,2.58-8.12,1.49-12.44
	c-0.48-1.92-1.74-3.39-3.29-4.59C952.35,793.55,951.91,793.24,950.94,792.55z M682.81,487.2c-0.66,0.42-1.05,0.56-1.27,0.83
	c-3.09,3.81-5.72,7.85-7.11,12.64c-1.78,6.14-0.77,12.08,1.44,17.82c2.23,5.81,4.97,11.42,7.28,17.2
	c2.51,6.29,4.07,12.78,2.82,19.64c-0.11,0.63-0.28,1.26-0.3,1.89c-0.01,0.47,0.18,0.96,0.31,1.54c0.45-0.23,0.72-0.28,0.86-0.44
	c5.33-5.79,7.33-12.61,6.12-20.34c-1.06-6.77-3.81-13-6.46-19.25c-1.46-3.45-3.08-6.88-4.11-10.47c-1.85-6.42-1.73-12.93,0.13-19.37
	C682.63,488.45,682.67,488.02,682.81,487.2z M673.84,524.54c-0.77,0.48-1.09,0.58-1.27,0.8c-2.68,3.31-4.97,6.85-6.39,10.89
	c-2.05,5.81-1.84,11.69,0.24,17.37c2.03,5.53,4.44,10.93,6.82,16.33c3.49,7.92,5.21,16.06,3.59,24.7c-0.08,0.42-0.01,0.88-0.01,1.56
	c1.53-0.59,2.03-1.84,2.81-2.78c3.56-4.33,5.1-9.4,4.86-14.91c-0.18-4.31-1.13-8.55-2.74-12.58c-2.22-5.55-4.6-11.05-6.81-16.61
	c-2.95-7.4-3.79-14.95-1.41-22.7C673.69,526.13,673.7,525.59,673.84,524.54z M1220.8,794.19c0.7-0.59,1.26-1.03,1.78-1.51
	c1.4-1.3,2.31-2.96,2.51-4.79c0.23-2.12,0.35-4.34-0.01-6.43c-0.84-4.91-4.22-7.54-9.29-7.6c-3.04-0.03-6.07-0.02-9.11-0.01
	c-3.37,0.01-3.45,0.08-3.45,3.54c-0.01,11.58,0,23.16,0,34.74c0,0.48-0.02,0.96,0.02,1.44c0.15,1.75,0.6,2.08,2.76,2.05
	c2-0.03,2.37-0.32,2.5-2.07c0.05-0.64,0.02-1.28,0.02-1.92c0-4.07-0.02-8.15,0.02-12.22c0.02-2.17,0.33-2.45,2.54-2.5
	c1.44-0.03,2.88-0.03,4.31,0.05c1.68,0.09,2.95,0.94,3.42,2.55c0.4,1.36,0.6,2.8,0.7,4.21c0.22,3.26,0.23,6.53,0.52,9.78
	c0.17,1.9,1.18,2.37,3.51,2.09c1.52-0.19,1.84-0.77,1.71-2.77c-0.18-2.78-0.4-5.57-0.38-8.35
	C1224.91,800.57,1224.42,796.95,1220.8,794.19z M829.48,794.45c0.1-0.29,0.11-0.5,0.21-0.58c3.52-2.65,4.32-6.4,4.08-10.46
	c-0.37-6.19-4.36-9.55-9.85-9.55c-3.12,0-6.24-0.02-9.35,0c-2.6,0.02-2.8,0.25-2.85,2.93c0,0.24,0,0.48,0,0.72
	c0,11.5,0,23.01,0,34.51c0,0.64-0.04,1.29,0.06,1.91c0.07,0.45,0.3,1.19,0.54,1.23c1.23,0.19,2.52,0.4,3.72,0.2
	c1.06-0.17,0.93-1.34,0.96-2.2c0.02-0.56,0.01-1.12,0.01-1.68c0-3.76-0.01-7.51,0-11.27c0.01-3.22,0.11-3.3,3.42-3.32
	c0.8,0,1.6-0.02,2.4,0.01c2.44,0.07,3.92,1.1,4.57,3.43c0.36,1.29,0.53,2.66,0.59,4.01c0.1,2.31,0,4.63,0.05,6.95
	c0.02,0.95,0.2,1.9,0.38,2.84c0.17,0.88,0.73,1.41,1.66,1.44c0.72,0.02,1.44,0.04,2.15-0.01c1.1-0.07,1.47-0.71,1.42-1.78
	c-0.15-3.11-0.26-6.21-0.34-9.32C833.22,800.63,832.82,796.93,829.48,794.45z M762.33,773.85
	C762.33,773.85,762.33,773.86,762.33,773.85c-1.68,0.01-3.35-0.04-5.03,0.02c-1.76,0.06-2.07,0.4-2.19,2.12
	c-0.04,0.64-0.02,1.28-0.02,1.91c0,8.14,0,16.28,0,24.42c0,3.59-0.03,7.18,0.02,10.77c0.03,2.17,0.35,2.47,2.53,2.51
	c2.47,0.04,4.95,0.07,7.42-0.01c5.84-0.19,10.18-3.45,11.98-8.97c0.42-1.29,0.79-2.6,1.03-3.93c0.79-4.41,0.86-8.84,0.59-13.31
	c-0.18-3-0.78-5.86-2.01-8.56c-2.08-4.58-5.62-7.01-10.73-6.97C764.72,773.86,763.53,773.85,762.33,773.85z M839.54,794.74
	c0,6.07-0.02,12.14,0.01,18.22c0.01,2.34,0.3,2.61,2.65,2.64c2.4,0.03,4.8,0.11,7.19-0.02c5.18-0.27,9.26-2.38,11.36-7.38
	c0.71-1.68,1.32-3.44,1.7-5.22c1.12-5.13,0.74-10.34,0.42-15.51c-0.14-2.18-0.87-4.4-1.72-6.44c-1.97-4.74-5.6-7.22-10.83-7.18
	c-2.64,0.02-5.28-0.02-7.91,0.01c-2.63,0.02-2.86,0.24-2.86,2.91C839.52,782.76,839.54,788.75,839.54,794.74z M973.5,816.11
	c4.36,0.17,7.65-2.05,9.61-6.15c0.85-1.78,1.4-3.75,1.77-5.69c0.4-2.1,0.35-4.29,0.65-6.42c0.71-5.14,0-10.17-1.05-15.18
	c-0.24-1.16-0.72-2.28-1.16-3.39c-2.93-7.36-13.69-8.07-17.87-3.05c-1.69,2.03-2.89,4.19-3.52,6.7c-1.66,6.51-1.65,13.11-0.7,19.7
	c0.34,2.35,0.89,4.74,1.8,6.91C964.86,813.94,968.3,816.21,973.5,816.11z M903.54,815.11c4.17,1.13,4.94,0.69,5.73-2.9
	c0.56-2.49,1.17-4.97,1.73-7.46c0.27-1.21,0.84-2.07,2.22-2.07c2.31,0,4.63-0.01,6.94,0.02c0.99,0.01,1.65,0.52,1.9,1.51
	c0.15,0.62,0.3,1.24,0.45,1.86c0.57,2.49,1.12,4.98,1.7,7.47c0.2,0.85,0.38,1.84,1.47,1.95c1.39,0.14,2.84,0.44,4.36-0.49
	c-0.17-0.91-0.3-1.84-0.52-2.74c-2.85-11.46-5.7-22.92-8.59-34.37c-1.07-4.25-0.28-4.08-5.68-4.03c-1.3,0.01-2.12,0.55-2.38,1.86
	c-0.09,0.47-0.24,0.93-0.36,1.39c-2.79,11.47-5.58,22.95-8.35,34.42C903.88,812.67,903.75,813.85,903.54,815.11z M693.47,815.28
	c0.75,0.15,1.13,0.28,1.52,0.3c3.62,0.17,3.7-0.43,4.21-3.14c0.47-2.51,1.1-4.99,1.73-7.47c0.52-2.07,0.81-2.27,2.99-2.31
	c1.68-0.03,3.36-0.02,5.04-0.01c2.62,0.03,2.81,0.19,3.37,2.69c0.61,2.73,1.25,5.45,1.84,8.18c0.27,1.23,0.85,1.95,2.22,2.07
	c3.37,0.31,3.89-0.23,3.07-3.48c-2.9-11.63-5.81-23.25-8.72-34.87c-0.16-0.62-0.31-1.24-0.49-1.85c-0.63-2.07-2.38-1.5-3.81-1.54
	c-1.4-0.04-3-0.32-3.53,1.62c-0.04,0.15-0.09,0.31-0.13,0.46c-0.1,0.39-0.2,0.77-0.3,1.16c-2.83,11.64-5.66,23.28-8.47,34.93
	C693.75,813.02,693.66,814.05,693.47,815.28z M807.67,815.05c-0.14-0.81-0.22-1.66-0.43-2.49c-2.84-11.55-5.68-23.1-8.55-34.65
	c-1.06-4.28-0.53-4.13-5.7-4.04c-1.75,0.03-2.02,0.31-2.44,2.02c-3.02,12.41-6.04,24.82-9.04,37.24c-0.16,0.66-0.16,1.35-0.23,1.98
	c3.96,1.17,4.84,0.72,5.71-2.82c0.63-2.56,1.22-5.13,1.81-7.69c0.29-1.25,0.98-1.95,2.33-1.93c2.16,0.03,4.31,0.01,6.47,0.02
	c1.21,0,1.94,0.6,2.19,1.79c0.11,0.55,0.28,1.08,0.41,1.62c0.59,2.49,1.17,4.97,1.76,7.46c0.21,0.87,0.46,1.78,1.52,1.92
	C804.82,815.65,806.17,815.88,807.67,815.05z M1142.07,815.31c-0.22-1.13-0.34-1.98-0.55-2.81c-2.96-11.86-5.92-23.73-8.89-35.59
	c-0.14-0.54-0.29-1.08-0.44-1.62c-0.36-1.26-1.38-1.53-2.46-1.41c-1.57,0.18-3.41-0.78-4.62,1c-0.17,0.25-0.23,0.59-0.31,0.9
	c-0.15,0.54-0.28,1.08-0.41,1.63c-2.82,11.73-5.64,23.46-8.45,35.2c-0.64,2.66-0.26,3.11,2.49,3c1.78-0.07,2.09-0.22,2.52-1.94
	c0.71-2.87,1.29-5.77,1.97-8.65c0.49-2.07,0.79-2.31,2.95-2.35c1.84-0.04,3.68-0.04,5.52,0c2,0.05,2.34,0.3,2.82,2.22
	c0.62,2.48,1.19,4.97,1.74,7.47c0.71,3.2,0.9,3.38,4.12,3.24C1140.61,815.58,1141.14,815.45,1142.07,815.31z M1156.12,816.11
	c4.51,0.07,8.05-1.14,10.26-4.77c3.08-5.08,2.61-13.29-3.45-17.3c-1.99-1.32-4.16-2.36-6.19-3.62c-1.27-0.79-2.57-1.63-3.62-2.68
	c-2.13-2.12-2.32-6.05-0.46-8.36c0.52-0.64,1.33-1.25,2.12-1.43c3.26-0.72,5.8-0.05,7.01,3.9c0.74,2.4,1.53,2.92,3.92,2.55
	c1.07-0.17,1.56-0.74,1.53-1.77c-0.08-2.66-0.96-5.09-2.87-6.9c-3.6-3.43-10.02-3.26-13.67-1.05c-6.05,3.66-5.85,13.1-1.42,17.18
	c1.45,1.33,3.26,2.29,4.96,3.32c1.5,0.91,3.1,1.65,4.61,2.54c2.47,1.46,3.74,3.79,3.89,6.53c0.15,2.58-0.25,5.1-2.87,6.64
	c-3.03,1.79-8.1,0.87-9.34-4.24c-0.64-2.65-1.37-2.62-3.77-2.55c-1.76,0.06-1.99,0.43-1.75,2.26
	C1145.78,812.32,1149.98,816.37,1156.12,816.11z M866.87,804.28c-0.11,0.61-0.2,0.85-0.18,1.07c0.07,0.72,0.14,1.43,0.27,2.14
	c0.77,4.35,3.8,7.57,8.17,8.31c1.94,0.33,4.02,0.41,5.95,0.1c2.71-0.44,5.13-1.61,6.77-4.09c4.04-6.13,2.23-14.65-4.07-18.45
	c-2.05-1.24-4.23-2.25-6.31-3.44c-2.93-1.67-4.72-4.02-4.29-7.61c0.3-2.53,1.72-4.21,3.9-4.53c3.16-0.47,5.14,0.56,6.16,3.24
	c0.26,0.67,0.36,1.4,0.64,2.06c0.5,1.21,1.97,1.69,3.73,1.28c1.11-0.26,1.52-0.84,1.32-2.41c-0.5-3.81-2.11-6.91-6.03-8.18
	c-3.66-1.18-7.25-0.99-10.61,1.03c-1.61,0.97-2.88,2.31-3.55,4.09c-1.48,3.93-1.69,9.58,2.7,13.17c1.41,1.15,2.96,2.15,4.52,3.11
	c1.63,1,3.39,1.8,5,2.82c2.16,1.38,3.29,3.54,3.55,6c0.27,2.54-0.23,5.01-2.46,6.65c-2,1.48-4.2,1.32-6.38,0.39
	c-2.03-0.86-2.95-2.57-3.45-4.6c-0.53-2.12-0.81-2.34-2.92-2.35C868.51,804.09,867.74,804.21,866.87,804.28z M1018.5,794.63
	c0,2.32,0,4.63,0,6.95c0,3.84-0.02,7.67,0.02,11.51c0.02,2.11,0.34,2.48,2.3,2.5c5.12,0.04,10.23,0.05,15.35-0.01
	c1.86-0.02,2.51-0.84,2.49-2.74c-0.02-1.63-0.43-1.99-2.5-2.03c-1.6-0.04-3.2-0.01-4.8-0.01c-1.84,0-3.68,0.04-5.52-0.03
	c-1.55-0.06-1.97-0.38-1.99-1.8c-0.07-3.75-0.03-7.51-0.01-11.26c0.01-1.19,0.7-1.72,1.83-1.74c0.64-0.01,1.28-0.02,1.92-0.02
	c2.48-0.01,4.96,0.04,7.43-0.03c1.79-0.04,2.13-0.43,2.22-2.1c0.1-2.15-0.34-2.65-2.6-2.68c-2.88-0.04-5.76,0.02-8.63-0.04
	c-1.71-0.03-2.12-0.37-2.16-1.88c-0.08-2.87-0.07-5.75,0-8.63c0.04-1.45,0.44-1.83,1.91-1.88c2.48-0.08,4.96-0.01,7.43-0.05
	c1.03-0.02,2.09-0.06,3.09-0.27c1.63-0.34,2.06-1.05,1.88-2.76c-0.14-1.4-0.51-1.72-2.29-1.77c-1.52-0.05-3.04-0.02-4.56-0.02
	c-3.36,0-6.72-0.02-10.07,0.01c-2.45,0.02-2.69,0.3-2.74,2.8c-0.01,0.56,0,1.12,0,1.68C1018.5,783.77,1018.5,789.2,1018.5,794.63z
	 M1092.39,794.68c0,6.15-0.02,12.3,0.01,18.45c0.01,2.08,0.35,2.44,2.34,2.46c5.03,0.04,10.07,0.04,15.1,0
	c1.95-0.02,2.68-0.87,2.68-2.85c0-1.53-0.46-1.91-2.59-1.93c-3.28-0.03-6.55,0.02-9.83-0.03c-2.04-0.03-2.37-0.36-2.41-2.39
	c-0.05-3.19-0.04-6.39-0.01-9.58c0.02-2.62,0.25-2.84,2.91-2.86c2.8-0.03,5.59,0.03,8.39-0.04c1.74-0.04,2.07-0.46,2.13-2.18
	c0.07-2.05-0.36-2.56-2.45-2.59c-2.72-0.05-5.43,0-8.15-0.02c-2.55-0.02-2.8-0.26-2.83-2.69c-0.03-2.4-0.04-4.79,0-7.19
	c0.04-2.2,0.33-2.51,2.5-2.55c2.48-0.04,4.95,0.01,7.43-0.03c0.95-0.02,1.9-0.17,2.84-0.33c0.98-0.17,1.49-0.77,1.59-1.8
	c0.18-1.93-0.37-2.64-2.37-2.66c-4.79-0.04-9.59-0.03-14.38-0.01c-2.66,0.01-2.91,0.25-2.92,2.86
	C1092.37,782.7,1092.39,788.69,1092.39,794.68z M1001.13,807.72c-2.49-10.73-4.9-21.13-7.34-31.54c-0.52-2.24-0.65-2.3-2.88-2.34
	c-2.96-0.05-3.18,0.21-2.45,3.15c2.85,11.55,5.69,23.1,8.55,34.64c0.21,0.85,0.43,1.7,0.68,2.54c0.25,0.85,0.83,1.34,1.74,1.39
	c0.64,0.03,1.28,0.05,1.92,0.04c2.46-0.03,2.68-0.19,3.3-2.54c3.12-11.97,6.24-23.94,9.34-35.92c0.23-0.9,0.33-1.83,0.54-3.01
	c-1.02-0.11-1.78-0.26-2.55-0.27c-2.42-0.03-2.76,0.23-3.31,2.51c-2.22,9.15-4.43,18.31-6.63,27.47
	C1001.74,805.04,1001.47,806.26,1001.13,807.72z M682.15,797.17c0,5.03,0,10.05,0,15.08c0,0.64-0.1,1.33,0.1,1.9
	c0.19,0.52,0.65,1.15,1.13,1.32c2.55,0.88,4-0.18,4.06-2.85c0.01-0.64,0-1.28,0-1.91c0-9.33,0-18.67,0-28c0-4,0-3.97,3.92-4.04
	c1.27-0.02,2.54-0.2,3.79-0.39c0.91-0.14,1.29-0.8,1.39-1.7c0.21-1.93-0.35-2.68-2.32-2.7c-6.46-0.04-12.93-0.02-19.4-0.01
	c-0.4,0-0.83,0-1.18,0.16c-0.34,0.15-0.69,0.44-0.85,0.75c-0.81,1.58-0.04,3.33,1.74,3.63c1.48,0.25,3.01,0.24,4.53,0.27
	c2.91,0.06,3.07,0.19,3.08,3.18C682.16,786.95,682.15,792.06,682.15,797.17z"/>
<path d="M728.71,283.28c0.82,1.18,1.73,2.31,2.46,3.54c1.1,1.88,0.81,2.85-1.08,3.92c-2.08,1.19-4.23,2.26-6.28,3.51
	c-6.02,3.65-11.69,7.77-16.98,12.45c-5.96,5.27-11.34,11-15.74,17.64c-2.14,3.23-3.78,6.67-4.85,10.38
	c-2.24,7.81,0.53,14.08,7.78,17.79c4.63,2.37,9.61,3.46,14.71,4.09c2.29,0.28,4.61,0.36,6.92,0.55c2.03,0.16,3.73,1.02,4.8,2.77
	c0.73,1.19,1.7,1.59,3,1.52c0.8-0.04,1.6,0,2.4,0c33.03,0,66.05-0.07,99.08,0.04c13.41,0.04,26.32,2.8,38.69,8.1
	c9.65,4.14,18.42,9.66,26.23,16.6c8.59,7.63,15.75,16.48,21.3,26.64c5.83,10.66,9.5,21.99,11.21,33.95
	c0.64,4.48,0.53,9.07,0.72,13.61c0.45,10.52-1.48,20.71-4.67,30.65c-3.55,11.04-9.04,21.11-16.25,30.24
	c-3.58,4.54-7.56,8.68-11.79,12.58c-4.64,4.29-9.78,7.98-15.22,11.21c-9.99,5.93-20.69,10.06-32.1,12.26
	c-6.05,1.16-12.16,1.88-18.34,1.75c-1.09-0.02-2.19,0.09-3.74,0.17c0.47,1.01,0.73,1.72,1.11,2.35
	c5.66,9.46,11.33,18.92,17.01,28.38c12.71,21.17,25.42,42.34,38.13,63.51c13.2,21.99,26.4,43.98,39.6,65.98
	c0.86,1.44,1.74,2.87,2.56,4.33c0.26,0.46,0.39,0.99,0.69,1.81c-0.96,0.14-1.71,0.34-2.45,0.34c-13.83,0.02-27.67-0.01-41.5,0.04
	c-1.65,0.01-2.66-0.66-3.48-2.03c-10.13-16.94-20.29-33.86-30.45-50.78c-13.2-21.99-26.41-43.98-39.61-65.98s-26.4-43.99-39.6-65.98
	c-3.95-6.58-7.89-13.16-11.83-19.74c-0.32-0.53-0.57-1.1-1.04-2.03c1.11-0.1,1.93-0.23,2.76-0.23c6.32-0.02,12.63-0.01,18.95-0.01
	c17.03,0,34.07,0.1,51.1-0.03c14.53-0.11,27.71-4.35,38.96-13.8c11.7-9.83,18.73-22.37,20.74-37.48
	c2.25-16.89-2.32-32.02-13.15-45.11c-9.67-11.69-22.1-18.67-37.25-20.57c-2.29-0.29-4.61-0.45-6.92-0.45
	c-33.59-0.03-67.17-0.01-100.76-0.04c-1.97,0-3.72,0.07-5.16,1.8c-1.05,1.25-2.7,1.61-4.38,1.6c-2.48-0.03-4.96-0.1-7.44,0.02
	c-8.45,0.39-14.86,4.16-18.52,11.89c-1.04,2.19-1.5,4.73-1.82,7.16c-0.42,3.24-0.52,6.53,0.39,9.75c1.12,4.01,3.45,7.01,7.32,8.65
	c3.5,1.49,5.16,4.04,5.06,7.86c-0.09,3.67,0,7.35-0.03,11.03c-0.02,3.01-0.99,4.42-3.81,5.36c-1.12,0.37-2.34,0.58-3.52,0.58
	c-12.39,0.04-24.79,0.02-37.18,0.03c-2.82,0-5.17-0.86-6.81-3.28c-0.27-0.39-0.66-0.7-0.99-1.04c0-4.96,0-9.91,0-14.87
	c1.41-2.32,2.83-4.51,5.55-5.72c5.49-2.43,7.93-6.9,7.88-12.84c-0.04-4.24-0.05-8.47,0-12.71c0.07-5.22-1.9-9.14-6.88-11.26
	c-2.68-1.14-3.71-3.17-3.73-6.07c-0.05-7.28,0.37-14.51,1.42-21.72c2.05-14.12,6.18-27.6,12.56-40.34
	c3.87-7.72,8.63-14.91,14.28-21.51c4.43-5.18,9.26-9.92,14.52-14.2c6.09-4.96,12.71-9.16,19.76-12.63c4.37-2.15,8.88-4,13.33-5.98
	C727.11,283.28,727.91,283.28,728.71,283.28z"/>
<path d="M1251.22,704.82c-0.17,0.69-0.37,1.38-0.49,2.08c-0.97,5.93-3.76,10.86-8.41,14.62c-3.19,2.58-7.04,3.91-11.06,4.22
	c-3.64,0.28-7.38,0.25-10.98-0.28c-10.06-1.47-15.51-7.66-17.44-17.47c-0.86-4.36-0.56-8.76-0.55-13.14c0-1.59,0.41-1.97,2.05-1.99
	c4.24-0.06,8.48-0.06,12.71,0c1.59,0.02,1.94,0.42,1.99,2.06c0.07,2.16-0.15,4.33,0.09,6.47c0.24,2.11,0.7,4.24,1.41,6.24
	c0.97,2.75,3.31,3.7,6.07,3.88c2.86,0.18,4.94-1.04,6.37-3.44c0.36-0.61,0.71-1.29,0.84-1.97c0.63-3.28,1.43-6.56,0.75-9.95
	c-0.44-2.18-0.64-4.42-1.2-6.57c-0.58-2.27-1.91-4.17-3.52-5.9c-3.99-4.29-8.69-7.76-13.17-11.48c-5.09-4.24-9.6-8.98-11.52-15.56
	c-1.51-5.2-1.85-10.55-1.28-15.91c0.34-3.15,0.95-6.33,1.9-9.35c2.68-8.5,8.89-12.88,17.52-13.74c5.09-0.51,10.23-0.37,15.09,1.77
	c3.49,1.54,6.12,4.03,8.03,7.27c2.46,4.17,3.38,8.75,3.37,13.55c0,2.08,0.04,4.16-0.02,6.23c-0.05,1.88-0.39,2.23-2.3,2.25
	c-4.08,0.05-8.16,0.05-12.23,0c-1.87-0.02-2.19-0.39-2.25-2.31c-0.06-2.08,0.09-4.16-0.06-6.23c-0.11-1.57-0.37-3.19-0.89-4.67
	c-0.88-2.5-2.59-3.58-5.13-3.53c-2.49,0.05-4.4,1.19-5.19,3.54c-0.63,1.87-0.95,3.88-1.13,5.85c-0.65,6.89,1.7,12.51,7.3,16.75
	c4.13,3.13,8.3,6.25,12.21,9.65c5.62,4.89,9.71,10.79,10.69,18.43c0.06,0.46,0.28,0.91,0.42,1.36
	C1251.22,693.31,1251.22,699.07,1251.22,704.82z"/>
<path class="st0" d="M726.31,283.28c-4.45,1.98-8.97,3.82-13.33,5.98c-7.04,3.47-13.67,7.68-19.76,12.63
	c-5.26,4.28-10.09,9.02-14.52,14.2c-5.66,6.6-10.41,13.79-14.28,21.51c-6.38,12.73-10.5,26.21-12.56,40.34
	c-1.05,7.22-1.47,14.44-1.42,21.72c0.02,2.9,1.05,4.93,3.73,6.07c4.98,2.11,6.95,6.04,6.88,11.26c-0.06,4.24-0.04,8.47,0,12.71
	c0.05,5.94-2.39,10.41-7.88,12.84c-2.71,1.2-4.13,3.39-5.55,5.72c0-54.94,0-109.87,0-164.97
	C673.85,283.28,700.08,283.28,726.31,283.28z"/>
<path d="M1184.05,816.56c-0.77-0.18-1.54-0.38-2.31-0.52c-3.97-0.72-6.75-2.87-7.85-6.81c-0.49-1.75-0.83-3.61-0.84-5.42
	c-0.08-8.95-0.04-17.89-0.04-26.84c0-0.48,0.02-0.96,0.04-1.44c0.06-1.04,0.61-1.62,1.66-1.65c0.64-0.02,1.28-0.02,1.92,0
	c1.07,0.04,1.59,0.64,1.63,1.68c0.03,0.72,0.04,1.44,0.04,2.16c0,8.23-0.04,16.46,0.04,24.68c0.01,1.65,0.26,3.36,0.74,4.94
	c0.88,2.87,3.36,4.49,6.18,4.35c2.8-0.14,4.92-2.05,5.5-5.11c0.27-1.4,0.44-2.85,0.44-4.27c0.04-8.07,0.02-16.14,0.02-24.2
	c0-0.64-0.02-1.28,0.01-1.92c0.1-1.99,0.43-2.3,2.48-2.34c2.37-0.05,2.8,0.32,2.8,2.73c0.02,9.03,0.1,18.05-0.06,27.08
	c-0.04,2.26-0.68,4.58-1.39,6.76c-1.12,3.43-4.09,4.69-7.29,5.55c-0.77,0.2-1.53,0.4-2.3,0.6
	C1185.01,816.56,1184.53,816.56,1184.05,816.56z"/>
<path d="M647.62,804.09c1.28,0,2.56,0.01,3.84,0c1.12-0.01,1.78,0.49,2,1.63c0.33,1.68,1.02,3.16,2.31,4.37
	c1.76,1.64,3.78,1.98,6,1.32c2.31-0.68,3.55-2.34,3.96-4.65c0.7-4.02-0.69-7.14-4.28-9.36c-1.83-1.13-3.75-2.12-5.66-3.12
	c-3.73-1.95-5.93-4.92-6.56-9.13c-0.85-5.64,2.47-10.5,8.04-11.76c2.44-0.55,4.76-0.22,7.08,0.41c3.76,1.02,6.04,5.47,6.13,9.16
	c0.01,0.34-0.23,0.79-0.5,1.02c-1.32,1.15-4.16,0.35-4.78-1.32c-0.16-0.45-0.25-0.92-0.39-1.38c-0.62-2.02-1.91-3.27-4.08-3.51
	c-2.23-0.25-4.15,0.31-5.43,2.27c-1.5,2.3-1,6.19,1.19,8.15c1.17,1.05,2.6,1.83,3.97,2.64c1.78,1.06,3.67,1.96,5.41,3.07
	c3.59,2.28,5.26,5.63,5.29,9.87c0.02,2.92-0.08,5.82-2.09,8.15c-0.97,1.12-2.12,2.26-3.43,2.9c-3.61,1.76-7.38,1.81-11.16,0.38
	c-3.09-1.17-4.9-3.44-5.85-6.52c-0.28-0.91-0.67-1.78-1.01-2.67C647.62,805.37,647.62,804.73,647.62,804.09z"/>
<path d="M1251.22,815.12c-0.94,0.16-1.87,0.46-2.81,0.47c-4.79,0.05-9.58,0.04-14.38,0.01c-2.56-0.02-2.95-0.38-2.96-2.91
	c-0.02-12.05-0.02-24.11,0-36.16c0-2.35,0.31-2.65,2.63-2.66c4.87-0.03,9.74-0.04,14.62,0.01c2.1,0.02,2.69,0.81,2.4,2.84
	c-0.13,0.91-0.59,1.51-1.46,1.67c-0.93,0.17-1.89,0.27-2.85,0.28c-2.64,0.04-5.27-0.02-7.91,0.04c-1.74,0.04-2.09,0.4-2.13,2.16
	c-0.06,2.71-0.06,5.43,0,8.14c0.04,1.72,0.4,2.06,2.19,2.09c3.03,0.06,6.07,0,9.1,0.04c2.23,0.03,2.74,0.61,2.56,2.71
	c-0.13,1.56-0.56,2.02-2.33,2.07c-2.63,0.07-5.27,0.02-7.91,0.03c-3.62,0.01-3.63,0.02-3.64,3.57c-0.01,2.95-0.03,5.91,0.02,8.86
	c0.03,2.05,0.35,2.38,2.38,2.4c4.15,0.05,8.31,0.02,12.46,0.03C1251.22,812.25,1251.22,813.68,1251.22,815.12z"/>
<path d="M699.59,642.25c18.52-30.72,36.9-61.52,55.7-92.69c0.87,1.15,1.44,1.76,1.86,2.46c6.11,10.13,12.19,20.26,18.28,30.4
	c0.74,1.23,1.41,2.52,2.23,3.69c1.01,1.44,0.91,2.7,0,4.19c-4.21,6.89-8.32,13.83-12.47,20.75c-13.2,21.99-26.4,43.98-39.6,65.96
	c-9.29,15.48-18.6,30.95-27.84,46.47c-1.06,1.78-2.28,2.53-4.4,2.51c-13.59-0.09-27.18-0.04-40.78-0.05c-0.78,0-1.56-0.08-2.77-0.15
	c0.49-1.05,0.78-1.83,1.2-2.54c2.24-3.78,4.44-7.59,6.79-11.3c1-1.57,1.34-3.17,1.33-4.98c-0.03-15.34-0.02-30.69-0.02-46.03
	c0-17.82,0-35.64,0-53.46c0-3.85,0.01-3.86,3.86-3.86c10.79,0,21.59,0,32.38,0c3.58,0,3.62,0.04,3.62,3.61c0,10.79,0,21.58,0,32.36
	c0,0.84,0,1.68,0,2.51C699.18,642.16,699.39,642.21,699.59,642.25z"/>
<path d="M1124.2,641.19c-1.66,12.25-3.28,24.5-4.99,36.74c-1.62,11.62-3.34,23.24-5.02,34.85c-0.42,2.92-0.82,5.85-1.28,8.77
	c-0.43,2.75-0.65,2.93-3.34,2.94c-3.52,0.02-7.04,0.03-10.55-0.01c-2.29-0.03-2.5-0.32-2.79-2.63c-1.05-8.23-2.14-16.46-3.19-24.7
	c-1.04-8.16-2.03-16.32-3.07-24.47c-0.99-7.76-2.02-15.51-3.03-23.27c-0.3-2.28-0.6-4.55-1.16-6.82c-0.02,0.53-0.07,1.06-0.07,1.59
	c0,6.55-0.24,13.12,0.07,19.66c0.89,18.93,0.15,37.87,0.4,56.8c0.05,3.86,0,3.86-3.84,3.87c-3.04,0-6.08,0.03-9.12-0.02
	c-2.03-0.03-2.32-0.37-2.4-2.4c-0.02-0.56-0.01-1.12-0.01-1.68c0-32.45,0-64.9,0-97.35c0-4.08,0-4.08,4.11-4.08
	c5.52,0,11.03,0,16.55,0c0.56,0,1.12-0.01,1.68,0.01c2.05,0.09,2.33,0.3,2.67,2.28c0.48,2.83,0.94,5.67,1.36,8.52
	c1.21,8.3,2.44,16.59,3.57,24.9c1.13,8.3,2.16,16.62,3.24,24.93c0.26,2.02,0.58,4.03,1.15,5.99c1.66-10.16,3.3-20.32,5-30.47
	c1.89-11.27,3.84-22.52,5.78-33.78c0.34-1.96,0.7-2.34,2.65-2.35c6.48-0.04,12.95-0.04,19.43,0c2.01,0.01,2.3,0.38,2.39,2.42
	c0.02,0.56,0.01,1.12,0.01,1.68c0,32.45,0,64.9,0,97.35c0,4.06,0,4.07-4.13,4.07c-2.88,0-5.76,0.01-8.64,0
	c-3.53-0.01-3.56-0.04-3.56-3.67c0-13.99,0-27.97,0-41.96c0-5.35-0.06-10.71,0.02-16.06c0.09-6.54,0.3-13.09,0.45-19.63
	c0.01-0.63,0-1.27,0-1.9C1124.42,641.24,1124.31,641.21,1124.2,641.19z"/>
<path d="M1043.78,540.33c1.63,1.11,3.03,1.89,4.24,2.91c3.06,2.57,4.8,5.99,5.52,9.84c1.62,8.65,1.39,17.33-0.04,25.97
	c-0.61,3.66-2.14,7.02-4.45,9.98c-2.9,3.71-6.89,5.72-11.32,6.73c-3.09,0.7-6.31,1.03-9.49,1.11c-6.39,0.17-12.79,0.05-19.19,0.05
	c-0.64,0-1.28,0.03-1.92-0.04c-1.51-0.16-1.89-0.55-2.03-2.12c-0.06-0.64-0.03-1.28-0.03-1.92c0-32.52,0-65.05,0-97.57
	c0-3.87,0.01-3.88,3.83-3.88c6.96,0,13.91-0.04,20.87,0.02c4.12,0.04,8.08,0.95,11.84,2.66c4.83,2.19,7.86,6,9.4,10.92
	c1.84,5.87,1.88,11.95,1.34,18.04c-0.12,1.35-0.21,2.71-0.44,4.04C1051.01,532.45,1049,537.2,1043.78,540.33z M1021.41,565.4
	c0,4.63,0,9.25,0,13.88c0,0.64,0.01,1.28,0.03,1.91c0.02,1.17,0.63,1.73,1.79,1.77c2.88,0.11,5.74,0.03,8.54-0.79
	c2.05-0.6,3.5-1.87,4.39-3.78c1.06-2.28,1.52-4.7,1.53-7.2c0.03-3.75,0.08-7.5-0.03-11.25c-0.05-1.74-0.3-3.5-0.72-5.19
	c-1.08-4.28-4.05-6.58-8.48-6.74c-1.44-0.05-2.87-0.04-4.31-0.01c-2.46,0.04-2.72,0.29-2.73,2.79
	C1021.39,555.67,1021.41,560.53,1021.41,565.4z M1021.41,519.71c0,3.99-0.03,7.97,0.01,11.96c0.02,2.03,0.35,2.38,2.39,2.37
	c1.74-0.02,3.51-0.11,5.23-0.41c4.39-0.77,6.38-2.82,7.06-7.22c0.7-4.51,0.86-9.03,0.07-13.56c-0.66-3.75-2.71-6.61-6.89-7.2
	c-1.73-0.24-3.49-0.29-5.24-0.3c-2.33-0.01-2.6,0.28-2.62,2.64C1021.39,511.9,1021.41,515.81,1021.41,519.71z"/>
<path d="M1114.97,544.17c0,8.55-0.04,17.1,0.02,25.64c0.03,3.95-0.56,7.78-1.53,11.6c-0.96,3.81-2.77,7.17-5.37,10.05
	c-2.12,2.34-4.85,3.92-7.81,4.98c-6.9,2.47-13.97,2.74-20.98,0.75c-8.04-2.28-12.71-7.95-14.64-15.93
	c-1.11-4.59-1.53-9.28-1.53-14.01c0.01-15.98-0.05-31.95,0.04-47.93c0.03-5.2,0.78-10.34,2.74-15.23
	c3.53-8.81,10.36-13.17,19.49-14.02c3.7-0.34,7.56-0.21,11.2,0.49c7.87,1.52,13.33,6.2,16.07,13.87c1.55,4.33,2.3,8.79,2.3,13.38
	C1114.97,526.6,1114.97,535.38,1114.97,544.17z M1097.68,544.22c0-9.35,0.06-18.7-0.04-28.05c-0.02-1.96-0.4-3.98-0.99-5.86
	c-1.07-3.41-3.39-4.91-7.07-4.99c-4.12-0.09-6.52,1.21-7.7,4.73c-0.78,2.31-1.37,4.82-1.39,7.24c-0.11,17.9-0.11,35.8,0,53.7
	c0.01,2.35,0.57,4.76,1.29,7.02c1.13,3.55,3.74,5.05,7.83,4.98c3.41-0.06,6.21-2.01,7.16-5.32c0.52-1.82,0.86-3.76,0.87-5.64
	C1097.73,562.77,1097.68,553.49,1097.68,544.22z"/>
<path d="M1059.31,671.69c0,9.35,0.06,18.69-0.02,28.04c-0.04,4.42-0.87,8.74-2.62,12.83c-2.6,6.08-6.92,10.3-13.39,12.06
	c-7.17,1.95-14.37,2.18-21.45-0.37c-6.33-2.28-10.14-7.05-12.17-13.28c-1.11-3.42-1.57-6.97-1.77-10.59
	c-0.92-17.24-0.28-34.49-0.34-51.73c-0.02-5.47,0.48-10.98,2.49-16.24c2.93-7.64,8.36-12.26,16.29-14.06
	c5.23-1.18,10.46-1.13,15.67,0.14c8.14,1.98,13.12,7.28,15.62,15.05c1.2,3.74,1.72,7.61,1.71,11.56
	C1059.29,653.96,1059.32,662.82,1059.31,671.69C1059.32,671.69,1059.31,671.69,1059.31,671.69z M1042.02,671.79
	c0-9.51,0.04-19.02-0.04-28.52c-0.01-1.64-0.33-3.34-0.82-4.91c-1.12-3.56-3.9-5.46-7.58-5.45c-3.58,0.01-6.59,2.04-7.6,5.49
	c-0.64,2.2-1.14,4.54-1.15,6.82c-0.09,17.66-0.08,35.31-0.02,52.97c0.01,2.71,0.37,5.43,1.48,7.96c1.4,3.22,3.91,4.67,7.69,4.54
	c3.75-0.13,6.18-1.77,7.2-5.21c0.51-1.74,0.79-3.6,0.81-5.41C1042.06,690.65,1042.02,681.22,1042.02,671.79z"/>
<path d="M996.46,671.73c0,16.3,0,32.61,0,48.91c0,3.85-0.01,3.85-3.86,3.85c-3.36,0-6.72,0.02-10.08-0.01
	c-2.65-0.02-2.88-0.24-2.88-2.9c-0.01-13.75-0.01-27.49-0.01-41.24c0-4.3,0-4.3-4.36-4.3c-3.04,0-6.08-0.01-9.12,0
	c-3.14,0.01-3.28,0.14-3.28,3.22c-0.01,11.03,0,22.06,0,33.09c0,3.2,0.03,6.39-0.01,9.59c-0.03,2.19-0.34,2.51-2.51,2.53
	c-3.92,0.04-7.84,0.04-11.75,0c-2.18-0.02-2.46-0.34-2.54-2.52c-0.02-0.48-0.01-0.96-0.01-1.44c0-32.53,0-65.06,0-97.58
	c0-3.97,0-3.97,3.98-3.98c3.36,0,6.72-0.02,10.08,0.01c2.47,0.02,2.76,0.3,2.76,2.77c0.02,11.51,0.01,23.02,0.01,34.53
	c0,0.72,0.01,1.44,0.03,2.16c0.02,1.18,0.66,1.75,1.81,1.76c4.32,0.01,8.64,0.04,12.95-0.01c1.49-0.02,1.81-0.41,1.94-1.86
	c0.06-0.71,0.03-1.44,0.03-2.16c0-11.19,0-22.38,0-33.57c0-3.59,0.04-3.62,3.61-3.62c3.36-0.01,6.72-0.01,10.08,0
	c2.96,0.01,3.13,0.17,3.14,3.13c0.01,15.26,0.01,30.53,0.01,45.79C996.46,669.18,996.46,670.45,996.46,671.73z"/>
<path d="M968.91,491.39c2.88,0,5.76-0.01,8.63,0c2.75,0.01,3.04,0.25,3.48,2.83c0.84,4.96,1.64,9.93,2.47,14.89
	c3.12,18.75,6.25,37.5,9.38,56.25c1.6,9.61,3.21,19.22,4.8,28.83c0.36,2.19,0.01,2.68-2.1,2.7c-4.24,0.05-8.47,0.05-12.71,0
	c-2.07-0.02-2.42-0.36-2.75-2.51c-1.13-7.5-2.23-15-3.34-22.51c-0.08-0.55-0.13-1.11-0.26-1.65c-0.23-0.96-0.84-1.54-1.86-1.54
	c-4-0.01-7.99-0.06-11.99,0.02c-1.5,0.03-1.89,0.62-2.15,2.62c-0.5,3.8-0.99,7.6-1.48,11.4c-0.5,3.88-0.98,7.76-1.5,11.64
	c-0.29,2.14-0.75,2.54-2.97,2.56c-3.84,0.03-7.68,0.02-11.51,0.01c-2.9-0.01-3.11-0.29-2.63-3.26c1.27-7.8,2.56-15.6,3.82-23.41
	c2.53-15.69,5.04-31.38,7.56-47.07c1.56-9.7,3.13-19.39,4.71-29.09c0.42-2.57,0.58-2.67,3.28-2.69
	C962.83,491.37,965.87,491.39,968.91,491.39z M974.24,552.99c-1.83-14.16-3.61-27.91-5.39-41.67c-0.13,0.01-0.25,0.01-0.38,0.02
	c-1.77,13.83-3.54,27.66-5.34,41.73C966.96,553.33,970.41,553.42,974.24,552.99z"/>
<path d="M1148.72,571.31c1.71-12.99,3.41-25.55,4.99-38.13c1.4-11.16,2.67-22.34,4.01-33.51c0.26-2.14,0.63-4.27,0.87-6.41
	c0.14-1.27,0.76-1.85,2.02-1.85c4.88,0.01,9.75,0.01,14.63,0.03c0.37,0,0.75,0.19,1.4,0.38c-0.11,1.05-0.17,2.06-0.34,3.05
	c-2.28,13.38-4.59,26.76-6.86,40.15c-2.99,17.56-5.95,35.12-8.94,52.68c-0.4,2.36-0.83,4.72-1.32,7.07
	c-0.38,1.85-0.67,2.12-2.57,2.14c-5.2,0.05-10.39,0.05-15.59,0c-2.07-0.02-2.53-0.43-2.95-2.69c-1.02-5.58-1.97-11.17-2.95-16.75
	c-1.97-11.25-3.94-22.5-5.91-33.75c-2.04-11.64-4.07-23.29-6.1-34.93c-0.81-4.64-1.62-9.28-2.44-13.92c-0.1-0.55-0.23-1.1-0.3-1.65
	c-0.14-1.08,0.34-1.71,1.43-1.75c1.44-0.06,2.88-0.05,4.32-0.05c3.28-0.01,6.56-0.03,9.83,0.01c2.1,0.03,2.3,0.15,2.61,2.27
	c0.66,4.42,1.22,8.85,1.81,13.28c0.89,6.8,1.76,13.61,2.65,20.42c1.05,7.99,2.11,15.98,3.15,23.98
	C1147.02,557.84,1147.83,564.33,1148.72,571.31z"/>
<path d="M980.04,437.68c2,0,4-0.02,5.99,0.01c2.44,0.04,2.69,0.3,2.73,2.81c0.03,2.16-0.17,4.33,0.07,6.47
	c0.21,1.87,0.65,3.79,1.42,5.49c1.31,2.88,3.95,3.9,6.95,3.66c3-0.24,5.22-2.01,5.91-4.86c1.63-6.71,1.96-13.43-1.42-19.83
	c-1.36-2.59-3.29-4.73-5.5-6.58c-3.79-3.18-7.71-6.21-11.5-9.38c-7.18-6.01-11.27-13.55-11.3-23.08c-0.01-4.55-0.11-9.1,0.99-13.58
	c1.72-6.98,5.32-12.51,12.24-15.23c4.46-1.75,9.18-2.05,13.93-1.44c3.1,0.4,6.13,1.05,8.93,2.56c5.04,2.72,7.49,7.28,8.86,12.53
	c1.2,4.6,1.3,9.32,1.11,14.04c-0.07,1.79-0.52,2.25-2.36,2.28c-4,0.06-7.99,0.06-11.99,0c-1.93-0.03-2.32-0.5-2.42-2.47
	c-0.16-2.86-0.29-5.73-0.47-8.59c-0.03-0.55-0.2-1.1-0.36-1.63c-0.88-2.9-2.3-4.02-5.13-4.05c-3.19-0.04-4.97,1-5.72,3.95
	c-1.24,4.87-1.39,9.81,0.42,14.61c0.89,2.35,2.48,4.29,4.41,5.89c2.46,2.03,5.01,3.95,7.54,5.9c4.25,3.27,8.38,6.65,11.63,10.99
	c3.65,4.88,5.49,10.41,5.92,16.44c0.19,2.62,0.51,5.26,0.42,7.88c-0.14,4.31-0.6,8.61-2.03,12.72c-3.14,9.06-9.46,14.02-19.01,15.23
	c-4.88,0.62-9.58,0.18-14.19-1.24c-6.6-2.03-10.89-6.51-12.88-13.09c-1.61-5.33-1.91-10.83-1.73-16.36
	c0.05-1.61,0.42-1.96,2.04-2.01c2.16-0.07,4.32-0.02,6.47-0.02C980.04,437.69,980.04,437.68,980.04,437.68z"/>
<path d="M1183.09,543.99c0-15.99,0-31.97,0-47.96c0-0.64-0.01-1.28,0.01-1.92c0.06-2.44,0.3-2.71,2.83-2.72
	c11.84-0.02,23.67-0.02,35.51,0c2.68,0,2.92,0.25,2.94,2.84c0.03,3.44,0.04,6.87-0.01,10.31c-0.03,2.24-0.44,2.66-2.71,2.67
	c-5.76,0.04-11.52,0.02-17.27,0.02c-0.72,0-1.44,0.01-2.16,0.02c-1.15,0.02-1.79,0.58-1.82,1.76c-0.01,0.56-0.03,1.12-0.03,1.68
	c0,6.47,0,12.95,0,19.42c0,0.64,0.01,1.28,0.05,1.92c0.06,0.95,0.61,1.44,1.55,1.49c0.64,0.03,1.28,0.05,1.92,0.05
	c5.52,0,11.04-0.01,16.55,0.01c2.67,0.01,2.92,0.26,2.95,2.84c0.03,3.2,0.02,6.39,0,9.59c-0.02,2.73-0.23,2.94-3.08,2.94
	c-5.44,0.02-10.88,0-16.31,0.01c-0.64,0-1.28,0.01-1.92,0.04c-1.05,0.04-1.62,0.58-1.67,1.64c-0.03,0.56-0.04,1.12-0.04,1.68
	c0,8.47,0,16.94,0,25.42c0,0.24,0,0.48,0,0.72c0.07,2.32,0.32,2.61,2.68,2.62c6.48,0.03,12.95,0.01,19.43,0.01
	c4.28,0,4.31,0.01,3.79,4.13c-0.39,3.09-0.8,6.18-1.31,9.25c-0.36,2.19-0.66,2.43-2.81,2.44c-12.16,0.03-24.31,0.03-36.47,0
	c-2.11-0.01-2.51-0.46-2.59-2.55c-0.05-1.52-0.02-3.04-0.02-4.56C1183.09,574.52,1183.09,559.26,1183.09,543.99z"/>
<path d="M1051.25,363.82c5.59,0,11.19,0,16.78,0c0.64,0,1.28,0.01,1.92,0.03c1.16,0.02,1.79,0.62,1.79,1.78
	c0.02,3.91,0.02,7.83,0.01,11.74c0,1.15-0.59,1.78-1.77,1.81c-0.64,0.02-1.28,0.03-1.92,0.03c-5.99,0-11.99-0.01-17.98,0.01
	c-2.48,0.01-2.75,0.28-2.76,2.76c-0.02,6.95-0.02,13.9,0,20.85c0.01,2.45,0.28,2.68,2.8,2.72c0.56,0.01,1.12,0,1.68,0
	c4.96,0,9.91,0,14.87,0c3.63,0,3.66,0.04,3.67,3.56c0.01,2.88,0,5.75,0,8.63c0,0.48,0.02,0.96-0.03,1.44
	c-0.14,1.65-0.54,2.06-2.22,2.19c-0.72,0.05-1.44,0.03-2.16,0.03c-5.35,0-10.71-0.02-16.06,0.02c-2.21,0.01-2.54,0.32-2.54,2.49
	c-0.03,9.03-0.03,18.05,0,27.08c0.01,2.19,0.33,2.5,2.52,2.51c6.79,0.03,13.59,0.01,20.38,0.02c3.53,0,3.69,0.23,3.17,3.72
	c-0.43,2.92-0.8,5.85-1.16,8.78c-0.31,2.5-0.96,3.15-3.5,3.31c-0.64,0.04-1.28,0.03-1.92,0.03c-10.47,0-20.94,0-31.41,0
	c-0.4,0-0.8,0.01-1.2-0.01c-3.28-0.09-3.72-0.52-3.72-3.78c-0.01-10.54,0-21.09,0-31.63c0-21.65,0-43.3,0-64.94
	c0-0.64,0-1.28,0-1.92c0.02-3.1,0.16-3.24,3.25-3.25C1039.58,363.81,1045.41,363.82,1051.25,363.82z"/>
<path d="M1153.8,671.64c0-16.3,0-32.6,0-48.91c0-3.76,0.01-3.77,3.7-3.77c11.19,0,22.39,0,33.58,0c3.47,0,3.54,0.07,3.55,3.44
	c0.01,3.2,0.02,6.39-0.01,9.59c-0.02,2.5-0.28,2.78-2.74,2.79c-5.84,0.03-11.67,0.01-17.51,0.01c-0.64,0-1.28,0.01-1.92,0.03
	c-1.16,0.03-1.77,0.61-1.8,1.78c-0.01,0.56-0.03,1.12-0.03,1.68c0,6.47,0,12.95,0,19.42c0,0.48-0.02,0.96,0.02,1.44
	c0.13,1.6,0.41,1.93,2.06,1.99c2,0.07,4,0.03,6,0.03c4.08,0,8.16-0.02,12.23,0.01c2.37,0.02,2.67,0.3,2.7,2.59
	c0.04,3.36,0.04,6.71,0,10.07c-0.02,2.43-0.3,2.7-2.83,2.71c-5.52,0.02-11.03,0.01-16.55,0.01c-0.64,0-1.28,0.01-1.92,0.04
	c-1.05,0.04-1.63,0.57-1.68,1.63c-0.03,0.56-0.04,1.12-0.04,1.68c0,8.63,0,17.26,0,25.89c0,0.4-0.01,0.8,0.01,1.2
	c0.12,1.73,0.41,2.08,2.19,2.11c2.88,0.06,5.76,0.02,8.63,0.02c4.32,0,8.64-0.02,12.95,0.01c2.39,0.02,2.62,0.34,2.31,2.68
	c-0.43,3.24-0.81,6.5-1.29,9.73c-0.41,2.76-0.64,2.95-3.33,2.95c-11.75,0.01-23.51,0.01-35.26,0c-0.4,0-0.8-0.01-1.2-0.03
	c-1.15-0.03-1.79-0.59-1.81-1.77c-0.02-0.8-0.03-1.6-0.03-2.4C1153.8,704.09,1153.8,687.87,1153.8,671.64z"/>
<path d="M962.88,416.53c0,16.22,0,32.44,0,48.65c0,3.76-0.36,4.13-4.05,4.17c-2.96,0.03-5.91,0.02-8.87,0
	c-0.71-0.01-1.44-0.08-2.14-0.2c-1.07-0.19-1.7-0.83-1.72-1.97c-0.01-0.64-0.03-1.28-0.03-1.92c0-32.6,0-65.19,0-97.79
	c0-0.4-0.01-0.8,0.01-1.2c0.09-2.06,0.37-2.42,2.37-2.44c4.08-0.04,8.15-0.05,12.23,0.01c1.77,0.02,2.08,0.39,2.2,2.11
	c0.05,0.72,0.02,1.44,0.02,2.16C962.88,384.25,962.88,400.39,962.88,416.53z"/>
<path d="M764.76,725.94c-4.47,0-8.94,0.02-13.41-0.01c-2.67-0.01-2.95-0.26-2.95-2.82c-0.02-8.78-0.02-17.56,0-26.34
	c0.01-2.58,0.38-2.98,2.88-2.98c9.02-0.03,18.04-0.02,27.07,0c2.34,0.01,2.65,0.31,2.66,2.63c0.02,8.94,0.02,17.88,0,26.81
	c-0.01,2.43-0.3,2.68-2.83,2.7C773.7,725.96,769.23,725.94,764.76,725.94z"/>
<path d="M764.73,653.48c4.48,0,8.95-0.02,13.43,0.01c2.61,0.01,2.85,0.25,2.85,2.93c0.02,8.71,0.02,17.42,0,26.12
	c-0.01,2.71-0.36,3.08-3.03,3.09c-8.87,0.02-17.74,0.02-26.62,0c-2.57-0.01-2.96-0.38-2.97-2.91c-0.03-8.87-0.03-17.73,0-26.6
	c0.01-2.31,0.32-2.61,2.66-2.63C755.62,653.46,760.17,653.48,764.73,653.48z"/>
<path d="M821.33,709.77c0,4.47,0.02,8.95-0.01,13.42c-0.02,2.45-0.3,2.74-2.79,2.74c-8.87,0.02-17.75,0.02-26.62,0
	c-2.45-0.01-2.74-0.3-2.74-2.79c-0.02-8.87-0.02-17.74,0-26.61c0.01-2.46,0.3-2.74,2.79-2.74c8.87-0.02,17.75-0.02,26.62,0
	c2.45,0.01,2.73,0.3,2.75,2.79C821.35,700.98,821.33,705.37,821.33,709.77z"/>
<path d="M805.48,653.48c4.39,0,8.79-0.02,13.18,0.01c2.35,0.02,2.65,0.31,2.66,2.62c0.03,8.94,0.02,17.88,0,26.83
	c-0.01,2.36-0.31,2.68-2.6,2.69c-8.95,0.03-17.89,0.03-26.84,0c-2.27-0.01-2.7-0.43-2.71-2.67c-0.03-9.02-0.03-18.04,0-27.06
	c0.01-2.02,0.37-2.37,2.4-2.39C796.21,653.46,800.85,653.49,805.48,653.48z"/>
<path d="M1079.58,783.17c-2.25,9.56-4.49,19.12-6.74,28.69c-0.09,0.39-0.18,0.78-0.29,1.16c-0.64,2.39-2.08,3.18-4.46,2.5
	c-1.03-0.29-1.31-1.11-1.51-1.97c-0.51-2.18-1.02-4.36-1.48-6.54c-1.51-7.19-3-14.39-4.5-21.58c-0.1-0.46-0.25-0.91-0.67-1.39
	c-0.05,0.64-0.13,1.27-0.13,1.91c-0.01,8.39,0,16.78,0,25.17c0,0.64,0.01,1.28-0.01,1.92c-0.07,2.28-1.85,3.4-3.88,2.35
	c-0.41-0.21-0.73-0.82-0.86-1.3c-0.16-0.6-0.09-1.27-0.09-1.91c0-11.58-0.01-23.17,0-34.75c0-3.53,0.05-3.57,3.66-3.57
	c3.9-0.01,3.97-0.02,4.81,3.67c1.85,8.1,3.63,16.21,5.44,24.32c0.21,0.93,0.4,1.85,0.72,3.32c0.36-0.91,0.6-1.34,0.71-1.8
	c2.15-8.93,4.26-17.87,6.42-26.8c0.62-2.55,0.82-2.67,3.41-2.71c4.6-0.08,4.6-0.08,4.6,4.54c0,11.02,0,22.05,0,33.07
	c0,0.64,0.02,1.28-0.01,1.92c-0.1,1.84-0.49,2.2-2.35,2.22c-1.96,0.02-2.38-0.37-2.47-2.34c-0.03-0.64-0.01-1.28-0.01-1.92
	c0-8.63,0-17.26,0.01-25.88c0-0.79,0-1.58,0-2.37C1079.8,783.12,1079.69,783.14,1079.58,783.17z"/>
<path d="M728.73,783.98c0,0.77,0,1.54,0,2.32c0,8.38,0,16.77,0,25.15c0,0.56,0.01,1.12-0.01,1.68c-0.08,2.21-2.04,3.33-3.96,2.22
	c-0.36-0.21-0.67-0.71-0.75-1.12c-0.14-0.69-0.11-1.43-0.11-2.15c0-11.58-0.01-23.16,0-34.73c0-3.39,0.15-3.52,3.49-3.49
	c2.7,0.02,2.88,0.13,3.88,2.62c3.48,8.67,6.95,17.34,10.42,26.01c0.29,0.72,0.63,1.42,1.36,2.09c0-0.75,0.02-1.5,0-2.25
	c-0.14-4.22-0.35-8.44-0.42-12.67c-0.07-4.39-0.05-8.78,0.02-13.17c0.01-0.79,0.34-2.14,0.79-2.26c1.16-0.31,2.48-0.16,3.71-0.02
	c0.27,0.03,0.58,0.73,0.66,1.15c0.12,0.7,0.09,1.43,0.09,2.15c0,11.5,0.01,23,0,34.49c0,3.52-0.17,3.59-3.61,3.64
	c-1.91,0.03-2.88-0.76-3.55-2.49c-3.48-9.01-7.04-17.99-10.58-26.98c-0.31-0.78-0.68-1.53-1.02-2.3
	C729,783.91,728.87,783.94,728.73,783.98z"/>
<path d="M950.94,792.55c0.96,0.7,1.41,1,1.84,1.34c1.55,1.2,2.81,2.67,3.29,4.59c1.08,4.32,1.06,8.57-1.49,12.44
	c-1.99,3.02-5.05,4.4-8.54,4.62c-3.26,0.21-6.55,0.1-9.82,0.05c-1.74-0.03-2.07-0.41-2.16-2.14c-0.06-1.27-0.02-2.55-0.02-3.83
	c0-10.37,0-20.75,0-31.12c0-0.64-0.01-1.28,0-1.92c0.06-2.44,0.3-2.69,2.82-2.71c3.19-0.03,6.39-0.05,9.58,0.01
	c4.96,0.09,8.61,3.72,8.74,8.63c0.03,0.96,0,1.92,0.01,2.87c0.02,2.53-0.78,4.71-2.77,6.35
	C952.06,792.02,951.59,792.19,950.94,792.55z M939.36,803.36C939.36,803.36,939.37,803.36,939.36,803.36
	c0.01,1.99-0.05,3.99,0.03,5.98c0.06,1.47,0.42,1.81,1.89,1.89c1.27,0.07,2.56,0.09,3.82-0.05c3.17-0.35,5.44-2.26,5.95-5.34
	c0.3-1.85,0.27-3.84-0.08-5.68c-0.55-2.88-2.67-4.48-5.61-4.66c-1.27-0.08-2.55-0.07-3.83-0.01c-1.75,0.08-2.11,0.41-2.16,2.13
	C939.31,799.53,939.36,801.45,939.36,803.36z M939.38,784.33C939.37,784.33,939.37,784.33,939.38,784.33
	c-0.01,1.44-0.06,2.88,0.01,4.31c0.07,1.53,0.39,1.9,1.82,1.97c1.43,0.08,2.89,0.12,4.3-0.06c1.81-0.23,3.39-1.02,4.11-2.86
	c0.74-1.91,0.93-3.85,0.22-5.85c-0.74-2.09-2.2-3.33-4.38-3.56c-1.42-0.15-2.87-0.07-4.31-0.06c-1.17,0.01-1.76,0.64-1.77,1.79
	C939.36,781.46,939.38,782.9,939.38,784.33z"/>
<path d="M682.81,487.2c-0.14,0.82-0.18,1.26-0.3,1.67c-1.87,6.45-1.99,12.96-0.13,19.37c1.04,3.59,2.65,7.01,4.11,10.47
	c2.65,6.25,5.41,12.48,6.46,19.25c1.21,7.73-0.79,14.55-6.12,20.34c-0.15,0.16-0.41,0.22-0.86,0.44c-0.12-0.58-0.32-1.06-0.31-1.54
	c0.02-0.63,0.19-1.26,0.3-1.89c1.25-6.86-0.31-13.35-2.82-19.64c-2.31-5.78-5.05-11.39-7.28-17.2c-2.21-5.74-3.22-11.68-1.44-17.82
	c1.39-4.79,4.02-8.83,7.11-12.64C681.76,487.75,682.15,487.62,682.81,487.2z"/>
<path d="M673.84,524.54c-0.15,1.04-0.15,1.59-0.3,2.09c-2.38,7.75-1.54,15.3,1.41,22.7c2.22,5.56,4.59,11.05,6.81,16.61
	c1.61,4.03,2.56,8.27,2.74,12.58c0.23,5.51-1.3,10.58-4.86,14.91c-0.77,0.94-1.28,2.19-2.81,2.78c0-0.68-0.07-1.14,0.01-1.56
	c1.62-8.65-0.1-16.79-3.59-24.7c-2.38-5.4-4.8-10.79-6.82-16.33c-2.08-5.69-2.28-11.56-0.24-17.37c1.42-4.04,3.71-7.59,6.39-10.89
	C672.75,525.13,673.08,525.02,673.84,524.54z"/>
<path d="M1220.8,794.19c3.62,2.76,4.11,6.38,4.08,10.27c-0.02,2.78,0.21,5.57,0.38,8.35c0.13,2-0.19,2.59-1.71,2.77
	c-2.33,0.28-3.34-0.19-3.51-2.09c-0.29-3.25-0.29-6.52-0.52-9.78c-0.1-1.42-0.3-2.86-0.7-4.21c-0.48-1.61-1.75-2.46-3.42-2.55
	c-1.43-0.08-2.88-0.08-4.31-0.05c-2.21,0.05-2.52,0.32-2.54,2.5c-0.04,4.07-0.01,8.14-0.02,12.22c0,0.64,0.03,1.28-0.02,1.92
	c-0.13,1.74-0.5,2.03-2.5,2.07c-2.16,0.03-2.61-0.3-2.76-2.05c-0.04-0.48-0.02-0.96-0.02-1.44c0-11.58,0-23.16,0-34.74
	c0-3.45,0.08-3.53,3.45-3.54c3.04-0.01,6.07-0.02,9.11,0.01c5.06,0.06,8.44,2.69,9.29,7.6c0.36,2.09,0.24,4.3,0.01,6.43
	c-0.2,1.84-1.1,3.5-2.51,4.79C1222.06,793.16,1221.5,793.6,1220.8,794.19z M1208.55,785.05c0,1.67-0.05,3.34,0.02,5.01
	c0.07,1.61,0.39,1.91,2.02,2c1.19,0.06,2.39,0.06,3.58-0.01c2.85-0.17,4.57-1.51,5.43-4.22c0.59-1.87,0.61-3.76,0.06-5.64
	c-0.7-2.43-2.26-3.73-4.81-3.93c-1.42-0.11-2.86-0.09-4.29-0.02c-1.6,0.08-1.92,0.41-1.99,2.04
	C1208.5,781.87,1208.55,783.46,1208.55,785.05z"/>
<path d="M829.48,794.45c3.34,2.48,3.74,6.18,3.85,10.01c0.08,3.11,0.19,6.22,0.34,9.32c0.05,1.07-0.33,1.71-1.42,1.78
	c-0.72,0.05-1.44,0.03-2.15,0.01c-0.93-0.03-1.49-0.56-1.66-1.44c-0.18-0.94-0.35-1.89-0.38-2.84c-0.06-2.32,0.04-4.64-0.05-6.95
	c-0.06-1.34-0.23-2.72-0.59-4.01c-0.65-2.33-2.14-3.36-4.57-3.43c-0.8-0.02-1.6-0.01-2.4-0.01c-3.32,0.02-3.41,0.1-3.42,3.32
	c-0.01,3.76,0,7.51,0,11.27c0,0.56,0.01,1.12-0.01,1.68c-0.03,0.87,0.1,2.03-0.96,2.2c-1.21,0.19-2.5-0.01-3.72-0.2
	c-0.25-0.04-0.47-0.78-0.54-1.23c-0.1-0.62-0.06-1.27-0.06-1.91c0-11.5,0-23.01,0-34.51c0-0.24,0-0.48,0-0.72
	c0.05-2.68,0.25-2.91,2.85-2.93c3.12-0.03,6.23,0,9.35,0c5.49,0,9.48,3.36,9.85,9.55c0.24,4.06-0.55,7.82-4.08,10.46
	C829.58,793.94,829.58,794.15,829.48,794.45z M821.06,778.2c-0.4,0-0.8-0.01-1.19,0c-2.62,0.05-2.83,0.24-2.85,2.91
	c-0.02,2.15-0.01,4.3-0.01,6.45c0,4.66,0,4.66,4.58,4.52c4.42-0.13,6.68-2.19,6.84-6.59c0.15-4.16-1.66-7.66-6.65-7.28
	C821.54,778.22,821.3,778.2,821.06,778.2z"/>
<path d="M762.33,773.85c1.2,0,2.39,0.01,3.59,0c5.11-0.04,8.66,2.39,10.73,6.97c1.23,2.7,1.83,5.56,2.01,8.56
	c0.27,4.47,0.2,8.9-0.59,13.31c-0.24,1.33-0.61,2.64-1.03,3.93c-1.8,5.52-6.14,8.78-11.98,8.97c-2.47,0.08-4.95,0.05-7.42,0.01
	c-2.19-0.04-2.51-0.34-2.53-2.51c-0.04-3.59-0.02-7.18-0.02-10.77c0-8.14,0-16.28,0-24.42c0-0.64-0.02-1.28,0.02-1.91
	c0.12-1.72,0.43-2.06,2.19-2.12C758.97,773.81,760.65,773.86,762.33,773.85C762.33,773.86,762.33,773.85,762.33,773.85z
	 M760.4,794.5c0,4.79-0.03,9.58,0.01,14.37c0.02,2.04,0.42,2.47,2.4,2.35c4.98-0.3,7.79-1.61,9.31-6.65c0.3-0.99,0.65-2,0.71-3.02
	c0.22-3.58,0.45-7.16,0.44-10.74c0-1.89-0.31-3.83-0.8-5.66c-1.35-5.1-4.11-7.06-9.43-6.94c-2.35,0.05-2.63,0.29-2.65,2.63
	C760.37,785.4,760.39,789.95,760.4,794.5z"/>
<path d="M839.54,794.74c0-5.99-0.02-11.98,0.01-17.98c0.01-2.68,0.23-2.89,2.86-2.91c2.64-0.02,5.28,0.01,7.91-0.01
	c5.23-0.04,8.86,2.44,10.83,7.18c0.85,2.04,1.58,4.26,1.72,6.44c0.32,5.17,0.7,10.38-0.42,15.51c-0.39,1.78-1,3.53-1.7,5.22
	c-2.1,5-6.18,7.11-11.36,7.38c-2.39,0.13-4.8,0.05-7.19,0.02c-2.34-0.03-2.64-0.3-2.65-2.64
	C839.52,806.89,839.54,800.82,839.54,794.74z M844.84,794.84c0,4.55-0.02,9.1,0.01,13.65c0.01,2.51,0.47,2.9,2.99,2.73
	c4.99-0.34,7.29-2.15,8.83-6.98c0.27-0.83,0.55-1.69,0.6-2.56c0.21-3.66,0.46-7.32,0.45-10.98c0-1.89-0.33-3.83-0.83-5.66
	c-1.36-5-4.04-6.91-9.26-6.84c-2.49,0.03-2.77,0.27-2.79,2.74C844.82,785.58,844.84,790.21,844.84,794.84z"/>
<path d="M973.5,816.11c-5.2,0.1-8.64-2.17-10.48-6.57c-0.91-2.18-1.46-4.57-1.8-6.91c-0.95-6.59-0.96-13.19,0.7-19.7
	c0.64-2.51,1.83-4.67,3.52-6.7c4.18-5.02,14.95-4.31,17.87,3.05c0.44,1.11,0.92,2.23,1.16,3.39c1.04,5.01,1.75,10.04,1.05,15.18
	c-0.29,2.13-0.25,4.31-0.65,6.42c-0.37,1.94-0.92,3.91-1.77,5.69C981.14,814.06,977.86,816.28,973.5,816.11z M980.35,794.44
	c-0.08-0.01-0.15-0.01-0.23-0.02c0-1.75,0.08-3.51-0.02-5.26c-0.17-3.04-0.67-6.03-2.23-8.72c-1.99-3.41-6.85-3.7-8.95-0.38
	c-1.04,1.64-1.7,3.61-2.12,5.52c-1.05,4.79-0.69,9.69-0.43,14.53c0.17,3.06,0.64,6.2,2.48,8.88c2.37,3.44,6.75,3.44,8.82-0.17
	c0.89-1.56,1.56-3.36,1.84-5.12C979.99,800.64,980.09,797.52,980.35,794.44z"/>
<path d="M903.54,815.11c0.21-1.26,0.34-2.44,0.61-3.58c2.77-11.48,5.56-22.95,8.35-34.42c0.11-0.47,0.26-0.92,0.36-1.39
	c0.26-1.31,1.08-1.85,2.38-1.86c5.4-0.05,4.6-0.22,5.68,4.03c2.89,11.45,5.74,22.91,8.59,34.37c0.23,0.9,0.35,1.83,0.52,2.74
	c-1.53,0.93-2.97,0.63-4.36,0.49c-1.09-0.11-1.27-1.1-1.47-1.95c-0.58-2.49-1.13-4.98-1.7-7.47c-0.14-0.62-0.29-1.24-0.45-1.86
	c-0.24-0.99-0.91-1.49-1.9-1.51c-2.31-0.03-4.63-0.02-6.94-0.02c-1.38,0-1.95,0.86-2.22,2.07c-0.56,2.49-1.17,4.97-1.73,7.46
	C908.48,815.8,907.71,816.24,903.54,815.11z M920.52,797.65c-1.33-5.68-2.55-10.92-3.9-16.68c-1.52,4.19-3.66,14.95-3.36,16.68
	C915.49,797.65,917.75,797.65,920.52,797.65z"/>
<path d="M693.47,815.28c0.19-1.23,0.28-2.26,0.52-3.25c2.81-11.65,5.65-23.29,8.47-34.93c0.09-0.39,0.2-0.77,0.3-1.16
	c0.04-0.15,0.09-0.31,0.13-0.46c0.53-1.93,2.13-1.65,3.53-1.62c1.43,0.04,3.18-0.53,3.81,1.54c0.19,0.61,0.34,1.23,0.49,1.85
	c2.91,11.62,5.82,23.25,8.72,34.87c0.81,3.25,0.3,3.78-3.07,3.48c-1.37-0.12-1.95-0.85-2.22-2.07c-0.6-2.73-1.23-5.45-1.84-8.18
	c-0.56-2.5-0.74-2.67-3.37-2.69c-1.68-0.02-3.36-0.03-5.04,0.01c-2.18,0.04-2.47,0.24-2.99,2.31c-0.63,2.48-1.26,4.96-1.73,7.47
	c-0.51,2.71-0.58,3.31-4.21,3.14C694.61,815.57,694.23,815.44,693.47,815.28z M706.26,781.12c-0.38,1.7-0.75,3.4-1.13,5.11
	c-0.69,3.11-1.42,6.21-2.07,9.33c-0.31,1.48-0.05,2.09,1.07,2.17c1.96,0.16,3.95,0.36,6.2-0.31
	C709.3,791.88,707.8,786.54,706.26,781.12z"/>
<path d="M807.67,815.05c-1.49,0.83-2.85,0.6-4.18,0.43c-1.06-0.14-1.31-1.05-1.52-1.92c-0.59-2.48-1.17-4.97-1.76-7.46
	c-0.13-0.54-0.3-1.08-0.41-1.62c-0.25-1.19-0.97-1.78-2.19-1.79c-2.16,0-4.31,0.01-6.47-0.02c-1.35-0.02-2.04,0.68-2.33,1.93
	c-0.59,2.57-1.18,5.13-1.81,7.69c-0.87,3.54-1.75,3.99-5.71,2.82c0.07-0.63,0.07-1.33,0.23-1.98c3-12.42,6.01-24.83,9.04-37.24
	c0.42-1.71,0.69-1.98,2.44-2.02c5.17-0.09,4.64-0.24,5.7,4.04c2.87,11.54,5.71,23.1,8.55,34.65
	C807.44,813.38,807.53,814.23,807.67,815.05z M798.2,797.64c-1.33-5.84-2.57-11.22-3.88-16.96c-2,6.45-3.71,14.93-3.41,16.96
	C793.15,797.64,795.41,797.64,798.2,797.64z"/>
<path d="M1142.07,815.31c-0.93,0.14-1.47,0.27-2.01,0.29c-3.22,0.14-3.41-0.04-4.12-3.24c-0.55-2.5-1.12-4.99-1.74-7.47
	c-0.48-1.92-0.82-2.17-2.82-2.22c-1.84-0.04-3.68-0.04-5.52,0c-2.16,0.05-2.46,0.28-2.95,2.35c-0.68,2.88-1.25,5.78-1.97,8.65
	c-0.43,1.71-0.73,1.87-2.52,1.94c-2.74,0.11-3.12-0.34-2.49-3c2.81-11.73,5.63-23.46,8.45-35.2c0.13-0.54,0.26-1.09,0.41-1.63
	c0.08-0.31,0.14-0.65,0.31-0.9c1.21-1.78,3.06-0.82,4.62-1c1.08-0.13,2.1,0.14,2.46,1.41c0.15,0.54,0.31,1.08,0.44,1.62
	c2.97,11.86,5.93,23.72,8.89,35.59C1141.73,813.33,1141.86,814.18,1142.07,815.31z M1132.45,797.62c-1.28-5.6-2.49-10.9-3.7-16.2
	c-0.17,0-0.35,0-0.52,0c-1.14,5.31-2.52,10.56-3.46,16.2C1127.38,797.62,1129.64,797.62,1132.45,797.62z"/>
<path d="M1156.12,816.11c-6.14,0.26-10.34-3.8-11.11-9.75c-0.23-1.82-0.01-2.2,1.75-2.26c2.39-0.08,3.12-0.1,3.77,2.55
	c1.24,5.11,6.31,6.03,9.34,4.24c2.61-1.55,3.01-4.07,2.87-6.64c-0.16-2.74-1.42-5.07-3.89-6.53c-1.51-0.89-3.11-1.63-4.61-2.54
	c-1.7-1.04-3.51-1.99-4.96-3.32c-4.43-4.08-4.64-13.52,1.42-17.18c3.65-2.21,10.07-2.37,13.67,1.05c1.9,1.81,2.79,4.24,2.87,6.9
	c0.03,1.02-0.46,1.6-1.53,1.77c-2.39,0.37-3.19-0.15-3.92-2.55c-1.21-3.96-3.75-4.62-7.01-3.9c-0.78,0.17-1.6,0.79-2.12,1.43
	c-1.86,2.31-1.67,6.24,0.46,8.36c1.05,1.05,2.35,1.89,3.62,2.68c2.03,1.26,4.2,2.31,6.19,3.62c6.06,4.02,6.53,12.23,3.45,17.3
	C1164.18,814.97,1160.63,816.19,1156.12,816.11z"/>
<path d="M866.87,804.28c0.87-0.07,1.65-0.19,2.42-0.19c2.11,0.01,2.39,0.23,2.92,2.35c0.51,2.03,1.43,3.74,3.45,4.6
	c2.18,0.93,4.39,1.09,6.38-0.39c2.23-1.65,2.73-4.11,2.46-6.65c-0.26-2.46-1.39-4.62-3.55-6c-1.61-1.03-3.37-1.82-5-2.82
	c-1.55-0.96-3.11-1.95-4.52-3.11c-4.39-3.59-4.18-9.24-2.7-13.17c0.67-1.78,1.94-3.12,3.55-4.09c3.36-2.02,6.96-2.21,10.61-1.03
	c3.92,1.27,5.53,4.36,6.03,8.18c0.2,1.56-0.21,2.14-1.32,2.41c-1.76,0.41-3.22-0.07-3.73-1.28c-0.27-0.66-0.38-1.39-0.64-2.06
	c-1.03-2.68-3-3.71-6.16-3.24c-2.18,0.32-3.59,1.99-3.9,4.53c-0.43,3.59,1.36,5.94,4.29,7.61c2.08,1.19,4.26,2.2,6.31,3.44
	c6.29,3.8,8.1,12.32,4.07,18.45c-1.63,2.48-4.06,3.64-6.77,4.09c-1.93,0.32-4.01,0.23-5.95-0.1c-4.37-0.74-7.4-3.96-8.17-8.31
	c-0.13-0.71-0.2-1.42-0.27-2.14C866.67,805.13,866.76,804.9,866.87,804.28z"/>
<path d="M1018.5,794.63c0-5.43,0-10.87,0-16.3c0-0.56-0.01-1.12,0-1.68c0.05-2.5,0.29-2.78,2.74-2.8c3.36-0.03,6.72-0.01,10.07-0.01
	c1.52,0,3.04-0.03,4.56,0.02c1.79,0.06,2.15,0.37,2.29,1.77c0.17,1.71-0.25,2.42-1.88,2.76c-1.01,0.21-2.06,0.25-3.09,0.27
	c-2.48,0.04-4.96-0.03-7.43,0.05c-1.48,0.05-1.88,0.43-1.91,1.88c-0.07,2.87-0.08,5.75,0,8.63c0.04,1.51,0.45,1.84,2.16,1.88
	c2.88,0.06,5.76,0,8.63,0.04c2.26,0.03,2.71,0.53,2.6,2.68c-0.08,1.67-0.42,2.05-2.22,2.1c-2.48,0.06-4.96,0.02-7.43,0.03
	c-0.64,0-1.28,0.01-1.92,0.02c-1.14,0.02-1.83,0.55-1.83,1.74c-0.02,3.76-0.06,7.51,0.01,11.26c0.03,1.42,0.44,1.74,1.99,1.8
	c1.84,0.07,3.68,0.03,5.52,0.03c1.6,0,3.2-0.03,4.8,0.01c2.07,0.05,2.48,0.4,2.5,2.03c0.02,1.9-0.63,2.72-2.49,2.74
	c-5.12,0.06-10.23,0.05-15.35,0.01c-1.96-0.02-2.28-0.39-2.3-2.5c-0.04-3.83-0.01-7.67-0.02-11.51
	C1018.5,799.27,1018.5,796.95,1018.5,794.63z"/>
<path d="M1092.39,794.68c0-5.99-0.02-11.98,0.01-17.97c0.01-2.61,0.26-2.85,2.92-2.86c4.79-0.02,9.59-0.03,14.38,0.01
	c2,0.02,2.54,0.73,2.37,2.66c-0.09,1.03-0.6,1.64-1.59,1.8c-0.94,0.16-1.89,0.31-2.84,0.33c-2.48,0.05-4.95-0.01-7.43,0.03
	c-2.16,0.04-2.46,0.34-2.5,2.55c-0.04,2.4-0.04,4.79,0,7.19c0.03,2.43,0.28,2.67,2.83,2.69c2.72,0.03,5.43-0.02,8.15,0.02
	c2.09,0.04,2.52,0.54,2.45,2.59c-0.06,1.72-0.39,2.13-2.13,2.18c-2.8,0.07-5.59,0.01-8.39,0.04c-2.67,0.03-2.89,0.24-2.91,2.86
	c-0.02,3.19-0.04,6.39,0.01,9.58c0.03,2.02,0.37,2.36,2.41,2.39c3.28,0.05,6.55,0,9.83,0.03c2.13,0.02,2.59,0.4,2.59,1.93
	c0,1.98-0.73,2.83-2.68,2.85c-5.03,0.04-10.07,0.04-15.1,0c-1.99-0.02-2.32-0.38-2.34-2.46
	C1092.37,806.98,1092.39,800.83,1092.39,794.68z"/>
<path d="M1001.13,807.72c0.34-1.46,0.61-2.68,0.9-3.89c2.21-9.16,4.42-18.31,6.63-27.47c0.55-2.27,0.89-2.54,3.31-2.51
	c0.76,0.01,1.52,0.16,2.55,0.27c-0.21,1.18-0.31,2.12-0.54,3.01c-3.1,11.98-6.22,23.95-9.34,35.92c-0.61,2.35-0.84,2.51-3.3,2.54
	c-0.64,0.01-1.28-0.01-1.92-0.04c-0.91-0.04-1.49-0.53-1.74-1.39c-0.25-0.84-0.47-1.69-0.68-2.54c-2.85-11.55-5.7-23.09-8.55-34.64
	c-0.72-2.93-0.51-3.2,2.45-3.15c2.23,0.04,2.35,0.1,2.88,2.34C996.22,786.59,998.63,797,1001.13,807.72z"/>
<path d="M682.15,797.17c0-5.11,0.01-10.21,0-15.32c-0.01-2.99-0.17-3.12-3.08-3.18c-1.51-0.03-3.04-0.02-4.53-0.27
	c-1.77-0.3-2.55-2.04-1.74-3.63c0.16-0.32,0.52-0.61,0.85-0.75c0.35-0.15,0.78-0.15,1.18-0.16c6.47-0.01,12.93-0.03,19.4,0.01
	c1.97,0.01,2.52,0.76,2.32,2.7c-0.1,0.9-0.48,1.56-1.39,1.7c-1.25,0.2-2.52,0.37-3.79,0.39c-3.91,0.07-3.91,0.04-3.92,4.04
	c0,9.33,0,18.67,0,28c0,0.64,0.01,1.28,0,1.91c-0.06,2.66-1.51,3.72-4.06,2.85c-0.48-0.17-0.94-0.8-1.13-1.32
	c-0.21-0.57-0.1-1.26-0.1-1.9C682.15,807.22,682.15,802.19,682.15,797.17z"/>
<path class="st0" d="M1021.41,565.4c0-4.87-0.02-9.73,0.01-14.6c0.01-2.5,0.28-2.75,2.73-2.79c1.44-0.02,2.87-0.04,4.31,0.01
	c4.43,0.16,7.4,2.46,8.48,6.74c0.43,1.69,0.67,3.45,0.72,5.19c0.11,3.75,0.05,7.5,0.03,11.25c-0.02,2.5-0.47,4.92-1.53,7.2
	c-0.89,1.91-2.34,3.18-4.39,3.78c-2.8,0.82-5.66,0.9-8.54,0.79c-1.16-0.04-1.77-0.61-1.79-1.77c-0.01-0.64-0.03-1.28-0.03-1.91
	C1021.41,574.65,1021.41,570.03,1021.41,565.4z"/>
<path class="st0" d="M1021.41,519.71c0-3.91-0.03-7.82,0.01-11.72c0.02-2.35,0.29-2.64,2.62-2.64c1.75,0,3.51,0.06,5.24,0.3
	c4.18,0.59,6.23,3.45,6.89,7.2c0.79,4.52,0.63,9.05-0.07,13.56c-0.68,4.4-2.67,6.44-7.06,7.22c-1.71,0.3-3.48,0.4-5.23,0.41
	c-2.04,0.02-2.37-0.33-2.39-2.37C1021.38,527.69,1021.41,523.7,1021.41,519.71z"/>
<path class="st0" d="M1097.68,544.22c0,9.27,0.05,18.54-0.04,27.81c-0.02,1.89-0.35,3.82-0.87,5.64c-0.95,3.31-3.74,5.26-7.16,5.32
	c-4.09,0.07-6.7-1.43-7.83-4.98c-0.72-2.25-1.28-4.67-1.29-7.02c-0.1-17.9-0.11-35.8,0-53.7c0.02-2.42,0.61-4.92,1.39-7.24
	c1.18-3.51,3.58-4.81,7.7-4.73c3.67,0.08,5.99,1.58,7.07,4.99c0.59,1.88,0.97,3.9,0.99,5.86
	C1097.73,525.52,1097.68,534.87,1097.68,544.22z"/>
<path class="st0" d="M1042.02,671.79c0,9.43,0.04,18.86-0.04,28.28c-0.02,1.81-0.3,3.67-0.81,5.41c-1.01,3.43-3.44,5.07-7.2,5.21
	c-3.79,0.13-6.29-1.32-7.69-4.54c-1.1-2.53-1.47-5.25-1.48-7.96c-0.06-17.66-0.07-35.31,0.02-52.97c0.01-2.28,0.51-4.62,1.15-6.82
	c1.01-3.45,4.02-5.48,7.6-5.49c3.68-0.01,6.46,1.89,7.58,5.45c0.5,1.57,0.81,3.27,0.82,4.91
	C1042.06,652.77,1042.02,662.28,1042.02,671.79z"/>
<path class="st0" d="M974.24,552.99c-3.83,0.44-7.28,0.34-11.11,0.08c1.8-14.07,3.57-27.9,5.34-41.73c0.13-0.01,0.25-0.01,0.38-0.02
	C970.63,525.07,972.41,538.83,974.24,552.99z"/>
<path class="st0" d="M939.36,803.36c0-1.91-0.05-3.83,0.01-5.74c0.06-1.73,0.41-2.06,2.16-2.13c1.27-0.05,2.56-0.06,3.83,0.01
	c2.93,0.17,5.06,1.78,5.61,4.66c0.35,1.84,0.38,3.83,0.08,5.68c-0.5,3.08-2.78,4.99-5.95,5.34c-1.26,0.14-2.55,0.12-3.82,0.05
	c-1.47-0.08-1.84-0.42-1.89-1.89C939.31,807.35,939.37,805.35,939.36,803.36C939.37,803.36,939.36,803.36,939.36,803.36z"/>
<path class="st0" d="M939.38,784.33c0-1.44-0.01-2.87,0-4.31c0.01-1.15,0.61-1.79,1.77-1.79c1.44-0.01,2.89-0.09,4.31,0.06
	c2.18,0.23,3.63,1.46,4.38,3.56c0.71,1.99,0.52,3.94-0.22,5.85c-0.72,1.85-2.3,2.63-4.11,2.86c-1.42,0.18-2.87,0.14-4.3,0.06
	c-1.43-0.08-1.75-0.44-1.82-1.97C939.31,787.21,939.37,785.77,939.38,784.33C939.37,784.33,939.37,784.33,939.38,784.33z"/>
<path class="st0" d="M1208.55,785.05c0-1.59-0.05-3.18,0.01-4.77c0.07-1.63,0.39-1.96,1.99-2.04c1.43-0.07,2.87-0.09,4.29,0.02
	c2.55,0.2,4.11,1.5,4.81,3.93c0.55,1.88,0.53,3.77-0.06,5.64c-0.86,2.71-2.58,4.05-5.43,4.22c-1.19,0.07-2.39,0.07-3.58,0.01
	c-1.63-0.08-1.96-0.38-2.02-2C1208.5,788.39,1208.55,786.72,1208.55,785.05z"/>
<path class="st0" d="M821.06,778.2c0.24,0,0.48,0.02,0.72,0c5-0.37,6.8,3.12,6.65,7.28c-0.16,4.4-2.42,6.46-6.84,6.59
	c-4.58,0.14-4.58,0.14-4.58-4.52c0-2.15-0.02-4.3,0.01-6.45c0.03-2.66,0.23-2.86,2.85-2.91C820.26,778.2,820.66,778.2,821.06,778.2z
	"/>
<path class="st0" d="M760.4,794.5c0-4.55-0.02-9.1,0.01-13.65c0.02-2.35,0.3-2.58,2.65-2.63c5.31-0.12,8.07,1.84,9.43,6.94
	c0.49,1.83,0.8,3.77,0.8,5.66c0.01,3.58-0.22,7.17-0.44,10.74c-0.06,1.02-0.42,2.03-0.71,3.02c-1.52,5.04-4.33,6.36-9.31,6.65
	c-1.98,0.12-2.38-0.31-2.4-2.35C760.37,804.08,760.4,799.29,760.4,794.5z"/>
<path class="st0" d="M844.84,794.84c0-4.63-0.02-9.26,0.01-13.89c0.01-2.47,0.3-2.7,2.79-2.74c5.22-0.07,7.9,1.84,9.26,6.84
	c0.5,1.83,0.82,3.77,0.83,5.66c0.01,3.66-0.24,7.32-0.45,10.98c-0.05,0.86-0.33,1.72-0.6,2.56c-1.54,4.83-3.85,6.64-8.83,6.98
	c-2.52,0.17-2.98-0.21-2.99-2.73C844.82,803.94,844.84,799.39,844.84,794.84z"/>
<path class="st0" d="M980.35,794.44c-0.26,3.09-0.36,6.2-0.84,9.26c-0.28,1.77-0.95,3.57-1.84,5.12c-2.08,3.61-6.45,3.62-8.82,0.17
	c-1.85-2.68-2.32-5.82-2.48-8.88c-0.27-4.84-0.62-9.74,0.43-14.53c0.42-1.91,1.08-3.88,2.12-5.52c2.1-3.32,6.96-3.04,8.95,0.38
	c1.56,2.69,2.06,5.67,2.23,8.72c0.1,1.75,0.02,3.51,0.02,5.26C980.19,794.42,980.27,794.43,980.35,794.44z"/>
<path class="st0" d="M920.52,797.65c-2.77,0-5.03,0-7.26,0c-0.3-1.73,1.84-12.49,3.36-16.68
	C917.96,786.73,919.19,791.97,920.52,797.65z"/>
<path class="st0" d="M706.26,781.12c1.54,5.43,3.04,10.76,4.06,16.3c-2.25,0.67-4.24,0.47-6.2,0.31c-1.12-0.09-1.38-0.69-1.07-2.17
	c0.66-3.12,1.38-6.22,2.07-9.33C705.51,784.52,705.88,782.82,706.26,781.12z"/>
<path class="st0" d="M798.2,797.64c-2.79,0-5.04,0-7.29,0c-0.3-2.03,1.41-10.51,3.41-16.96
	C795.63,786.42,796.86,791.81,798.2,797.64z"/>
<path class="st0" d="M1132.45,797.62c-2.8,0-5.06,0-7.68,0c0.94-5.64,2.32-10.89,3.46-16.2c0.17,0,0.35,0,0.52,0
	C1129.96,786.72,1131.17,792.02,1132.45,797.62z"/>
</svg>
