<?xml version="1.0" encoding="utf-8"?>
<!-- Generator: Adobe Illustrator 28.1.0, SVG Export Plug-In . SVG Version: 6.00 Build 0)  -->
<svg version="1.1" id="Layer_1" xmlns="http://www.w3.org/2000/svg" xmlns:xlink="http://www.w3.org/1999/xlink" x="0px" y="0px"
	 viewBox="0 0 1920 1080" style="enable-background:new 0 0 1920 1080;" xml:space="preserve">
<path d="M730.55,292.1c0.82,1.18,1.73,2.31,2.46,3.54c1.1,1.88,0.81,2.85-1.08,3.92c-2.08,1.19-4.23,2.26-6.28,3.51
	c-6.02,3.65-11.69,7.77-16.98,12.45c-5.96,5.27-11.34,11-15.74,17.64c-2.14,3.23-3.78,6.67-4.85,10.38
	c-2.24,7.81,0.53,14.08,7.78,17.79c4.63,2.37,9.61,3.46,14.71,4.09c2.29,0.28,4.61,0.36,6.92,0.55c2.03,0.16,3.73,1.02,4.8,2.77
	c0.73,1.19,1.7,1.59,3,1.52c0.8-0.04,1.6,0,2.4,0c33.03,0,66.05-0.07,99.08,0.04c13.41,0.04,26.32,2.8,38.69,8.1
	c9.65,4.14,18.42,9.66,26.23,16.6c8.59,7.63,15.75,16.48,21.3,26.64c5.83,10.66,9.5,21.99,11.21,33.95
	c0.64,4.48,0.53,9.07,0.72,13.61c0.45,10.52-1.48,20.71-4.67,30.65c-3.55,11.04-9.04,21.11-16.25,30.24
	c-3.58,4.54-7.56,8.68-11.79,12.58c-4.64,4.29-9.78,7.98-15.22,11.21c-9.99,5.93-20.69,10.06-32.1,12.26
	c-6.05,1.16-12.16,1.88-18.34,1.75c-1.09-0.02-2.19,0.09-3.74,0.17c0.47,1.01,0.73,1.72,1.11,2.35
	c5.66,9.46,11.33,18.92,17.01,28.38c12.71,21.17,25.42,42.34,38.13,63.51c13.2,21.99,26.4,43.98,39.6,65.98
	c0.86,1.44,1.74,2.87,2.56,4.33c0.26,0.46,0.39,0.99,0.69,1.81c-0.96,0.14-1.71,0.34-2.45,0.34c-13.83,0.02-27.67-0.01-41.5,0.04
	c-1.65,0.01-2.66-0.66-3.48-2.03c-10.13-16.94-20.29-33.86-30.45-50.78C830.81,659.99,817.6,638,804.4,616
	c-13.2-21.99-26.4-43.99-39.6-65.98c-3.95-6.58-7.89-13.16-11.83-19.74c-0.32-0.53-0.57-1.1-1.04-2.03c1.11-0.1,1.93-0.23,2.76-0.23
	c6.32-0.02,12.63-0.01,18.95-0.01c17.03,0,34.07,0.1,51.1-0.03c14.53-0.11,27.71-4.35,38.96-13.8c11.7-9.83,18.73-22.37,20.74-37.48
	c2.25-16.89-2.32-32.02-13.15-45.11c-9.67-11.69-22.1-18.67-37.25-20.57c-2.29-0.29-4.61-0.45-6.92-0.45
	c-33.59-0.03-67.17-0.01-100.76-0.04c-1.97,0-3.72,0.07-5.16,1.8c-1.05,1.25-2.7,1.61-4.38,1.6c-2.48-0.03-4.96-0.1-7.44,0.02
	c-8.45,0.39-14.86,4.16-18.52,11.89c-1.04,2.19-1.5,4.73-1.82,7.16c-0.42,3.24-0.52,6.53,0.39,9.75c1.12,4.01,3.45,7.01,7.32,8.65
	c3.5,1.49,5.16,4.04,5.06,7.86c-0.09,3.67,0,7.35-0.03,11.03c-0.02,3.01-0.99,4.42-3.81,5.36c-1.12,0.37-2.34,0.58-3.52,0.58
	c-12.39,0.04-24.79,0.02-37.18,0.03c-2.82,0-5.17-0.86-6.81-3.28c-0.27-0.39-0.66-0.7-0.99-1.04c0-4.96,0-9.91,0-14.87
	c1.41-2.32,2.83-4.51,5.55-5.72c5.49-2.43,7.93-6.9,7.88-12.84c-0.04-4.24-0.05-8.47,0-12.71c0.07-5.22-1.9-9.14-6.88-11.26
	c-2.68-1.14-3.71-3.17-3.73-6.07c-0.05-7.28,0.37-14.51,1.42-21.72c2.05-14.12,6.18-27.6,12.56-40.34
	c3.87-7.72,8.63-14.91,14.28-21.51c4.43-5.18,9.26-9.92,14.52-14.2c6.09-4.96,12.71-9.16,19.76-12.63c4.37-2.15,8.88-4,13.33-5.98
	C728.95,292.1,729.75,292.1,730.55,292.1z"/>
<path d="M701.43,651.07c18.52-30.72,36.9-61.52,55.7-92.69c0.87,1.15,1.44,1.76,1.86,2.46c6.11,10.13,12.19,20.26,18.28,30.4
	c0.74,1.23,1.41,2.52,2.23,3.69c1.01,1.44,0.91,2.7,0,4.19c-4.21,6.89-8.32,13.83-12.47,20.75c-13.2,21.99-26.4,43.98-39.6,65.96
	c-9.29,15.48-18.6,30.95-27.84,46.47c-1.06,1.78-2.28,2.53-4.4,2.51c-13.59-0.09-27.18-0.04-40.78-0.05c-0.78,0-1.56-0.08-2.77-0.15
	c0.49-1.05,0.78-1.83,1.2-2.54c2.24-3.78,4.44-7.59,6.79-11.3c1-1.57,1.34-3.17,1.33-4.98c-0.03-15.34-0.02-30.69-0.02-46.03
	c0-17.82,0-35.64,0-53.46c0-3.85,0.01-3.86,3.86-3.86c10.79,0,21.59,0,32.38,0c3.58,0,3.62,0.04,3.62,3.61c0,10.79,0,21.58,0,32.36
	c0,0.84,0,1.68,0,2.51C701.02,650.98,701.22,651.03,701.43,651.07z"/>
<path d="M766.59,734.76c-4.47,0-8.94,0.02-13.41-0.01c-2.67-0.01-2.95-0.26-2.95-2.82c-0.02-8.78-0.02-17.56,0-26.34
	c0.01-2.58,0.38-2.98,2.88-2.98c9.02-0.03,18.04-0.02,27.07,0c2.34,0.01,2.65,0.31,2.66,2.63c0.02,8.94,0.02,17.88,0,26.81
	c-0.01,2.43-0.3,2.68-2.83,2.7C775.54,734.78,771.07,734.76,766.59,734.76z"/>
<path d="M766.56,662.3c4.48,0,8.95-0.02,13.43,0.01c2.61,0.01,2.85,0.25,2.85,2.93c0.02,8.71,0.02,17.42,0,26.12
	c-0.01,2.71-0.36,3.08-3.03,3.09c-8.87,0.02-17.74,0.02-26.62,0c-2.57-0.01-2.96-0.38-2.97-2.91c-0.03-8.87-0.03-17.73,0-26.6
	c0.01-2.31,0.32-2.61,2.66-2.63C757.45,662.28,762.01,662.3,766.56,662.3z"/>
<path d="M823.17,718.59c0,4.47,0.02,8.95-0.01,13.42c-0.02,2.45-0.3,2.74-2.79,2.74c-8.87,0.02-17.75,0.02-26.62,0
	c-2.45-0.01-2.74-0.3-2.74-2.79c-0.02-8.87-0.02-17.74,0-26.61c0.01-2.46,0.3-2.74,2.79-2.74c8.87-0.02,17.75-0.02,26.62,0
	c2.45,0.01,2.73,0.3,2.75,2.79C823.19,709.8,823.17,714.2,823.17,718.59z"/>
<path d="M807.32,662.31c4.39,0,8.79-0.02,13.18,0.01c2.35,0.02,2.65,0.31,2.66,2.62c0.03,8.94,0.02,17.88,0,26.83
	c-0.01,2.36-0.31,2.68-2.6,2.69c-8.95,0.03-17.89,0.03-26.84,0c-2.27-0.01-2.7-0.43-2.71-2.67c-0.03-9.02-0.03-18.04,0-27.06
	c0.01-2.02,0.37-2.37,2.4-2.39C798.05,662.28,802.69,662.31,807.32,662.31z"/>
<path d="M684.65,496.02c-0.14,0.82-0.18,1.26-0.3,1.67c-1.87,6.45-1.99,12.96-0.13,19.37c1.04,3.59,2.65,7.01,4.11,10.47
	c2.65,6.25,5.41,12.48,6.46,19.25c1.21,7.73-0.79,14.55-6.12,20.34c-0.15,0.16-0.41,0.22-0.86,0.44c-0.12-0.58-0.32-1.06-0.31-1.54
	c0.02-0.63,0.19-1.26,0.3-1.89c1.25-6.86-0.31-13.35-2.82-19.64c-2.31-5.78-5.05-11.39-7.28-17.2c-2.21-5.74-3.22-11.68-1.44-17.82
	c1.39-4.79,4.02-8.83,7.11-12.64C683.6,496.58,683.99,496.44,684.65,496.02z"/>
<path d="M675.68,533.37c-0.15,1.04-0.15,1.59-0.3,2.09c-2.38,7.75-1.54,15.3,1.41,22.7c2.22,5.56,4.59,11.05,6.81,16.61
	c1.61,4.03,2.56,8.27,2.74,12.58c0.23,5.51-1.3,10.58-4.86,14.91c-0.77,0.94-1.28,2.19-2.81,2.78c0-0.68-0.07-1.14,0.01-1.56
	c1.62-8.65-0.1-16.79-3.59-24.7c-2.38-5.4-4.8-10.79-6.82-16.33c-2.08-5.69-2.28-11.56-0.24-17.37c1.42-4.04,3.71-7.59,6.39-10.89
	C674.59,533.95,674.91,533.84,675.68,533.37z"/>
</svg>
