<?xml version="1.0" encoding="utf-8"?>
<!-- Generator: Adobe Illustrator 28.1.0, SVG Export Plug-In . SVG Version: 6.00 Build 0)  -->
<svg version="1.1" id="Layer_1" xmlns="http://www.w3.org/2000/svg" xmlns:xlink="http://www.w3.org/1999/xlink" x="0px" y="0px"
	 viewBox="0 0 640 480" style="enable-background:new 0 0 640 480;" xml:space="preserve">
<style type="text/css">
	.st0{fill:none;}
</style>
<g>
	<path class="st0" d="M386.9,267c0,2,0.4,2.4,2.4,2.4c1.7,0,3.5-0.1,5.2-0.4c4.4-0.8,6.4-2.8,7.1-7.2c0.7-4.5,0.9-9,0.1-13.6
		c-0.7-3.8-2.7-6.6-6.9-7.2c-1.7-0.2-3.5-0.3-5.2-0.3c-2.3,0-2.6,0.3-2.6,2.6c0,3.9,0,7.8,0,11.7C386.9,259.1,386.9,263,386.9,267z"
		/>
	<path class="st0" d="M386.9,286.2c0,4.9,0,9.7,0,14.6c0,4.6,0,9.2,0,13.9c0-4.6,0-9.2,0-13.9C386.9,295.9,386.9,291,386.9,286.2z"
		/>
	<path class="st0" d="M6.4,14.7v450.6h627V14.7H6.4z M548.6,279.4c0-16,0-32,0-48c0-0.6,0-1.3,0-1.9c0.1-2.4,0.3-2.7,2.8-2.7
		c11.8,0,23.7,0,35.5,0c2.7,0,2.9,0.2,2.9,2.8c0,3.4,0,6.9,0,10.3c0,2.2-0.4,2.7-2.7,2.7c-5.8,0-11.5,0-17.3,0c-0.7,0-1.4,0-2.2,0
		c-1.2,0-1.8,0.6-1.8,1.8c0,0.6,0,1.1,0,1.7c0,6.5,0,12.9,0,19.4c0,0.6,0,1.3,0,1.9c0.1,1,0.6,1.4,1.5,1.5c0.6,0,1.3,0,1.9,0
		c5.5,0,11,0,16.5,0c2.7,0,2.9,0.3,3,2.8c0,3.2,0,6.4,0,9.6c0,2.7-0.2,2.9-3.1,2.9c-5.4,0-10.9,0-16.3,0c-0.6,0-1.3,0-1.9,0
		c-1,0-1.6,0.6-1.7,1.6c0,0.6,0,1.1,0,1.7c0,8.5,0,16.9,0,25.4c0,0.2,0,0.5,0,0.7c0.1,2.3,0.3,2.6,2.7,2.6c6.5,0,13,0,19.4,0
		c4.3,0,4.3,0,3.8,4.1c-0.4,3.1-0.8,6.2-1.3,9.2c-0.4,2.2-0.7,2.4-2.8,2.4c-12.2,0-24.3,0-36.5,0c-2.1,0-2.5-0.5-2.6-2.5
		c0-1.5,0-3,0-4.6C548.6,309.9,548.6,294.6,548.6,279.4z M396,104.3c0-0.6,0-1.3,0-1.9c0-3.1,0.2-3.2,3.2-3.2c5.8,0,11.7,0,17.5,0
		c5.6,0,11.2,0,16.8,0c0.6,0,1.3,0,1.9,0c1.2,0,1.8,0.6,1.8,1.8c0,3.9,0,7.8,0,11.7c0,1.2-0.6,1.8-1.8,1.8c-0.6,0-1.3,0-1.9,0
		c-6,0-12,0-18,0c-2.5,0-2.8,0.3-2.8,2.8c0,6.9,0,13.9,0,20.9c0,2.4,0.3,2.7,2.8,2.7c0.6,0,1.1,0,1.7,0c5,0,9.9,0,14.9,0
		c3.6,0,3.7,0,3.7,3.6c0,2.9,0,5.8,0,8.6c0,0.5,0,1,0,1.4c-0.1,1.6-0.5,2.1-2.2,2.2c-0.7,0.1-1.4,0-2.2,0c-5.4,0-10.7,0-16.1,0
		c-2.2,0-2.5,0.3-2.5,2.5c0,9,0,18.1,0,27.1c0,2.2,0.3,2.5,2.5,2.5c6.8,0,13.6,0,20.4,0c3.5,0,3.7,0.2,3.2,3.7
		c-0.4,2.9-0.8,5.9-1.2,8.8c-0.3,2.5-1,3.1-3.5,3.3c-0.6,0-1.3,0-1.9,0c-10.5,0-20.9,0-31.4,0c-0.4,0-0.8,0-1.2,0
		c-3.3-0.1-3.7-0.5-3.7-3.8c0-10.5,0-21.1,0-31.6C396,147.6,396,126,396,104.3z M311.5,101.6c0.1-2.1,0.4-2.4,2.4-2.4
		c4.1,0,8.1-0.1,12.2,0c1.8,0,2.1,0.4,2.2,2.1c0,0.7,0,1.4,0,2.2c0,16.1,0,32.3,0,48.4c0,16.2,0,32.4,0,48.7c0,3.8-0.4,4.1-4,4.2
		c-3,0-5.9,0-8.9,0c-0.7,0-1.4-0.1-2.1-0.2c-1.1-0.2-1.7-0.8-1.7-2c0-0.6,0-1.3,0-1.9c0-32.6,0-65.2,0-97.8
		C311.5,102.4,311.5,102,311.5,101.6z M63.2,458.8c-1.1,1.8-2.3,2.5-4.4,2.5c-13.6-0.1-27.2,0-40.8,0c-0.8,0-1.6-0.1-2.8-0.1
		c0.5-1,0.8-1.8,1.2-2.5c2.2-3.8,4.4-7.6,6.8-11.3c1-1.6,1.3-3.2,1.3-5c0-15.3,0-30.7,0-46c0-17.8,0-35.6,0-53.5
		c0-3.9,0-3.9,3.9-3.9c10.8,0,21.6,0,32.4,0c3.6,0,3.6,0,3.6,3.6c0,10.8,0,21.6,0,32.4c0,0.8,0,1.7,0,2.5c0.2,0,0.4,0.1,0.6,0.1
		c18.5-30.7,36.9-61.5,55.7-92.7c0.9,1.1,1.4,1.8,1.9,2.5c6.1,10.1,12.2,20.3,18.3,30.4c0.7,1.2,1.4,2.5,2.2,3.7
		c1,1.4,0.9,2.7,0,4.2c-4.2,6.9-8.3,13.8-12.5,20.8c-13.2,22-26.4,44-39.6,66C81.8,427.9,72.5,443.3,63.2,458.8z M47.9,243.6
		c1,3.6,2.7,7,4.1,10.5c2.7,6.3,5.4,12.5,6.5,19.3c1.2,7.7-0.8,14.5-6.1,20.3c-0.2,0.2-0.4,0.2-0.9,0.4c-0.1-0.6-0.3-1.1-0.3-1.5
		c0-0.6,0.2-1.3,0.3-1.9c1.2-6.9-0.3-13.4-2.8-19.6c-2.3-5.8-5-11.4-7.3-17.2c-2.2-5.7-3.2-11.7-1.4-17.8c1.4-4.8,4-8.8,7.1-12.6
		c0.2-0.3,0.6-0.4,1.3-0.8c-0.1,0.8-0.2,1.3-0.3,1.7C46.1,230.7,46,237.2,47.9,243.6z M39.3,259.9c-0.2,1-0.2,1.6-0.3,2.1
		c-2.4,7.8-1.5,15.3,1.4,22.7c2.2,5.6,4.6,11,6.8,16.6c1.6,4,2.6,8.3,2.7,12.6c0.2,5.5-1.3,10.6-4.9,14.9c-0.8,0.9-1.3,2.2-2.8,2.8
		c0-0.7-0.1-1.1,0-1.6c1.6-8.6-0.1-16.8-3.6-24.7c-2.4-5.4-4.8-10.8-6.8-16.3c-2.1-5.7-2.3-11.6-0.2-17.4c1.4-4,3.7-7.6,6.4-10.9
		C38.2,260.5,38.6,260.4,39.3,259.9z M143.6,461.3c-4.5,0-8.9,0-13.4,0s-8.9,0-13.4,0c-2.7,0-2.9-0.3-2.9-2.8c0-8.8,0-17.6,0-26.3
		c0-2.6,0.4-3,2.9-3c9,0,18,0,27.1,0c2.3,0,2.6,0.3,2.7,2.6c0,8.9,0,17.9,0,26.8C146.5,461,146.2,461.3,143.6,461.3z M146.5,417.9
		c0,2.7-0.4,3.1-3,3.1c-8.9,0-17.7,0-26.6,0c-2.6,0-3-0.4-3-2.9c0-8.9,0-17.7,0-26.6c0-2.3,0.3-2.6,2.7-2.6c4.6,0,9.1,0,13.7,0
		c4.5,0,8.9,0,13.4,0c2.6,0,2.9,0.2,2.9,2.9C146.5,400.5,146.5,409.2,146.5,417.9z M186.8,458.6c0,2.5-0.3,2.7-2.8,2.7
		c-8.9,0-17.8,0-26.6,0c-2.4,0-2.7-0.3-2.7-2.8c0-8.9,0-17.7,0-26.6c0-2.5,0.3-2.7,2.8-2.7c8.9,0,17.8,0,26.6,0
		c2.4,0,2.7,0.3,2.8,2.8c0,4.4,0,8.8,0,13.2C186.8,449.6,186.8,454.1,186.8,458.6z M154.7,418.3c0-9,0-18,0-27.1
		c0-2,0.4-2.4,2.4-2.4c4.6,0,9.3,0,13.9,0c4.4,0,8.8,0,13.2,0c2.4,0,2.6,0.3,2.7,2.6c0,8.9,0,17.9,0,26.8c0,2.4-0.3,2.7-2.6,2.7
		c-8.9,0-17.9,0-26.8,0C155.1,421,154.7,420.6,154.7,418.3z M187.5,296.9c5.7,9.5,11.3,18.9,17,28.4c12.7,21.2,25.4,42.3,38.1,63.5
		c13.2,22,26.4,44,39.6,66c0.9,1.4,1.7,2.9,2.6,4.3c0.3,0.5,0.4,1,0.7,1.8c-1,0.1-1.7,0.3-2.5,0.3c-13.8,0-27.7,0-41.5,0
		c-1.6,0-2.7-0.7-3.5-2c-10.1-16.9-20.3-33.9-30.4-50.8c-13.2-22-26.4-44-39.6-66c-13.2-22-26.4-44-39.6-66
		c-3.9-6.6-7.9-13.2-11.8-19.7c-0.3-0.5-0.6-1.1-1-2c1.1-0.1,1.9-0.2,2.8-0.2c6.3,0,12.6,0,18.9,0c17,0,34.1,0.1,51.1,0
		c14.5-0.1,27.7-4.4,39-13.8c11.7-9.8,18.7-22.4,20.7-37.5c2.2-16.9-2.3-32-13.1-45.1c-9.7-11.7-22.1-18.7-37.2-20.6
		c-2.3-0.3-4.6-0.4-6.9-0.4c-33.6,0-67.2,0-100.8,0c-2,0-3.7,0.1-5.2,1.8c-1.1,1.2-2.7,1.6-4.4,1.6c-2.5,0-5-0.1-7.4,0
		c-8.4,0.4-14.9,4.2-18.5,11.9c-1,2.2-1.5,4.7-1.8,7.2c-0.4,3.2-0.5,6.5,0.4,9.8c1.1,4,3.5,7,7.3,8.6c3.5,1.5,5.2,4,5.1,7.9
		c-0.1,3.7,0,7.4,0,11c0,3-1,4.4-3.8,5.4c-1.1,0.4-2.3,0.6-3.5,0.6c-12.4,0-24.8,0-37.2,0c-2.8,0-5.2-0.9-6.8-3.3
		c-0.3-0.4-0.7-0.7-1-1c0-5,0-9.9,0-14.9c1.4-2.3,2.8-4.5,5.5-5.7c5.5-2.4,7.9-6.9,7.9-12.8c0-4.2,0-8.5,0-12.7
		c0.1-5.2-1.9-9.1-6.9-11.3c-2.7-1.1-3.7-3.2-3.7-6.1c-0.1-7.3,0.4-14.5,1.4-21.7c2-14.1,6.2-27.6,12.6-40.3
		c3.9-7.7,8.6-14.9,14.3-21.5c4.4-5.2,9.3-9.9,14.5-14.2c6.1-5,12.7-9.2,19.8-12.6c4.4-2.1,8.9-4,13.3-6c0.8,0,1.6,0,2.4,0
		c0.8,1.2,1.7,2.3,2.5,3.5c1.1,1.9,0.8,2.9-1.1,3.9c-2.1,1.2-4.2,2.3-6.3,3.5c-6,3.7-11.7,7.8-17,12.5c-6,5.3-11.3,11-15.7,17.6
		c-2.1,3.2-3.8,6.7-4.8,10.4c-2.2,7.8,0.5,14.1,7.8,17.8c4.6,2.4,9.6,3.5,14.7,4.1c2.3,0.3,4.6,0.4,6.9,0.6c2,0.2,3.7,1,4.8,2.8
		c0.7,1.2,1.7,1.6,3,1.5c0.8,0,1.6,0,2.4,0c33,0,66.1-0.1,99.1,0c13.4,0,26.3,2.8,38.7,8.1c9.6,4.1,18.4,9.7,26.2,16.6
		c8.6,7.6,15.8,16.5,21.3,26.6c5.8,10.7,9.5,22,11.2,33.9c0.6,4.5,0.5,9.1,0.7,13.6c0.5,10.5-1.5,20.7-4.7,30.6
		c-3.5,11-9,21.1-16.2,30.2c-3.6,4.5-7.6,8.7-11.8,12.6c-4.6,4.3-9.8,8-15.2,11.2c-10,5.9-20.7,10.1-32.1,12.3
		c-6.1,1.2-12.2,1.9-18.3,1.8c-1.1,0-2.2,0.1-3.7,0.2C186.9,295.6,187.2,296.3,187.5,296.9z M361.9,407.1c0,16.3,0,32.6,0,48.9
		c0,3.9,0,3.9-3.9,3.9c-3.4,0-6.7,0-10.1,0c-2.6,0-2.9-0.2-2.9-2.9c0-13.8,0-27.5,0-41.2c0-4.3,0-4.3-4.4-4.3c-3,0-6.1,0-9.1,0
		c-3.1,0-3.3,0.1-3.3,3.2c0,11,0,22.1,0,33.1c0,3.2,0,6.4,0,9.6c0,2.2-0.3,2.5-2.5,2.5c-3.9,0-7.8,0-11.8,0c-2.2,0-2.5-0.3-2.5-2.5
		c0-0.5,0-1,0-1.4c0-32.5,0-65.1,0-97.6c0-4,0-4,4-4c3.4,0,6.7,0,10.1,0c2.5,0,2.8,0.3,2.8,2.8c0,11.5,0,23,0,34.5
		c0,0.7,0,1.4,0,2.2c0,1.2,0.7,1.8,1.8,1.8c4.3,0,8.6,0,13,0c1.5,0,1.8-0.4,1.9-1.9c0.1-0.7,0-1.4,0-2.2c0-11.2,0-22.4,0-33.6
		c0-3.6,0-3.6,3.6-3.6c3.4,0,6.7,0,10.1,0c3,0,3.1,0.2,3.1,3.1c0,15.3,0,30.5,0,45.8C361.9,404.5,361.9,405.8,361.9,407.1z
		 M361,332.3c-4.2,0-8.5,0-12.7,0c-2.1,0-2.4-0.4-2.8-2.5c-1.1-7.5-2.2-15-3.3-22.5c-0.1-0.5-0.1-1.1-0.3-1.6
		c-0.2-1-0.8-1.5-1.9-1.5c-4,0-8-0.1-12,0c-1.5,0-1.9,0.6-2.1,2.6c-0.5,3.8-1,7.6-1.5,11.4c-0.5,3.9-1,7.8-1.5,11.6
		c-0.3,2.1-0.8,2.5-3,2.6c-3.8,0-7.7,0-11.5,0c-2.9,0-3.1-0.3-2.6-3.3c1.3-7.8,2.6-15.6,3.8-23.4c2.5-15.7,5-31.4,7.6-47.1
		c1.6-9.7,3.1-19.4,4.7-29.1c0.4-2.6,0.6-2.7,3.3-2.7c3,0,6.1,0,9.1,0c2.9,0,5.8,0,8.6,0c2.8,0,3,0.2,3.5,2.8
		c0.8,5,1.6,9.9,2.5,14.9c3.1,18.7,6.2,37.5,9.4,56.2c1.6,9.6,3.2,19.2,4.8,28.8C363.5,331.8,363.2,332.2,361,332.3z M351.6,204.5
		c-6.6-2-10.9-6.5-12.9-13.1c-1.6-5.3-1.9-10.8-1.7-16.4c0-1.6,0.4-2,2-2c2.2-0.1,4.3,0,6.5,0v0c2,0,4,0,6,0c2.4,0,2.7,0.3,2.7,2.8
		c0,2.2-0.2,4.3,0.1,6.5c0.2,1.9,0.6,3.8,1.4,5.5c1.3,2.9,4,3.9,7,3.7c3-0.2,5.2-2,5.9-4.9c1.6-6.7,2-13.4-1.4-19.8
		c-1.4-2.6-3.3-4.7-5.5-6.6c-3.8-3.2-7.7-6.2-11.5-9.4c-7.2-6-11.3-13.6-11.3-23.1c0-4.6-0.1-9.1,1-13.6c1.7-7,5.3-12.5,12.2-15.2
		c4.5-1.8,9.2-2.1,13.9-1.4c3.1,0.4,6.1,1.1,8.9,2.6c5,2.7,7.5,7.3,8.9,12.5c1.2,4.6,1.3,9.3,1.1,14c-0.1,1.8-0.5,2.2-2.4,2.3
		c-4,0.1-8,0.1-12,0c-1.9,0-2.3-0.5-2.4-2.5c-0.2-2.9-0.3-5.7-0.5-8.6c0-0.6-0.2-1.1-0.4-1.6c-0.9-2.9-2.3-4-5.1-4.1
		c-3.2,0-5,1-5.7,3.9c-1.2,4.9-1.4,9.8,0.4,14.6c0.9,2.4,2.5,4.3,4.4,5.9c2.5,2,5,3.9,7.5,5.9c4.2,3.3,8.4,6.6,11.6,11
		c3.6,4.9,5.5,10.4,5.9,16.4c0.2,2.6,0.5,5.3,0.4,7.9c-0.1,4.3-0.6,8.6-2,12.7c-3.1,9.1-9.5,14-19,15.2
		C360.9,206.4,356.2,206,351.6,204.5z M370.6,330.1c-0.1-0.6,0-1.3,0-1.9c0-32.5,0-65.1,0-97.6c0-3.9,0-3.9,3.8-3.9
		c7,0,13.9,0,20.9,0c4.1,0,8.1,0.9,11.8,2.7c4.8,2.2,7.9,6,9.4,10.9c1.8,5.9,1.9,11.9,1.3,18c-0.1,1.4-0.2,2.7-0.4,4
		c-0.9,5.4-2.9,10.1-8.1,13.3c1.6,1.1,3,1.9,4.2,2.9c3.1,2.6,4.8,6,5.5,9.8c1.6,8.6,1.4,17.3,0,26c-0.6,3.7-2.1,7-4.5,10
		c-2.9,3.7-6.9,5.7-11.3,6.7c-3.1,0.7-6.3,1-9.5,1.1c-6.4,0.2-12.8,0-19.2,0c-0.6,0-1.3,0-1.9,0
		C371.1,332.1,370.7,331.7,370.6,330.1z M424.8,435.1c0,4.4-0.9,8.7-2.6,12.8c-2.6,6.1-6.9,10.3-13.4,12.1c-7.2,2-14.4,2.2-21.5-0.4
		c-6.3-2.3-10.1-7-12.2-13.3c-1.1-3.4-1.6-7-1.8-10.6c-0.9-17.2-0.3-34.5-0.3-51.7c0-5.5,0.5-11,2.5-16.2
		c2.9-7.6,8.4-12.3,16.3-14.1c5.2-1.2,10.5-1.1,15.7,0.1c8.1,2,13.1,7.3,15.6,15c1.2,3.7,1.7,7.6,1.7,11.6c0,8.9,0,17.7,0,26.6l0,0
		C424.8,416.4,424.9,425.8,424.8,435.1z M430.1,316.6c-1.1-4.6-1.5-9.3-1.5-14c0-16,0-32,0-47.9c0-5.2,0.8-10.3,2.7-15.2
		c3.5-8.8,10.4-13.2,19.5-14c3.7-0.3,7.6-0.2,11.2,0.5c7.9,1.5,13.3,6.2,16.1,13.9c1.5,4.3,2.3,8.8,2.3,13.4c0,8.8,0,17.6,0,26.4
		c0,8.5,0,17.1,0,25.6c0,4-0.6,7.8-1.5,11.6c-1,3.8-2.8,7.2-5.4,10c-2.1,2.3-4.9,3.9-7.8,5c-6.9,2.5-14,2.7-21,0.8
		C436.7,330.3,432.1,324.6,430.1,316.6z M505.9,455.8c0,4.1,0,4.1-4.1,4.1c-2.9,0-5.8,0-8.6,0c-3.5,0-3.6,0-3.6-3.7c0-14,0-28,0-42
		c0-5.4-0.1-10.7,0-16.1c0.1-6.5,0.3-13.1,0.5-19.6c0-0.6,0-1.3,0-1.9c-0.1,0-0.2-0.1-0.3-0.1c-1.7,12.2-3.3,24.5-5,36.7
		c-1.6,11.6-3.3,23.2-5,34.9c-0.4,2.9-0.8,5.9-1.3,8.8c-0.4,2.8-0.6,2.9-3.3,2.9c-3.5,0-7,0-10.5,0c-2.3,0-2.5-0.3-2.8-2.6
		c-1-8.2-2.1-16.5-3.2-24.7c-1-8.2-2-16.3-3.1-24.5c-1-7.8-2-15.5-3-23.3c-0.3-2.3-0.6-4.5-1.2-6.8c0,0.5-0.1,1.1-0.1,1.6
		c0,6.5-0.2,13.1,0.1,19.7c0.9,18.9,0.1,37.9,0.4,56.8c0,3.9,0,3.9-3.8,3.9c-3,0-6.1,0-9.1,0c-2,0-2.3-0.4-2.4-2.4
		c0-0.6,0-1.1,0-1.7c0-32.5,0-64.9,0-97.4c0-4.1,0-4.1,4.1-4.1c5.5,0,11,0,16.5,0c0.6,0,1.1,0,1.7,0c2,0.1,2.3,0.3,2.7,2.3
		c0.5,2.8,0.9,5.7,1.4,8.5c1.2,8.3,2.4,16.6,3.6,24.9c1.1,8.3,2.2,16.6,3.2,24.9c0.3,2,0.6,4,1.1,6c1.7-10.2,3.3-20.3,5-30.5
		c1.9-11.3,3.8-22.5,5.8-33.8c0.3-2,0.7-2.3,2.6-2.4c6.5,0,13,0,19.4,0c2,0,2.3,0.4,2.4,2.4c0,0.6,0,1.1,0,1.7
		C505.9,390.9,505.9,423.4,505.9,455.8z M506.5,332.3c-2.1,0-2.5-0.4-3-2.7c-1-5.6-2-11.2-3-16.8c-2-11.2-3.9-22.5-5.9-33.8
		c-2-11.6-4.1-23.3-6.1-34.9c-0.8-4.6-1.6-9.3-2.4-13.9c-0.1-0.6-0.2-1.1-0.3-1.6c-0.1-1.1,0.3-1.7,1.4-1.8c1.4-0.1,2.9-0.1,4.3-0.1
		c3.3,0,6.6,0,9.8,0c2.1,0,2.3,0.1,2.6,2.3c0.7,4.4,1.2,8.9,1.8,13.3c0.9,6.8,1.8,13.6,2.6,20.4c1,8,2.1,16,3.1,24
		c0.8,6.5,1.6,13,2.5,20c1.7-13,3.4-25.5,5-38.1c1.4-11.2,2.7-22.3,4-33.5c0.3-2.1,0.6-4.3,0.9-6.4c0.1-1.3,0.8-1.9,2-1.9
		c4.9,0,9.8,0,14.6,0c0.4,0,0.8,0.2,1.4,0.4c-0.1,1.1-0.2,2.1-0.3,3.1c-2.3,13.4-4.6,26.8-6.9,40.1c-3,17.6-6,35.1-8.9,52.7
		c-0.4,2.4-0.8,4.7-1.3,7.1c-0.4,1.9-0.7,2.1-2.6,2.1C516.9,332.3,511.7,332.3,506.5,332.3z M562.2,447.2c-0.4,3.2-0.8,6.5-1.3,9.7
		c-0.4,2.8-0.6,3-3.3,3c-11.8,0-23.5,0-35.3,0c-0.4,0-0.8,0-1.2,0c-1.2,0-1.8-0.6-1.8-1.8c0-0.8,0-1.6,0-2.4c0-16.2,0-32.4,0-48.7
		c0-16.3,0-32.6,0-48.9c0-3.8,0-3.8,3.7-3.8c11.2,0,22.4,0,33.6,0c3.5,0,3.5,0.1,3.5,3.4c0,3.2,0,6.4,0,9.6c0,2.5-0.3,2.8-2.7,2.8
		c-5.8,0-11.7,0-17.5,0c-0.6,0-1.3,0-1.9,0c-1.2,0-1.8,0.6-1.8,1.8c0,0.6,0,1.1,0,1.7c0,6.5,0,13,0,19.4c0,0.5,0,1,0,1.4
		c0.1,1.6,0.4,1.9,2.1,2c2,0.1,4,0,6,0c4.1,0,8.2,0,12.2,0c2.4,0,2.7,0.3,2.7,2.6c0,3.4,0,6.7,0,10.1c0,2.4-0.3,2.7-2.8,2.7
		c-5.5,0-11,0-16.5,0c-0.6,0-1.3,0-1.9,0c-1,0-1.6,0.6-1.7,1.6c0,0.6,0,1.1,0,1.7c0,8.6,0,17.3,0,25.9c0,0.4,0,0.8,0,1.2
		c0.1,1.7,0.4,2.1,2.2,2.1c2.9,0.1,5.8,0,8.6,0c4.3,0,8.6,0,13,0C562.3,444.5,562.5,444.8,562.2,447.2z M616.7,440.2
		c-0.2,0.7-0.4,1.4-0.5,2.1c-1,5.9-3.8,10.9-8.4,14.6c-3.2,2.6-7,3.9-11.1,4.2c-3.6,0.3-7.4,0.2-11-0.3
		c-10.1-1.5-15.5-7.7-17.4-17.5c-0.9-4.4-0.6-8.8-0.5-13.1c0-1.6,0.4-2,2-2c4.2-0.1,8.5-0.1,12.7,0c1.6,0,1.9,0.4,2,2.1
		c0.1,2.2-0.2,4.3,0.1,6.5c0.2,2.1,0.7,4.2,1.4,6.2c1,2.8,3.3,3.7,6.1,3.9c2.9,0.2,4.9-1,6.4-3.4c0.4-0.6,0.7-1.3,0.8-2
		c0.6-3.3,1.4-6.6,0.8-10c-0.4-2.2-0.6-4.4-1.2-6.6c-0.6-2.3-1.9-4.2-3.5-5.9c-4-4.3-8.7-7.8-13.2-11.5c-5.1-4.2-9.6-9-11.5-15.6
		c-1.5-5.2-1.8-10.5-1.3-15.9c0.3-3.1,1-6.3,1.9-9.4c2.7-8.5,8.9-12.9,17.5-13.7c5.1-0.5,10.2-0.4,15.1,1.8c3.5,1.5,6.1,4,8,7.3
		c2.5,4.2,3.4,8.8,3.4,13.5c0,2.1,0,4.2,0,6.2c0,1.9-0.4,2.2-2.3,2.2c-4.1,0-8.2,0-12.2,0c-1.9,0-2.2-0.4-2.2-2.3
		c-0.1-2.1,0.1-4.2-0.1-6.2c-0.1-1.6-0.4-3.2-0.9-4.7c-0.9-2.5-2.6-3.6-5.1-3.5c-2.5,0-4.4,1.2-5.2,3.5c-0.6,1.9-1,3.9-1.1,5.9
		c-0.7,6.9,1.7,12.5,7.3,16.8c4.1,3.1,8.3,6.2,12.2,9.6c5.6,4.9,9.7,10.8,10.7,18.4c0.1,0.5,0.3,0.9,0.4,1.4
		C616.7,428.7,616.7,434.4,616.7,440.2z"/>
	<path class="st0" d="M407.5,378.6c0-1.6-0.3-3.3-0.8-4.9c-1.1-3.6-3.9-5.5-7.6-5.5c-3.6,0-6.6,2-7.6,5.5c-0.6,2.2-1.1,4.5-1.1,6.8
		c-0.1,17.7-0.1,35.3,0,53c0,2.7,0.4,5.4,1.5,8c1.4,3.2,3.9,4.7,7.7,4.5c3.8-0.1,6.2-1.8,7.2-5.2c0.5-1.7,0.8-3.6,0.8-5.4
		c0.1-9.4,0-18.9,0-28.3C407.5,397.6,407.5,388.1,407.5,378.6z"/>
	<path class="st0" d="M334,246.7c-1.8,13.8-3.5,27.7-5.3,41.7c3.8,0.2,7.3,0.4,11.1-0.1c-1.8-14.2-3.6-27.9-5.4-41.7
		C334.2,246.7,334.1,246.7,334,246.7z"/>
	<path d="M208.5,292.7c11.4-2.2,22.1-6.3,32.1-12.3c5.4-3.2,10.6-6.9,15.2-11.2c4.2-3.9,8.2-8,11.8-12.6
		c7.2-9.1,12.7-19.2,16.2-30.2c3.2-9.9,5.1-20.1,4.7-30.6c-0.2-4.5-0.1-9.1-0.7-13.6c-1.7-12-5.4-23.3-11.2-33.9
		c-5.5-10.2-12.7-19-21.3-26.6c-7.8-6.9-16.6-12.5-26.2-16.6c-12.4-5.3-25.3-8.1-38.7-8.1c-33-0.1-66.1,0-99.1,0c-0.8,0-1.6,0-2.4,0
		c-1.3,0.1-2.3-0.3-3-1.5c-1.1-1.8-2.8-2.6-4.8-2.8c-2.3-0.2-4.6-0.3-6.9-0.6c-5.1-0.6-10.1-1.7-14.7-4.1c-7.2-3.7-10-10-7.8-17.8
		c1.1-3.7,2.7-7.2,4.8-10.4c4.4-6.6,9.8-12.4,15.7-17.6c5.3-4.7,11-8.8,17-12.5c2.1-1.2,4.2-2.3,6.3-3.5c1.9-1.1,2.2-2,1.1-3.9
		c-0.7-1.2-1.6-2.4-2.5-3.5c-0.8,0-1.6,0-2.4,0c-4.4,2-9,3.8-13.3,6c-7,3.5-13.7,7.7-19.7,12.6c-5.3,4.3-10.1,9-14.5,14.2
		C38.5,58.1,33.8,65.2,29.9,73c-6.4,12.7-10.5,26.2-12.6,40.3c-1,7.2-1.5,14.4-1.4,21.7c0,2.9,1,4.9,3.7,6.1c5,2.1,6.9,6,6.9,11.3
		c-0.1,4.2,0,8.5,0,12.7c0,5.9-2.4,10.4-7.9,12.8c-2.7,1.2-4.1,3.4-5.6,5.7c0,5,0,9.9,0,14.9c0.3,0.4,0.7,0.6,1,1
		c1.6,2.4,4,3.3,6.8,3.3c12.4,0,24.8,0,37.2,0c1.2,0,2.4-0.2,3.5-0.6c2.8-0.9,3.8-2.4,3.8-5.4c0-3.7-0.1-7.4,0-11
		c0.1-3.8-1.6-6.4-5.1-7.9c-3.9-1.6-6.2-4.6-7.3-8.6c-0.9-3.2-0.8-6.5-0.4-9.8c0.3-2.4,0.8-5,1.8-7.2c3.7-7.7,10.1-11.5,18.5-11.9
		c2.5-0.1,5-0.1,7.4,0c1.7,0,3.3-0.4,4.4-1.6c1.4-1.7,3.2-1.8,5.2-1.8c33.6,0,67.2,0,100.8,0c2.3,0,4.6,0.2,6.9,0.4
		c15.1,1.9,27.6,8.9,37.2,20.6c10.8,13.1,15.4,28.2,13.1,45.1c-2,15.1-9,27.6-20.7,37.5c-11.2,9.4-24.4,13.7-39,13.8
		c-17,0.1-34.1,0-51.1,0c-6.3,0-12.6,0-18.9,0c-0.8,0-1.7,0.1-2.8,0.2c0.5,0.9,0.7,1.5,1,2c3.9,6.6,7.9,13.2,11.8,19.7
		c13.2,22,26.4,44,39.6,66c13.2,22,26.4,44,39.6,66c10.2,16.9,20.3,33.8,30.4,50.8c0.8,1.4,1.8,2,3.5,2c13.8,0,27.7,0,41.5,0
		c0.7,0,1.5-0.2,2.5-0.3c-0.3-0.8-0.4-1.4-0.7-1.8c-0.8-1.5-1.7-2.9-2.6-4.3c-13.2-22-26.4-44-39.6-66
		c-12.7-21.2-25.4-42.3-38.1-63.5c-5.7-9.5-11.4-18.9-17-28.4c-0.4-0.6-0.6-1.3-1.1-2.4c1.6-0.1,2.6-0.2,3.7-0.2
		C196.4,294.5,202.5,293.8,208.5,292.7z"/>
	<path d="M605.6,403.1c-3.9-3.4-8.1-6.5-12.2-9.6c-5.6-4.2-7.9-9.9-7.3-16.8c0.2-2,0.5-4,1.1-5.9c0.8-2.3,2.7-3.5,5.2-3.5
		c2.5,0,4.2,1,5.1,3.5c0.5,1.5,0.8,3.1,0.9,4.7c0.2,2.1,0,4.1,0.1,6.2c0,1.9,0.4,2.3,2.2,2.3c4.1,0,8.2,0,12.2,0
		c1.9,0,2.2-0.4,2.3-2.2c0.1-2.1,0-4.2,0-6.2c0-4.8-0.9-9.4-3.4-13.5c-1.9-3.2-4.5-5.7-8-7.3c-4.8-2.1-10-2.3-15.1-1.8
		c-8.6,0.9-14.8,5.2-17.5,13.7c-1,3-1.6,6.2-1.9,9.4c-0.6,5.4-0.2,10.7,1.3,15.9c1.9,6.6,6.4,11.3,11.5,15.6
		c4.5,3.7,9.2,7.2,13.2,11.5c1.6,1.7,2.9,3.6,3.5,5.9c0.5,2.1,0.8,4.4,1.2,6.6c0.7,3.4-0.1,6.7-0.8,10c-0.1,0.7-0.5,1.4-0.8,2
		c-1.4,2.4-3.5,3.6-6.4,3.4c-2.8-0.2-5.1-1.1-6.1-3.9c-0.7-2-1.2-4.1-1.4-6.2c-0.2-2.1,0-4.3-0.1-6.5c0-1.6-0.4-2-2-2.1
		c-4.2-0.1-8.5-0.1-12.7,0c-1.6,0-2,0.4-2,2c0,4.4-0.3,8.8,0.5,13.1c1.9,9.8,7.4,16,17.4,17.5c3.6,0.5,7.3,0.6,11,0.3
		c4-0.3,7.9-1.6,11.1-4.2c4.7-3.8,7.4-8.7,8.4-14.6c0.1-0.7,0.3-1.4,0.5-2.1c0-5.8,0-11.5,0-17.3c-0.1-0.5-0.4-0.9-0.4-1.4
		C615.3,413.9,611.2,408,605.6,403.1z"/>
	<path d="M143.1,325.7c0.9-1.5,1-2.8,0-4.2c-0.8-1.2-1.5-2.5-2.2-3.7c-6.1-10.1-12.2-20.3-18.3-30.4c-0.4-0.7-1-1.3-1.9-2.5
		c-18.8,31.2-37.2,62-55.7,92.7c-0.2,0-0.4-0.1-0.6-0.1c0-0.8,0-1.7,0-2.5c0-10.8,0-21.6,0-32.4c0-3.6,0-3.6-3.6-3.6
		c-10.8,0-21.6,0-32.4,0c-3.9,0-3.9,0-3.9,3.9c0,17.8,0,35.6,0,53.5c0,15.3,0,30.7,0,46c0,1.8-0.3,3.4-1.3,5
		c-2.4,3.7-4.6,7.5-6.8,11.3c-0.4,0.7-0.7,1.5-1.2,2.5c1.2,0.1,2,0.1,2.8,0.1c13.6,0,27.2,0,40.8,0c2.1,0,3.3-0.7,4.4-2.5
		c9.2-15.5,18.5-31,27.8-46.5c13.2-22,26.4-44,39.6-66C134.8,339.5,138.9,332.5,143.1,325.7z"/>
	<path d="M503.5,354.4c-6.5,0-13,0-19.4,0c-2,0-2.3,0.4-2.6,2.4c-1.9,11.3-3.9,22.5-5.8,33.8c-1.7,10.1-3.3,20.3-5,30.5
		c-0.6-2-0.9-4-1.1-6c-1.1-8.3-2.1-16.6-3.2-24.9c-1.1-8.3-2.4-16.6-3.6-24.9c-0.4-2.8-0.9-5.7-1.4-8.5c-0.3-2-0.6-2.2-2.7-2.3
		c-0.6,0-1.1,0-1.7,0c-5.5,0-11,0-16.5,0c-4.1,0-4.1,0-4.1,4.1c0,32.5,0,64.9,0,97.4c0,0.6,0,1.1,0,1.7c0.1,2,0.4,2.4,2.4,2.4
		c3,0,6.1,0,9.1,0c3.8,0,3.9,0,3.8-3.9c-0.2-18.9,0.5-37.9-0.4-56.8c-0.3-6.5-0.1-13.1-0.1-19.7c0-0.5,0-1.1,0.1-1.6
		c0.6,2.3,0.9,4.5,1.2,6.8c1,7.8,2,15.5,3,23.3c1,8.2,2,16.3,3.1,24.5c1,8.2,2.1,16.5,3.2,24.7c0.3,2.3,0.5,2.6,2.8,2.6
		c3.5,0,7,0,10.5,0c2.7,0,2.9-0.2,3.3-2.9c0.5-2.9,0.9-5.9,1.3-8.8c1.7-11.6,3.4-23.2,5-34.9c1.7-12.2,3.3-24.5,5-36.7
		c0.1,0,0.2,0.1,0.3,0.1c0,0.6,0,1.3,0,1.9c-0.1,6.5-0.4,13.1-0.5,19.6c-0.1,5.4,0,10.7,0,16.1c0,14,0,28,0,42c0,3.6,0,3.7,3.6,3.7
		c2.9,0,5.8,0,8.6,0c4.1,0,4.1,0,4.1-4.1c0-32.5,0-64.9,0-97.4c0-0.6,0-1.1,0-1.7C505.8,354.7,505.5,354.4,503.5,354.4z"/>
	<path d="M374.5,332.3c6.4,0,12.8,0.1,19.2,0c3.2-0.1,6.4-0.4,9.5-1.1c4.4-1,8.4-3,11.3-6.7c2.3-3,3.8-6.3,4.5-10
		c1.4-8.6,1.7-17.3,0-26c-0.7-3.9-2.5-7.3-5.5-9.8c-1.2-1-2.6-1.8-4.2-2.9c5.2-3.1,7.2-7.9,8.1-13.3c0.2-1.3,0.3-2.7,0.4-4
		c0.5-6.1,0.5-12.2-1.3-18c-1.5-4.9-4.6-8.7-9.4-10.9c-3.8-1.7-7.7-2.6-11.8-2.7c-7-0.1-13.9,0-20.9,0c-3.8,0-3.8,0-3.8,3.9
		c0,32.5,0,65.1,0,97.6c0,0.6,0,1.3,0,1.9c0.1,1.6,0.5,2,2,2.1C373.2,332.3,373.9,332.3,374.5,332.3z M403.1,295.3
		c0.1,3.8,0,7.5,0,11.2c0,2.5-0.5,4.9-1.5,7.2c-0.9,1.9-2.3,3.2-4.4,3.8c-2.8,0.8-5.7,0.9-8.5,0.8c-1.2,0-1.8-0.6-1.8-1.8
		c0-0.6,0-1.3,0-1.9c0-4.6,0-9.2,0-13.9c0-4.9,0-9.7,0-14.6c0-2.5,0.3-2.8,2.7-2.8c1.4,0,2.9,0,4.3,0c4.4,0.2,7.4,2.5,8.5,6.7
		C402.9,291.8,403.1,293.6,403.1,295.3z M386.9,243.4c0-2.4,0.3-2.6,2.6-2.6c1.8,0,3.5,0.1,5.2,0.3c4.2,0.6,6.2,3.4,6.9,7.2
		c0.8,4.5,0.6,9-0.1,13.6c-0.7,4.4-2.7,6.4-7.1,7.2c-1.7,0.3-3.5,0.4-5.2,0.4c-2,0-2.4-0.3-2.4-2.4c0-4,0-8,0-12
		C386.9,251.2,386.9,247.3,386.9,243.4z"/>
	<path d="M465.8,331.8c3-1.1,5.7-2.6,7.8-5c2.6-2.9,4.4-6.2,5.4-10s1.5-7.6,1.5-11.6c0-8.5,0-17.1,0-25.6c0-8.8,0-17.6,0-26.4
		c0-4.6-0.8-9.1-2.3-13.4c-2.7-7.7-8.2-12.3-16.1-13.9c-3.6-0.7-7.5-0.8-11.2-0.5c-9.1,0.8-16,5.2-19.5,14c-2,4.9-2.7,10-2.7,15.2
		c-0.1,16,0,32,0,47.9c0,4.7,0.4,9.4,1.5,14c1.9,8,6.6,13.6,14.6,15.9C451.8,334.5,458.9,334.3,465.8,331.8z M446,252.7
		c0-2.4,0.6-4.9,1.4-7.2c1.2-3.5,3.6-4.8,7.7-4.7c3.7,0.1,6,1.6,7.1,5c0.6,1.9,1,3.9,1,5.9c0.1,9.4,0,18.7,0,28c0,9.3,0,18.5,0,27.8
		c0,1.9-0.4,3.8-0.9,5.6c-1,3.3-3.7,5.3-7.2,5.3c-4.1,0.1-6.7-1.4-7.8-5c-0.7-2.2-1.3-4.7-1.3-7C445.9,288.5,445.9,270.6,446,252.7z
		"/>
	<path d="M424.8,407.1c0-8.9,0-17.7,0-26.6c0-4-0.5-7.8-1.7-11.6c-2.5-7.8-7.5-13.1-15.6-15c-5.2-1.3-10.4-1.3-15.7-0.1
		c-7.9,1.8-13.4,6.4-16.3,14.1c-2,5.3-2.5,10.8-2.5,16.2c0.1,17.2-0.6,34.5,0.3,51.7c0.2,3.6,0.6,7.2,1.8,10.6
		c2,6.2,5.8,11,12.2,13.3c7.1,2.5,14.3,2.3,21.5,0.4c6.5-1.8,10.8-6,13.4-12.1c1.8-4.1,2.6-8.4,2.6-12.8
		C424.9,425.8,424.8,416.4,424.8,407.1L424.8,407.1z M407.5,435.4c0,1.8-0.3,3.7-0.8,5.4c-1,3.4-3.4,5.1-7.2,5.2
		c-3.8,0.1-6.3-1.3-7.7-4.5c-1.1-2.5-1.5-5.2-1.5-8c-0.1-17.7-0.1-35.3,0-53c0-2.3,0.5-4.6,1.1-6.8c1-3.5,4-5.5,7.6-5.5
		c3.7,0,6.5,1.9,7.6,5.5c0.5,1.6,0.8,3.3,0.8,4.9c0.1,9.5,0,19,0,28.5C407.5,416.6,407.5,426,407.5,435.4z"/>
	<path d="M358.8,354.3c-3.4,0-6.7,0-10.1,0c-3.6,0-3.6,0-3.6,3.6c0,11.2,0,22.4,0,33.6c0,0.7,0,1.4,0,2.2c-0.1,1.5-0.4,1.8-1.9,1.9
		c-4.3,0.1-8.6,0-13,0c-1.1,0-1.8-0.6-1.8-1.8c0-0.7,0-1.4,0-2.2c0-11.5,0-23,0-34.5c0-2.5-0.3-2.8-2.8-2.8c-3.4,0-6.7,0-10.1,0
		c-4,0-4,0-4,4c0,32.5,0,65.1,0,97.6c0,0.5,0,1,0,1.4c0.1,2.2,0.4,2.5,2.5,2.5c3.9,0,7.8,0,11.8,0c2.2,0,2.5-0.3,2.5-2.5
		c0-3.2,0-6.4,0-9.6c0-11,0-22.1,0-33.1c0-3.1,0.1-3.2,3.3-3.2c3,0,6.1,0,9.1,0c4.4,0,4.4,0,4.4,4.3c0,13.8,0,27.5,0,41.2
		c0,2.7,0.2,2.9,2.9,2.9c3.4,0,6.7,0,10.1,0c3.9,0,3.9,0,3.9-3.9c0-16.3,0-32.6,0-48.9c0-1.3,0-2.6,0-3.8c0-15.3,0-30.5,0-45.8
		C361.9,354.5,361.8,354.4,358.8,354.3z"/>
	<path d="M358.4,300.7c-3.1-18.8-6.2-37.5-9.4-56.2c-0.8-5-1.6-9.9-2.5-14.9c-0.4-2.6-0.7-2.8-3.5-2.8c-2.9,0-5.8,0-8.6,0
		c-3,0-6.1,0-9.1,0c-2.7,0-2.9,0.1-3.3,2.7c-1.6,9.7-3.1,19.4-4.7,29.1c-2.5,15.7-5,31.4-7.6,47.1c-1.3,7.8-2.5,15.6-3.8,23.4
		c-0.5,3-0.3,3.2,2.6,3.3c3.8,0,7.7,0,11.5,0c2.2,0,2.7-0.4,3-2.6c0.5-3.9,1-7.8,1.5-11.6c0.5-3.8,1-7.6,1.5-11.4
		c0.3-2,0.6-2.6,2.1-2.6c4-0.1,8,0,12,0c1,0,1.6,0.6,1.9,1.5c0.1,0.5,0.2,1.1,0.3,1.6c1.1,7.5,2.2,15,3.3,22.5
		c0.3,2.1,0.7,2.5,2.8,2.5c4.2,0,8.5,0,12.7,0c2.1,0,2.5-0.5,2.1-2.7C361.6,320,360,310.3,358.4,300.7z M328.6,288.4
		c1.8-14.1,3.6-27.9,5.3-41.7c0.1,0,0.2,0,0.4,0c1.8,13.8,3.6,27.5,5.4,41.7C335.9,288.8,332.4,288.7,328.6,288.4z"/>
	<path d="M524.7,330.1c0.5-2.4,0.9-4.7,1.3-7.1c3-17.6,6-35.1,8.9-52.7c2.3-13.4,4.6-26.8,6.9-40.1c0.2-1,0.2-2,0.3-3.1
		c-0.7-0.2-1-0.4-1.4-0.4c-4.9,0-9.8,0-14.6,0c-1.3,0-1.9,0.6-2,1.9c-0.2,2.1-0.6,4.3-0.9,6.4c-1.3,11.2-2.6,22.3-4,33.5
		c-1.6,12.6-3.3,25.1-5,38.1c-0.9-7-1.7-13.5-2.5-20c-1-8-2.1-16-3.1-24c-0.9-6.8-1.8-13.6-2.6-20.4c-0.6-4.4-1.1-8.9-1.8-13.3
		c-0.3-2.1-0.5-2.2-2.6-2.3c-3.3,0-6.6,0-9.8,0c-1.4,0-2.9,0-4.3,0.1c-1.1,0-1.6,0.7-1.4,1.8c0.1,0.6,0.2,1.1,0.3,1.6
		c0.8,4.6,1.6,9.3,2.4,13.9c2,11.6,4.1,23.3,6.1,34.9c2,11.2,3.9,22.5,5.9,33.8c1,5.6,1.9,11.2,3,16.8c0.4,2.3,0.9,2.7,3,2.7
		c5.2,0,10.4,0,15.6,0C524,332.2,524.3,332,524.7,330.1z"/>
	<path d="M384.8,190.5c1.4-4.1,1.9-8.4,2-12.7c0.1-2.6-0.2-5.2-0.4-7.9c-0.4-6-2.3-11.6-5.9-16.4c-3.2-4.3-7.4-7.7-11.6-11
		c-2.5-1.9-5.1-3.9-7.5-5.9c-1.9-1.6-3.5-3.5-4.4-5.9c-1.8-4.8-1.7-9.7-0.4-14.6c0.8-2.9,2.5-4,5.7-3.9c2.8,0,4.2,1.2,5.1,4.1
		c0.2,0.5,0.3,1.1,0.4,1.6c0.2,2.9,0.3,5.7,0.5,8.6c0.1,2,0.5,2.4,2.4,2.5c4,0.1,8,0.1,12,0c1.8,0,2.3-0.5,2.4-2.3
		c0.2-4.7,0.1-9.4-1.1-14c-1.4-5.3-3.8-9.8-8.9-12.5c-2.8-1.5-5.8-2.2-8.9-2.6c-4.8-0.6-9.5-0.3-13.9,1.4
		c-6.9,2.7-10.5,8.2-12.2,15.2c-1.1,4.5-1,9-1,13.6c0,9.5,4.1,17.1,11.3,23.1c3.8,3.2,7.7,6.2,11.5,9.4c2.2,1.9,4.1,4,5.5,6.6
		c3.4,6.4,3,13.1,1.4,19.8c-0.7,2.9-2.9,4.6-5.9,4.9s-5.6-0.8-7-3.7c-0.8-1.7-1.2-3.6-1.4-5.5c-0.2-2.1,0-4.3-0.1-6.5
		c0-2.5-0.3-2.8-2.7-2.8c-2,0-4,0-6,0v0c-2.2,0-4.3-0.1-6.5,0c-1.6,0.1-2,0.4-2,2c-0.2,5.5,0.1,11,1.7,16.4
		c2,6.6,6.3,11.1,12.9,13.1c4.6,1.4,9.3,1.9,14.2,1.2C375.4,204.6,381.7,199.6,384.8,190.5z"/>
	<path d="M548.6,329.7c0.1,2.1,0.5,2.5,2.6,2.5c12.2,0,24.3,0,36.5,0c2.1,0,2.4-0.2,2.8-2.4c0.5-3.1,0.9-6.2,1.3-9.2
		c0.5-4.1,0.5-4.1-3.8-4.1c-6.5,0-13,0-19.4,0c-2.4,0-2.6-0.3-2.7-2.6c0-0.2,0-0.5,0-0.7c0-8.5,0-16.9,0-25.4c0-0.6,0-1.1,0-1.7
		c0-1.1,0.6-1.6,1.7-1.6c0.6,0,1.3,0,1.9,0c5.4,0,10.9,0,16.3,0c2.8,0,3.1-0.2,3.1-2.9c0-3.2,0-6.4,0-9.6c0-2.6-0.3-2.8-3-2.8
		c-5.5,0-11,0-16.5,0c-0.6,0-1.3,0-1.9,0c-0.9,0-1.5-0.5-1.5-1.5c0-0.6,0-1.3,0-1.9c0-6.5,0-12.9,0-19.4c0-0.6,0-1.1,0-1.7
		c0-1.2,0.7-1.7,1.8-1.8c0.7,0,1.4,0,2.2,0c5.8,0,11.5,0,17.3,0c2.3,0,2.7-0.4,2.7-2.7c0-3.4,0-6.9,0-10.3c0-2.6-0.3-2.8-2.9-2.8
		c-11.8,0-23.7,0-35.5,0c-2.5,0-2.8,0.3-2.8,2.7c0,0.6,0,1.3,0,1.9c0,16,0,32,0,48c0,15.3,0,30.5,0,45.8
		C548.6,326.7,548.5,328.2,548.6,329.7z"/>
	<path d="M399.7,204.7c0.4,0,0.8,0,1.2,0c10.5,0,20.9,0,31.4,0c0.6,0,1.3,0,1.9,0c2.5-0.2,3.2-0.8,3.5-3.3c0.4-2.9,0.7-5.9,1.2-8.8
		c0.5-3.5,0.4-3.7-3.2-3.7c-6.8,0-13.6,0-20.4,0c-2.2,0-2.5-0.3-2.5-2.5c0-9,0-18.1,0-27.1c0-2.2,0.3-2.5,2.5-2.5
		c5.4,0,10.7,0,16.1,0c0.7,0,1.4,0,2.2,0c1.7-0.1,2.1-0.5,2.2-2.2c0-0.5,0-1,0-1.4c0-2.9,0-5.8,0-8.6c0-3.5,0-3.6-3.7-3.6
		c-5,0-9.9,0-14.9,0c-0.6,0-1.1,0-1.7,0c-2.5-0.1-2.8-0.3-2.8-2.7c0-6.9,0-13.9,0-20.8c0-2.5,0.3-2.8,2.8-2.8c6,0,12,0,18,0
		c0.6,0,1.3,0,1.9,0c1.2,0,1.8-0.7,1.8-1.8c0-3.9,0-7.8,0-11.7c0-1.2-0.6-1.8-1.8-1.8c-0.6,0-1.3,0-1.9,0c-5.6,0-11.2,0-16.8,0
		c-5.8,0-11.7,0-17.5,0c-3.1,0-3.2,0.2-3.2,3.2c0,0.6,0,1.3,0,1.9c0,21.7,0,43.3,0,64.9c0,10.5,0,21.1,0,31.6
		C396,204.2,396.4,204.6,399.7,204.7z"/>
	<path d="M559.9,444.5c-4.3,0-8.6,0-13,0c-2.9,0-5.8,0-8.6,0c-1.8,0-2.1-0.4-2.2-2.1c0-0.4,0-0.8,0-1.2c0-8.6,0-17.3,0-25.9
		c0-0.6,0-1.1,0-1.7c0-1.1,0.6-1.6,1.7-1.6c0.6,0,1.3,0,1.9,0c5.5,0,11,0,16.5,0c2.5,0,2.8-0.3,2.8-2.7c0-3.4,0-6.7,0-10.1
		c0-2.3-0.3-2.6-2.7-2.6c-4.1,0-8.2,0-12.2,0c-2,0-4,0-6,0c-1.7-0.1-1.9-0.4-2.1-2c0-0.5,0-1,0-1.4c0-6.5,0-13,0-19.4
		c0-0.6,0-1.1,0-1.7c0-1.2,0.6-1.8,1.8-1.8c0.6,0,1.3,0,1.9,0c5.8,0,11.7,0,17.5,0c2.5,0,2.7-0.3,2.7-2.8c0-3.2,0-6.4,0-9.6
		c0-3.4-0.1-3.4-3.5-3.4c-11.2,0-22.4,0-33.6,0c-3.7,0-3.7,0-3.7,3.8c0,16.3,0,32.6,0,48.9c0,16.2,0,32.4,0,48.7c0,0.8,0,1.6,0,2.4
		c0,1.2,0.7,1.7,1.8,1.8c0.4,0,0.8,0,1.2,0c11.8,0,23.5,0,35.3,0c2.7,0,2.9-0.2,3.3-3c0.5-3.2,0.9-6.5,1.3-9.7
		C562.5,444.8,562.3,444.5,559.9,444.5z"/>
	<path d="M311.6,202.5c0,1.1,0.6,1.8,1.7,2c0.7,0.1,1.4,0.2,2.1,0.2c3,0,5.9,0,8.9,0c3.7,0,4-0.4,4-4.2c0-16.2,0-32.4,0-48.7
		c0-16.1,0-32.3,0-48.4c0-0.7,0-1.4,0-2.2c-0.1-1.7-0.4-2.1-2.2-2.1c-4.1-0.1-8.1-0.1-12.2,0c-2,0-2.3,0.4-2.4,2.4
		c0,0.4,0,0.8,0,1.2c0,32.6,0,65.2,0,97.8C311.5,201.3,311.5,201.9,311.6,202.5z"/>
	<path d="M143.8,429.2c-9,0-18,0-27.1,0c-2.5,0-2.9,0.4-2.9,3c0,8.8,0,17.6,0,26.3c0,2.6,0.3,2.8,2.9,2.8c4.5,0,8.9,0,13.4,0
		s8.9,0,13.4,0c2.5,0,2.8-0.3,2.8-2.7c0-8.9,0-17.9,0-26.8C146.5,429.5,146.2,429.2,143.8,429.2z"/>
	<path d="M143.6,388.9c-4.5,0-8.9,0-13.4,0c-4.6,0-9.1,0-13.7,0c-2.3,0-2.7,0.3-2.7,2.6c0,8.9,0,17.7,0,26.6c0,2.5,0.4,2.9,3,2.9
		c8.9,0,17.7,0,26.6,0c2.7,0,3-0.4,3-3.1c0-8.7,0-17.4,0-26.1C146.5,389.1,146.2,388.9,143.6,388.9z"/>
	<path d="M186.8,432c0-2.5-0.3-2.8-2.8-2.8c-8.9,0-17.8,0-26.6,0c-2.5,0-2.8,0.3-2.8,2.7c0,8.9,0,17.7,0,26.6c0,2.5,0.3,2.8,2.7,2.8
		c8.9,0,17.8,0,26.6,0c2.5,0,2.8-0.3,2.8-2.7c0-4.5,0-9,0-13.4C186.8,440.7,186.8,436.3,186.8,432z"/>
	<path d="M157.4,421c8.9,0,17.9,0,26.8,0c2.3,0,2.6-0.3,2.6-2.7c0-8.9,0-17.9,0-26.8c0-2.3-0.3-2.6-2.7-2.6c-4.4,0-8.8,0-13.2,0
		c-4.6,0-9.3,0-13.9,0c-2,0-2.4,0.4-2.4,2.4c0,9,0,18,0,27.1C154.7,420.6,155.1,421,157.4,421z"/>
	<path d="M48.3,222.6c-0.7,0.4-1,0.6-1.3,0.8c-3.1,3.8-5.7,7.9-7.1,12.6c-1.8,6.1-0.8,12.1,1.4,17.8c2.2,5.8,5,11.4,7.3,17.2
		c2.5,6.3,4.1,12.8,2.8,19.6c-0.1,0.6-0.3,1.3-0.3,1.9c0,0.5,0.2,1,0.3,1.5c0.5-0.2,0.7-0.3,0.9-0.4c5.3-5.8,7.3-12.6,6.1-20.3
		c-1.1-6.8-3.8-13-6.5-19.2c-1.5-3.4-3.1-6.9-4.1-10.5c-1.8-6.4-1.7-12.9,0.1-19.4C48.1,223.8,48.2,223.4,48.3,222.6z"/>
	<path d="M31.7,271.6c-2,5.8-1.8,11.7,0.2,17.4c2,5.5,4.4,10.9,6.8,16.3c3.5,7.9,5.2,16.1,3.6,24.7c-0.1,0.4,0,0.9,0,1.6
		c1.5-0.6,2-1.8,2.8-2.8c3.6-4.3,5.1-9.4,4.9-14.9c-0.2-4.3-1.1-8.5-2.7-12.6c-2.2-5.5-4.6-11-6.8-16.6c-3-7.4-3.8-15-1.4-22.7
		c0.2-0.5,0.2-1,0.3-2.1c-0.8,0.5-1.1,0.6-1.3,0.8C35.4,264,33.1,267.6,31.7,271.6z"/>
</g>
</svg>
